%TF.GenerationSoftware,KiCad,Pcbnew,8.0.6*%
%TF.CreationDate,2026-04-17T23:35:10+02:00*%
%TF.ProjectId,board,626f6172-642e-46b6-9963-61645f706362,rev?*%
%TF.SameCoordinates,Original*%
%TF.FileFunction,Legend,Top*%
%TF.FilePolarity,Positive*%
%FSLAX46Y46*%
G04 Gerber Fmt 4.6, Leading zero omitted, Abs format (unit mm)*
G04 Created by KiCad (PCBNEW 8.0.6) date 2026-04-17 23:35:10*
%MOMM*%
%LPD*%
G01*
G04 APERTURE LIST*
G04 Aperture macros list*
%AMRoundRect*
0 Rectangle with rounded corners*
0 $1 Rounding radius*
0 $2 $3 $4 $5 $6 $7 $8 $9 X,Y pos of 4 corners*
0 Add a 4 corners polygon primitive as box body*
4,1,4,$2,$3,$4,$5,$6,$7,$8,$9,$2,$3,0*
0 Add four circle primitives for the rounded corners*
1,1,$1+$1,$2,$3*
1,1,$1+$1,$4,$5*
1,1,$1+$1,$6,$7*
1,1,$1+$1,$8,$9*
0 Add four rect primitives between the rounded corners*
20,1,$1+$1,$2,$3,$4,$5,0*
20,1,$1+$1,$4,$5,$6,$7,0*
20,1,$1+$1,$6,$7,$8,$9,0*
20,1,$1+$1,$8,$9,$2,$3,0*%
G04 Aperture macros list end*
%ADD10C,0.150000*%
%ADD11RoundRect,0.050000X-0.850000X-0.850000X0.850000X-0.850000X0.850000X0.850000X-0.850000X0.850000X0*%
%ADD12C,1.800000*%
%ADD13RoundRect,0.050000X-0.800000X-0.800000X0.800000X-0.800000X0.800000X0.800000X-0.800000X0.800000X0*%
%ADD14O,1.700000X1.700000*%
%ADD15RoundRect,0.275000X-0.275000X-0.375000X0.275000X-0.375000X0.275000X0.375000X-0.275000X0.375000X0*%
%ADD16C,6.100000*%
G04 APERTURE END LIST*
D10*
X11857143Y-27186128D02*
X11142857Y-27186128D01*
X11142857Y-27186128D02*
X11071429Y-27900414D01*
X11071429Y-27900414D02*
X11142857Y-27828985D01*
X11142857Y-27828985D02*
X11285715Y-27757557D01*
X11285715Y-27757557D02*
X11642857Y-27757557D01*
X11642857Y-27757557D02*
X11785715Y-27828985D01*
X11785715Y-27828985D02*
X11857143Y-27900414D01*
X11857143Y-27900414D02*
X11928572Y-28043271D01*
X11928572Y-28043271D02*
X11928572Y-28400414D01*
X11928572Y-28400414D02*
X11857143Y-28543271D01*
X11857143Y-28543271D02*
X11785715Y-28614700D01*
X11785715Y-28614700D02*
X11642857Y-28686128D01*
X11642857Y-28686128D02*
X11285715Y-28686128D01*
X11285715Y-28686128D02*
X11142857Y-28614700D01*
X11142857Y-28614700D02*
X11071429Y-28543271D01*
X13285714Y-27186128D02*
X12571428Y-27186128D01*
X12571428Y-27186128D02*
X12500000Y-27900414D01*
X12500000Y-27900414D02*
X12571428Y-27828985D01*
X12571428Y-27828985D02*
X12714286Y-27757557D01*
X12714286Y-27757557D02*
X13071428Y-27757557D01*
X13071428Y-27757557D02*
X13214286Y-27828985D01*
X13214286Y-27828985D02*
X13285714Y-27900414D01*
X13285714Y-27900414D02*
X13357143Y-28043271D01*
X13357143Y-28043271D02*
X13357143Y-28400414D01*
X13357143Y-28400414D02*
X13285714Y-28543271D01*
X13285714Y-28543271D02*
X13214286Y-28614700D01*
X13214286Y-28614700D02*
X13071428Y-28686128D01*
X13071428Y-28686128D02*
X12714286Y-28686128D01*
X12714286Y-28686128D02*
X12571428Y-28614700D01*
X12571428Y-28614700D02*
X12500000Y-28543271D01*
X14714285Y-27186128D02*
X13999999Y-27186128D01*
X13999999Y-27186128D02*
X13928571Y-27900414D01*
X13928571Y-27900414D02*
X13999999Y-27828985D01*
X13999999Y-27828985D02*
X14142857Y-27757557D01*
X14142857Y-27757557D02*
X14499999Y-27757557D01*
X14499999Y-27757557D02*
X14642857Y-27828985D01*
X14642857Y-27828985D02*
X14714285Y-27900414D01*
X14714285Y-27900414D02*
X14785714Y-28043271D01*
X14785714Y-28043271D02*
X14785714Y-28400414D01*
X14785714Y-28400414D02*
X14714285Y-28543271D01*
X14714285Y-28543271D02*
X14642857Y-28614700D01*
X14642857Y-28614700D02*
X14499999Y-28686128D01*
X14499999Y-28686128D02*
X14142857Y-28686128D01*
X14142857Y-28686128D02*
X13999999Y-28614700D01*
X13999999Y-28614700D02*
X13928571Y-28543271D01*
X17285713Y-28686128D02*
X16571427Y-28686128D01*
X16571427Y-28686128D02*
X16571427Y-27186128D01*
X17785713Y-27900414D02*
X18285713Y-27900414D01*
X18499999Y-28686128D02*
X17785713Y-28686128D01*
X17785713Y-28686128D02*
X17785713Y-27186128D01*
X17785713Y-27186128D02*
X18499999Y-27186128D01*
X19142856Y-28686128D02*
X19142856Y-27186128D01*
X19142856Y-27186128D02*
X19499999Y-27186128D01*
X19499999Y-27186128D02*
X19714285Y-27257557D01*
X19714285Y-27257557D02*
X19857142Y-27400414D01*
X19857142Y-27400414D02*
X19928571Y-27543271D01*
X19928571Y-27543271D02*
X19999999Y-27828985D01*
X19999999Y-27828985D02*
X19999999Y-28043271D01*
X19999999Y-28043271D02*
X19928571Y-28328985D01*
X19928571Y-28328985D02*
X19857142Y-28471842D01*
X19857142Y-28471842D02*
X19714285Y-28614700D01*
X19714285Y-28614700D02*
X19499999Y-28686128D01*
X19499999Y-28686128D02*
X19142856Y-28686128D01*
X22285713Y-27900414D02*
X22499999Y-27971842D01*
X22499999Y-27971842D02*
X22571428Y-28043271D01*
X22571428Y-28043271D02*
X22642856Y-28186128D01*
X22642856Y-28186128D02*
X22642856Y-28400414D01*
X22642856Y-28400414D02*
X22571428Y-28543271D01*
X22571428Y-28543271D02*
X22499999Y-28614700D01*
X22499999Y-28614700D02*
X22357142Y-28686128D01*
X22357142Y-28686128D02*
X21785713Y-28686128D01*
X21785713Y-28686128D02*
X21785713Y-27186128D01*
X21785713Y-27186128D02*
X22285713Y-27186128D01*
X22285713Y-27186128D02*
X22428571Y-27257557D01*
X22428571Y-27257557D02*
X22499999Y-27328985D01*
X22499999Y-27328985D02*
X22571428Y-27471842D01*
X22571428Y-27471842D02*
X22571428Y-27614700D01*
X22571428Y-27614700D02*
X22499999Y-27757557D01*
X22499999Y-27757557D02*
X22428571Y-27828985D01*
X22428571Y-27828985D02*
X22285713Y-27900414D01*
X22285713Y-27900414D02*
X21785713Y-27900414D01*
X23499999Y-28686128D02*
X23357142Y-28614700D01*
X23357142Y-28614700D02*
X23285713Y-28471842D01*
X23285713Y-28471842D02*
X23285713Y-27186128D01*
X24071427Y-28686128D02*
X24071427Y-27686128D01*
X24071427Y-27186128D02*
X23999999Y-27257557D01*
X23999999Y-27257557D02*
X24071427Y-27328985D01*
X24071427Y-27328985D02*
X24142856Y-27257557D01*
X24142856Y-27257557D02*
X24071427Y-27186128D01*
X24071427Y-27186128D02*
X24071427Y-27328985D01*
X24785713Y-27686128D02*
X24785713Y-28686128D01*
X24785713Y-27828985D02*
X24857142Y-27757557D01*
X24857142Y-27757557D02*
X24999999Y-27686128D01*
X24999999Y-27686128D02*
X25214285Y-27686128D01*
X25214285Y-27686128D02*
X25357142Y-27757557D01*
X25357142Y-27757557D02*
X25428571Y-27900414D01*
X25428571Y-27900414D02*
X25428571Y-28686128D01*
X26142856Y-28686128D02*
X26142856Y-27186128D01*
X26285714Y-28114700D02*
X26714285Y-28686128D01*
X26714285Y-27686128D02*
X26142856Y-28257557D01*
X27928571Y-28614700D02*
X27785714Y-28686128D01*
X27785714Y-28686128D02*
X27500000Y-28686128D01*
X27500000Y-28686128D02*
X27357142Y-28614700D01*
X27357142Y-28614700D02*
X27285714Y-28471842D01*
X27285714Y-28471842D02*
X27285714Y-27900414D01*
X27285714Y-27900414D02*
X27357142Y-27757557D01*
X27357142Y-27757557D02*
X27500000Y-27686128D01*
X27500000Y-27686128D02*
X27785714Y-27686128D01*
X27785714Y-27686128D02*
X27928571Y-27757557D01*
X27928571Y-27757557D02*
X28000000Y-27900414D01*
X28000000Y-27900414D02*
X28000000Y-28043271D01*
X28000000Y-28043271D02*
X27285714Y-28186128D01*
X28642856Y-28686128D02*
X28642856Y-27686128D01*
X28642856Y-27971842D02*
X28714285Y-27828985D01*
X28714285Y-27828985D02*
X28785714Y-27757557D01*
X28785714Y-27757557D02*
X28928571Y-27686128D01*
X28928571Y-27686128D02*
X29071428Y-27686128D01*
X12857142Y-23347342D02*
X12285714Y-23347342D01*
X12285714Y-23347342D02*
X12228571Y-23918771D01*
X12228571Y-23918771D02*
X12285714Y-23861628D01*
X12285714Y-23861628D02*
X12400000Y-23804485D01*
X12400000Y-23804485D02*
X12685714Y-23804485D01*
X12685714Y-23804485D02*
X12800000Y-23861628D01*
X12800000Y-23861628D02*
X12857142Y-23918771D01*
X12857142Y-23918771D02*
X12914285Y-24033057D01*
X12914285Y-24033057D02*
X12914285Y-24318771D01*
X12914285Y-24318771D02*
X12857142Y-24433057D01*
X12857142Y-24433057D02*
X12800000Y-24490200D01*
X12800000Y-24490200D02*
X12685714Y-24547342D01*
X12685714Y-24547342D02*
X12400000Y-24547342D01*
X12400000Y-24547342D02*
X12285714Y-24490200D01*
X12285714Y-24490200D02*
X12228571Y-24433057D01*
X13999999Y-23347342D02*
X13428571Y-23347342D01*
X13428571Y-23347342D02*
X13371428Y-23918771D01*
X13371428Y-23918771D02*
X13428571Y-23861628D01*
X13428571Y-23861628D02*
X13542857Y-23804485D01*
X13542857Y-23804485D02*
X13828571Y-23804485D01*
X13828571Y-23804485D02*
X13942857Y-23861628D01*
X13942857Y-23861628D02*
X13999999Y-23918771D01*
X13999999Y-23918771D02*
X14057142Y-24033057D01*
X14057142Y-24033057D02*
X14057142Y-24318771D01*
X14057142Y-24318771D02*
X13999999Y-24433057D01*
X13999999Y-24433057D02*
X13942857Y-24490200D01*
X13942857Y-24490200D02*
X13828571Y-24547342D01*
X13828571Y-24547342D02*
X13542857Y-24547342D01*
X13542857Y-24547342D02*
X13428571Y-24490200D01*
X13428571Y-24490200D02*
X13371428Y-24433057D01*
X15142856Y-23347342D02*
X14571428Y-23347342D01*
X14571428Y-23347342D02*
X14514285Y-23918771D01*
X14514285Y-23918771D02*
X14571428Y-23861628D01*
X14571428Y-23861628D02*
X14685714Y-23804485D01*
X14685714Y-23804485D02*
X14971428Y-23804485D01*
X14971428Y-23804485D02*
X15085714Y-23861628D01*
X15085714Y-23861628D02*
X15142856Y-23918771D01*
X15142856Y-23918771D02*
X15199999Y-24033057D01*
X15199999Y-24033057D02*
X15199999Y-24318771D01*
X15199999Y-24318771D02*
X15142856Y-24433057D01*
X15142856Y-24433057D02*
X15085714Y-24490200D01*
X15085714Y-24490200D02*
X14971428Y-24547342D01*
X14971428Y-24547342D02*
X14685714Y-24547342D01*
X14685714Y-24547342D02*
X14571428Y-24490200D01*
X14571428Y-24490200D02*
X14514285Y-24433057D01*
X17199999Y-24547342D02*
X16628571Y-24547342D01*
X16628571Y-24547342D02*
X16628571Y-23347342D01*
X17600000Y-23918771D02*
X18000000Y-23918771D01*
X18171428Y-24547342D02*
X17600000Y-24547342D01*
X17600000Y-24547342D02*
X17600000Y-23347342D01*
X17600000Y-23347342D02*
X18171428Y-23347342D01*
X18685714Y-24547342D02*
X18685714Y-23347342D01*
X18685714Y-23347342D02*
X18971428Y-23347342D01*
X18971428Y-23347342D02*
X19142857Y-23404485D01*
X19142857Y-23404485D02*
X19257142Y-23518771D01*
X19257142Y-23518771D02*
X19314285Y-23633057D01*
X19314285Y-23633057D02*
X19371428Y-23861628D01*
X19371428Y-23861628D02*
X19371428Y-24033057D01*
X19371428Y-24033057D02*
X19314285Y-24261628D01*
X19314285Y-24261628D02*
X19257142Y-24375914D01*
X19257142Y-24375914D02*
X19142857Y-24490200D01*
X19142857Y-24490200D02*
X18971428Y-24547342D01*
X18971428Y-24547342D02*
X18685714Y-24547342D01*
X21200000Y-23918771D02*
X21371428Y-23975914D01*
X21371428Y-23975914D02*
X21428571Y-24033057D01*
X21428571Y-24033057D02*
X21485714Y-24147342D01*
X21485714Y-24147342D02*
X21485714Y-24318771D01*
X21485714Y-24318771D02*
X21428571Y-24433057D01*
X21428571Y-24433057D02*
X21371428Y-24490200D01*
X21371428Y-24490200D02*
X21257143Y-24547342D01*
X21257143Y-24547342D02*
X20800000Y-24547342D01*
X20800000Y-24547342D02*
X20800000Y-23347342D01*
X20800000Y-23347342D02*
X21200000Y-23347342D01*
X21200000Y-23347342D02*
X21314286Y-23404485D01*
X21314286Y-23404485D02*
X21371428Y-23461628D01*
X21371428Y-23461628D02*
X21428571Y-23575914D01*
X21428571Y-23575914D02*
X21428571Y-23690200D01*
X21428571Y-23690200D02*
X21371428Y-23804485D01*
X21371428Y-23804485D02*
X21314286Y-23861628D01*
X21314286Y-23861628D02*
X21200000Y-23918771D01*
X21200000Y-23918771D02*
X20800000Y-23918771D01*
X22571428Y-24547342D02*
X22000000Y-24547342D01*
X22000000Y-24547342D02*
X22000000Y-23347342D01*
X22971429Y-24547342D02*
X22971429Y-23347342D01*
X23542858Y-24547342D02*
X23542858Y-23347342D01*
X23542858Y-23347342D02*
X24228572Y-24547342D01*
X24228572Y-24547342D02*
X24228572Y-23347342D01*
X24800001Y-24547342D02*
X24800001Y-23347342D01*
X25485715Y-24547342D02*
X24971429Y-23861628D01*
X25485715Y-23347342D02*
X24800001Y-24033057D01*
X26000001Y-23918771D02*
X26400001Y-23918771D01*
X26571429Y-24547342D02*
X26000001Y-24547342D01*
X26000001Y-24547342D02*
X26000001Y-23347342D01*
X26000001Y-23347342D02*
X26571429Y-23347342D01*
X27771429Y-24547342D02*
X27371429Y-23975914D01*
X27085715Y-24547342D02*
X27085715Y-23347342D01*
X27085715Y-23347342D02*
X27542858Y-23347342D01*
X27542858Y-23347342D02*
X27657143Y-23404485D01*
X27657143Y-23404485D02*
X27714286Y-23461628D01*
X27714286Y-23461628D02*
X27771429Y-23575914D01*
X27771429Y-23575914D02*
X27771429Y-23747342D01*
X27771429Y-23747342D02*
X27714286Y-23861628D01*
X27714286Y-23861628D02*
X27657143Y-23918771D01*
X27657143Y-23918771D02*
X27542858Y-23975914D01*
X27542858Y-23975914D02*
X27085715Y-23975914D01*
X15542856Y-1862295D02*
X15542856Y-1062295D01*
X15542856Y-1062295D02*
X15847618Y-1062295D01*
X15847618Y-1062295D02*
X15923808Y-1100390D01*
X15923808Y-1100390D02*
X15961903Y-1138485D01*
X15961903Y-1138485D02*
X15999999Y-1214676D01*
X15999999Y-1214676D02*
X15999999Y-1328961D01*
X15999999Y-1328961D02*
X15961903Y-1405152D01*
X15961903Y-1405152D02*
X15923808Y-1443247D01*
X15923808Y-1443247D02*
X15847618Y-1481342D01*
X15847618Y-1481342D02*
X15542856Y-1481342D01*
X16685713Y-1328961D02*
X16685713Y-1862295D01*
X16342856Y-1328961D02*
X16342856Y-1748009D01*
X16342856Y-1748009D02*
X16380951Y-1824200D01*
X16380951Y-1824200D02*
X16457141Y-1862295D01*
X16457141Y-1862295D02*
X16571427Y-1862295D01*
X16571427Y-1862295D02*
X16647618Y-1824200D01*
X16647618Y-1824200D02*
X16685713Y-1786104D01*
X17180951Y-1862295D02*
X17104761Y-1824200D01*
X17104761Y-1824200D02*
X17066666Y-1748009D01*
X17066666Y-1748009D02*
X17066666Y-1062295D01*
X17447618Y-1824200D02*
X17523809Y-1862295D01*
X17523809Y-1862295D02*
X17676190Y-1862295D01*
X17676190Y-1862295D02*
X17752380Y-1824200D01*
X17752380Y-1824200D02*
X17790476Y-1748009D01*
X17790476Y-1748009D02*
X17790476Y-1709914D01*
X17790476Y-1709914D02*
X17752380Y-1633723D01*
X17752380Y-1633723D02*
X17676190Y-1595628D01*
X17676190Y-1595628D02*
X17561904Y-1595628D01*
X17561904Y-1595628D02*
X17485714Y-1557533D01*
X17485714Y-1557533D02*
X17447618Y-1481342D01*
X17447618Y-1481342D02*
X17447618Y-1443247D01*
X17447618Y-1443247D02*
X17485714Y-1367057D01*
X17485714Y-1367057D02*
X17561904Y-1328961D01*
X17561904Y-1328961D02*
X17676190Y-1328961D01*
X17676190Y-1328961D02*
X17752380Y-1367057D01*
X18438095Y-1824200D02*
X18361904Y-1862295D01*
X18361904Y-1862295D02*
X18209523Y-1862295D01*
X18209523Y-1862295D02*
X18133333Y-1824200D01*
X18133333Y-1824200D02*
X18095237Y-1748009D01*
X18095237Y-1748009D02*
X18095237Y-1443247D01*
X18095237Y-1443247D02*
X18133333Y-1367057D01*
X18133333Y-1367057D02*
X18209523Y-1328961D01*
X18209523Y-1328961D02*
X18361904Y-1328961D01*
X18361904Y-1328961D02*
X18438095Y-1367057D01*
X18438095Y-1367057D02*
X18476190Y-1443247D01*
X18476190Y-1443247D02*
X18476190Y-1519438D01*
X18476190Y-1519438D02*
X18095237Y-1595628D01*
X19199999Y-1862295D02*
X18819047Y-1862295D01*
X18819047Y-1862295D02*
X18819047Y-1062295D01*
X19809523Y-1862295D02*
X19809523Y-1443247D01*
X19809523Y-1443247D02*
X19771428Y-1367057D01*
X19771428Y-1367057D02*
X19695237Y-1328961D01*
X19695237Y-1328961D02*
X19542856Y-1328961D01*
X19542856Y-1328961D02*
X19466666Y-1367057D01*
X19809523Y-1824200D02*
X19733332Y-1862295D01*
X19733332Y-1862295D02*
X19542856Y-1862295D01*
X19542856Y-1862295D02*
X19466666Y-1824200D01*
X19466666Y-1824200D02*
X19428570Y-1748009D01*
X19428570Y-1748009D02*
X19428570Y-1671819D01*
X19428570Y-1671819D02*
X19466666Y-1595628D01*
X19466666Y-1595628D02*
X19542856Y-1557533D01*
X19542856Y-1557533D02*
X19733332Y-1557533D01*
X19733332Y-1557533D02*
X19809523Y-1519438D01*
X20190476Y-1862295D02*
X20190476Y-1062295D01*
X20190476Y-1367057D02*
X20266666Y-1328961D01*
X20266666Y-1328961D02*
X20419047Y-1328961D01*
X20419047Y-1328961D02*
X20495238Y-1367057D01*
X20495238Y-1367057D02*
X20533333Y-1405152D01*
X20533333Y-1405152D02*
X20571428Y-1481342D01*
X20571428Y-1481342D02*
X20571428Y-1709914D01*
X20571428Y-1709914D02*
X20533333Y-1786104D01*
X20533333Y-1786104D02*
X20495238Y-1824200D01*
X20495238Y-1824200D02*
X20419047Y-1862295D01*
X20419047Y-1862295D02*
X20266666Y-1862295D01*
X20266666Y-1862295D02*
X20190476Y-1824200D01*
X21790476Y-1443247D02*
X21523810Y-1443247D01*
X21523810Y-1862295D02*
X21523810Y-1062295D01*
X21523810Y-1062295D02*
X21904762Y-1062295D01*
X22323809Y-1862295D02*
X22247619Y-1824200D01*
X22247619Y-1824200D02*
X22209524Y-1786104D01*
X22209524Y-1786104D02*
X22171428Y-1709914D01*
X22171428Y-1709914D02*
X22171428Y-1481342D01*
X22171428Y-1481342D02*
X22209524Y-1405152D01*
X22209524Y-1405152D02*
X22247619Y-1367057D01*
X22247619Y-1367057D02*
X22323809Y-1328961D01*
X22323809Y-1328961D02*
X22438095Y-1328961D01*
X22438095Y-1328961D02*
X22514286Y-1367057D01*
X22514286Y-1367057D02*
X22552381Y-1405152D01*
X22552381Y-1405152D02*
X22590476Y-1481342D01*
X22590476Y-1481342D02*
X22590476Y-1709914D01*
X22590476Y-1709914D02*
X22552381Y-1786104D01*
X22552381Y-1786104D02*
X22514286Y-1824200D01*
X22514286Y-1824200D02*
X22438095Y-1862295D01*
X22438095Y-1862295D02*
X22323809Y-1862295D01*
X22933334Y-1862295D02*
X22933334Y-1328961D01*
X22933334Y-1481342D02*
X22971429Y-1405152D01*
X22971429Y-1405152D02*
X23009524Y-1367057D01*
X23009524Y-1367057D02*
X23085715Y-1328961D01*
X23085715Y-1328961D02*
X23161905Y-1328961D01*
X23771429Y-1328961D02*
X23771429Y-1976580D01*
X23771429Y-1976580D02*
X23733334Y-2052771D01*
X23733334Y-2052771D02*
X23695238Y-2090866D01*
X23695238Y-2090866D02*
X23619048Y-2128961D01*
X23619048Y-2128961D02*
X23504762Y-2128961D01*
X23504762Y-2128961D02*
X23428572Y-2090866D01*
X23771429Y-1824200D02*
X23695238Y-1862295D01*
X23695238Y-1862295D02*
X23542857Y-1862295D01*
X23542857Y-1862295D02*
X23466667Y-1824200D01*
X23466667Y-1824200D02*
X23428572Y-1786104D01*
X23428572Y-1786104D02*
X23390476Y-1709914D01*
X23390476Y-1709914D02*
X23390476Y-1481342D01*
X23390476Y-1481342D02*
X23428572Y-1405152D01*
X23428572Y-1405152D02*
X23466667Y-1367057D01*
X23466667Y-1367057D02*
X23542857Y-1328961D01*
X23542857Y-1328961D02*
X23695238Y-1328961D01*
X23695238Y-1328961D02*
X23771429Y-1367057D01*
X24457144Y-1824200D02*
X24380953Y-1862295D01*
X24380953Y-1862295D02*
X24228572Y-1862295D01*
X24228572Y-1862295D02*
X24152382Y-1824200D01*
X24152382Y-1824200D02*
X24114286Y-1748009D01*
X24114286Y-1748009D02*
X24114286Y-1443247D01*
X24114286Y-1443247D02*
X24152382Y-1367057D01*
X24152382Y-1367057D02*
X24228572Y-1328961D01*
X24228572Y-1328961D02*
X24380953Y-1328961D01*
X24380953Y-1328961D02*
X24457144Y-1367057D01*
X24457144Y-1367057D02*
X24495239Y-1443247D01*
X24495239Y-1443247D02*
X24495239Y-1519438D01*
X24495239Y-1519438D02*
X24114286Y-1595628D01*
X2666666Y-4954819D02*
X2666666Y-5669104D01*
X2666666Y-5669104D02*
X2619047Y-5811961D01*
X2619047Y-5811961D02*
X2523809Y-5907200D01*
X2523809Y-5907200D02*
X2380952Y-5954819D01*
X2380952Y-5954819D02*
X2285714Y-5954819D01*
X3666666Y-5954819D02*
X3095238Y-5954819D01*
X3380952Y-5954819D02*
X3380952Y-4954819D01*
X3380952Y-4954819D02*
X3285714Y-5097676D01*
X3285714Y-5097676D02*
X3190476Y-5192914D01*
X3190476Y-5192914D02*
X3095238Y-5240533D01*
X14238095Y-8954819D02*
X14238095Y-9764342D01*
X14238095Y-9764342D02*
X14285714Y-9859580D01*
X14285714Y-9859580D02*
X14333333Y-9907200D01*
X14333333Y-9907200D02*
X14428571Y-9954819D01*
X14428571Y-9954819D02*
X14619047Y-9954819D01*
X14619047Y-9954819D02*
X14714285Y-9907200D01*
X14714285Y-9907200D02*
X14761904Y-9859580D01*
X14761904Y-9859580D02*
X14809523Y-9764342D01*
X14809523Y-9764342D02*
X14809523Y-8954819D01*
X15809523Y-9954819D02*
X15238095Y-9954819D01*
X15523809Y-9954819D02*
X15523809Y-8954819D01*
X15523809Y-8954819D02*
X15428571Y-9097676D01*
X15428571Y-9097676D02*
X15333333Y-9192914D01*
X15333333Y-9192914D02*
X15238095Y-9240533D01*
X7833333Y-2954819D02*
X7500000Y-2478628D01*
X7261905Y-2954819D02*
X7261905Y-1954819D01*
X7261905Y-1954819D02*
X7642857Y-1954819D01*
X7642857Y-1954819D02*
X7738095Y-2002438D01*
X7738095Y-2002438D02*
X7785714Y-2050057D01*
X7785714Y-2050057D02*
X7833333Y-2145295D01*
X7833333Y-2145295D02*
X7833333Y-2288152D01*
X7833333Y-2288152D02*
X7785714Y-2383390D01*
X7785714Y-2383390D02*
X7738095Y-2431009D01*
X7738095Y-2431009D02*
X7642857Y-2478628D01*
X7642857Y-2478628D02*
X7261905Y-2478628D01*
X8785714Y-2954819D02*
X8214286Y-2954819D01*
X8500000Y-2954819D02*
X8500000Y-1954819D01*
X8500000Y-1954819D02*
X8404762Y-2097676D01*
X8404762Y-2097676D02*
X8309524Y-2192914D01*
X8309524Y-2192914D02*
X8214286Y-2240533D01*
X7833333Y-7954819D02*
X7500000Y-7478628D01*
X7261905Y-7954819D02*
X7261905Y-6954819D01*
X7261905Y-6954819D02*
X7642857Y-6954819D01*
X7642857Y-6954819D02*
X7738095Y-7002438D01*
X7738095Y-7002438D02*
X7785714Y-7050057D01*
X7785714Y-7050057D02*
X7833333Y-7145295D01*
X7833333Y-7145295D02*
X7833333Y-7288152D01*
X7833333Y-7288152D02*
X7785714Y-7383390D01*
X7785714Y-7383390D02*
X7738095Y-7431009D01*
X7738095Y-7431009D02*
X7642857Y-7478628D01*
X7642857Y-7478628D02*
X7261905Y-7478628D01*
X8214286Y-7050057D02*
X8261905Y-7002438D01*
X8261905Y-7002438D02*
X8357143Y-6954819D01*
X8357143Y-6954819D02*
X8595238Y-6954819D01*
X8595238Y-6954819D02*
X8690476Y-7002438D01*
X8690476Y-7002438D02*
X8738095Y-7050057D01*
X8738095Y-7050057D02*
X8785714Y-7145295D01*
X8785714Y-7145295D02*
X8785714Y-7240533D01*
X8785714Y-7240533D02*
X8738095Y-7383390D01*
X8738095Y-7383390D02*
X8166667Y-7954819D01*
X8166667Y-7954819D02*
X8785714Y-7954819D01*
X7833333Y-14859580D02*
X7785714Y-14907200D01*
X7785714Y-14907200D02*
X7642857Y-14954819D01*
X7642857Y-14954819D02*
X7547619Y-14954819D01*
X7547619Y-14954819D02*
X7404762Y-14907200D01*
X7404762Y-14907200D02*
X7309524Y-14811961D01*
X7309524Y-14811961D02*
X7261905Y-14716723D01*
X7261905Y-14716723D02*
X7214286Y-14526247D01*
X7214286Y-14526247D02*
X7214286Y-14383390D01*
X7214286Y-14383390D02*
X7261905Y-14192914D01*
X7261905Y-14192914D02*
X7309524Y-14097676D01*
X7309524Y-14097676D02*
X7404762Y-14002438D01*
X7404762Y-14002438D02*
X7547619Y-13954819D01*
X7547619Y-13954819D02*
X7642857Y-13954819D01*
X7642857Y-13954819D02*
X7785714Y-14002438D01*
X7785714Y-14002438D02*
X7833333Y-14050057D01*
X8785714Y-14954819D02*
X8214286Y-14954819D01*
X8500000Y-14954819D02*
X8500000Y-13954819D01*
X8500000Y-13954819D02*
X8404762Y-14097676D01*
X8404762Y-14097676D02*
X8309524Y-14192914D01*
X8309524Y-14192914D02*
X8214286Y-14240533D01*
X7833333Y-19859580D02*
X7785714Y-19907200D01*
X7785714Y-19907200D02*
X7642857Y-19954819D01*
X7642857Y-19954819D02*
X7547619Y-19954819D01*
X7547619Y-19954819D02*
X7404762Y-19907200D01*
X7404762Y-19907200D02*
X7309524Y-19811961D01*
X7309524Y-19811961D02*
X7261905Y-19716723D01*
X7261905Y-19716723D02*
X7214286Y-19526247D01*
X7214286Y-19526247D02*
X7214286Y-19383390D01*
X7214286Y-19383390D02*
X7261905Y-19192914D01*
X7261905Y-19192914D02*
X7309524Y-19097676D01*
X7309524Y-19097676D02*
X7404762Y-19002438D01*
X7404762Y-19002438D02*
X7547619Y-18954819D01*
X7547619Y-18954819D02*
X7642857Y-18954819D01*
X7642857Y-18954819D02*
X7785714Y-19002438D01*
X7785714Y-19002438D02*
X7833333Y-19050057D01*
X8214286Y-19050057D02*
X8261905Y-19002438D01*
X8261905Y-19002438D02*
X8357143Y-18954819D01*
X8357143Y-18954819D02*
X8595238Y-18954819D01*
X8595238Y-18954819D02*
X8690476Y-19002438D01*
X8690476Y-19002438D02*
X8738095Y-19050057D01*
X8738095Y-19050057D02*
X8785714Y-19145295D01*
X8785714Y-19145295D02*
X8785714Y-19240533D01*
X8785714Y-19240533D02*
X8738095Y-19383390D01*
X8738095Y-19383390D02*
X8166667Y-19954819D01*
X8166667Y-19954819D02*
X8785714Y-19954819D01*
X27833333Y-3954819D02*
X27500000Y-3478628D01*
X27261905Y-3954819D02*
X27261905Y-2954819D01*
X27261905Y-2954819D02*
X27642857Y-2954819D01*
X27642857Y-2954819D02*
X27738095Y-3002438D01*
X27738095Y-3002438D02*
X27785714Y-3050057D01*
X27785714Y-3050057D02*
X27833333Y-3145295D01*
X27833333Y-3145295D02*
X27833333Y-3288152D01*
X27833333Y-3288152D02*
X27785714Y-3383390D01*
X27785714Y-3383390D02*
X27738095Y-3431009D01*
X27738095Y-3431009D02*
X27642857Y-3478628D01*
X27642857Y-3478628D02*
X27261905Y-3478628D01*
X28166667Y-2954819D02*
X28785714Y-2954819D01*
X28785714Y-2954819D02*
X28452381Y-3335771D01*
X28452381Y-3335771D02*
X28595238Y-3335771D01*
X28595238Y-3335771D02*
X28690476Y-3383390D01*
X28690476Y-3383390D02*
X28738095Y-3431009D01*
X28738095Y-3431009D02*
X28785714Y-3526247D01*
X28785714Y-3526247D02*
X28785714Y-3764342D01*
X28785714Y-3764342D02*
X28738095Y-3859580D01*
X28738095Y-3859580D02*
X28690476Y-3907200D01*
X28690476Y-3907200D02*
X28595238Y-3954819D01*
X28595238Y-3954819D02*
X28309524Y-3954819D01*
X28309524Y-3954819D02*
X28214286Y-3907200D01*
X28214286Y-3907200D02*
X28166667Y-3859580D01*
X27833333Y-8954819D02*
X27500000Y-8478628D01*
X27261905Y-8954819D02*
X27261905Y-7954819D01*
X27261905Y-7954819D02*
X27642857Y-7954819D01*
X27642857Y-7954819D02*
X27738095Y-8002438D01*
X27738095Y-8002438D02*
X27785714Y-8050057D01*
X27785714Y-8050057D02*
X27833333Y-8145295D01*
X27833333Y-8145295D02*
X27833333Y-8288152D01*
X27833333Y-8288152D02*
X27785714Y-8383390D01*
X27785714Y-8383390D02*
X27738095Y-8431009D01*
X27738095Y-8431009D02*
X27642857Y-8478628D01*
X27642857Y-8478628D02*
X27261905Y-8478628D01*
X28690476Y-8288152D02*
X28690476Y-8954819D01*
X28452381Y-7907200D02*
X28214286Y-8621485D01*
X28214286Y-8621485D02*
X28833333Y-8621485D01*
X27833333Y-13954819D02*
X27500000Y-13478628D01*
X27261905Y-13954819D02*
X27261905Y-12954819D01*
X27261905Y-12954819D02*
X27642857Y-12954819D01*
X27642857Y-12954819D02*
X27738095Y-13002438D01*
X27738095Y-13002438D02*
X27785714Y-13050057D01*
X27785714Y-13050057D02*
X27833333Y-13145295D01*
X27833333Y-13145295D02*
X27833333Y-13288152D01*
X27833333Y-13288152D02*
X27785714Y-13383390D01*
X27785714Y-13383390D02*
X27738095Y-13431009D01*
X27738095Y-13431009D02*
X27642857Y-13478628D01*
X27642857Y-13478628D02*
X27261905Y-13478628D01*
X28738095Y-12954819D02*
X28261905Y-12954819D01*
X28261905Y-12954819D02*
X28214286Y-13431009D01*
X28214286Y-13431009D02*
X28261905Y-13383390D01*
X28261905Y-13383390D02*
X28357143Y-13335771D01*
X28357143Y-13335771D02*
X28595238Y-13335771D01*
X28595238Y-13335771D02*
X28690476Y-13383390D01*
X28690476Y-13383390D02*
X28738095Y-13431009D01*
X28738095Y-13431009D02*
X28785714Y-13526247D01*
X28785714Y-13526247D02*
X28785714Y-13764342D01*
X28785714Y-13764342D02*
X28738095Y-13859580D01*
X28738095Y-13859580D02*
X28690476Y-13907200D01*
X28690476Y-13907200D02*
X28595238Y-13954819D01*
X28595238Y-13954819D02*
X28357143Y-13954819D01*
X28357143Y-13954819D02*
X28261905Y-13907200D01*
X28261905Y-13907200D02*
X28214286Y-13859580D01*
X27833333Y-18954819D02*
X27500000Y-18478628D01*
X27261905Y-18954819D02*
X27261905Y-17954819D01*
X27261905Y-17954819D02*
X27642857Y-17954819D01*
X27642857Y-17954819D02*
X27738095Y-18002438D01*
X27738095Y-18002438D02*
X27785714Y-18050057D01*
X27785714Y-18050057D02*
X27833333Y-18145295D01*
X27833333Y-18145295D02*
X27833333Y-18288152D01*
X27833333Y-18288152D02*
X27785714Y-18383390D01*
X27785714Y-18383390D02*
X27738095Y-18431009D01*
X27738095Y-18431009D02*
X27642857Y-18478628D01*
X27642857Y-18478628D02*
X27261905Y-18478628D01*
X28690476Y-17954819D02*
X28500000Y-17954819D01*
X28500000Y-17954819D02*
X28404762Y-18002438D01*
X28404762Y-18002438D02*
X28357143Y-18050057D01*
X28357143Y-18050057D02*
X28261905Y-18192914D01*
X28261905Y-18192914D02*
X28214286Y-18383390D01*
X28214286Y-18383390D02*
X28214286Y-18764342D01*
X28214286Y-18764342D02*
X28261905Y-18859580D01*
X28261905Y-18859580D02*
X28309524Y-18907200D01*
X28309524Y-18907200D02*
X28404762Y-18954819D01*
X28404762Y-18954819D02*
X28595238Y-18954819D01*
X28595238Y-18954819D02*
X28690476Y-18907200D01*
X28690476Y-18907200D02*
X28738095Y-18859580D01*
X28738095Y-18859580D02*
X28785714Y-18764342D01*
X28785714Y-18764342D02*
X28785714Y-18526247D01*
X28785714Y-18526247D02*
X28738095Y-18431009D01*
X28738095Y-18431009D02*
X28690476Y-18383390D01*
X28690476Y-18383390D02*
X28595238Y-18335771D01*
X28595238Y-18335771D02*
X28404762Y-18335771D01*
X28404762Y-18335771D02*
X28309524Y-18383390D01*
X28309524Y-18383390D02*
X28261905Y-18431009D01*
X28261905Y-18431009D02*
X28214286Y-18526247D01*
X34261905Y-3954819D02*
X34261905Y-2954819D01*
X34261905Y-2954819D02*
X34500000Y-2954819D01*
X34500000Y-2954819D02*
X34642857Y-3002438D01*
X34642857Y-3002438D02*
X34738095Y-3097676D01*
X34738095Y-3097676D02*
X34785714Y-3192914D01*
X34785714Y-3192914D02*
X34833333Y-3383390D01*
X34833333Y-3383390D02*
X34833333Y-3526247D01*
X34833333Y-3526247D02*
X34785714Y-3716723D01*
X34785714Y-3716723D02*
X34738095Y-3811961D01*
X34738095Y-3811961D02*
X34642857Y-3907200D01*
X34642857Y-3907200D02*
X34500000Y-3954819D01*
X34500000Y-3954819D02*
X34261905Y-3954819D01*
X35785714Y-3954819D02*
X35214286Y-3954819D01*
X35500000Y-3954819D02*
X35500000Y-2954819D01*
X35500000Y-2954819D02*
X35404762Y-3097676D01*
X35404762Y-3097676D02*
X35309524Y-3192914D01*
X35309524Y-3192914D02*
X35214286Y-3240533D01*
X34261905Y-8954819D02*
X34261905Y-7954819D01*
X34261905Y-7954819D02*
X34500000Y-7954819D01*
X34500000Y-7954819D02*
X34642857Y-8002438D01*
X34642857Y-8002438D02*
X34738095Y-8097676D01*
X34738095Y-8097676D02*
X34785714Y-8192914D01*
X34785714Y-8192914D02*
X34833333Y-8383390D01*
X34833333Y-8383390D02*
X34833333Y-8526247D01*
X34833333Y-8526247D02*
X34785714Y-8716723D01*
X34785714Y-8716723D02*
X34738095Y-8811961D01*
X34738095Y-8811961D02*
X34642857Y-8907200D01*
X34642857Y-8907200D02*
X34500000Y-8954819D01*
X34500000Y-8954819D02*
X34261905Y-8954819D01*
X35214286Y-8050057D02*
X35261905Y-8002438D01*
X35261905Y-8002438D02*
X35357143Y-7954819D01*
X35357143Y-7954819D02*
X35595238Y-7954819D01*
X35595238Y-7954819D02*
X35690476Y-8002438D01*
X35690476Y-8002438D02*
X35738095Y-8050057D01*
X35738095Y-8050057D02*
X35785714Y-8145295D01*
X35785714Y-8145295D02*
X35785714Y-8240533D01*
X35785714Y-8240533D02*
X35738095Y-8383390D01*
X35738095Y-8383390D02*
X35166667Y-8954819D01*
X35166667Y-8954819D02*
X35785714Y-8954819D01*
X34261905Y-13954819D02*
X34261905Y-12954819D01*
X34261905Y-12954819D02*
X34500000Y-12954819D01*
X34500000Y-12954819D02*
X34642857Y-13002438D01*
X34642857Y-13002438D02*
X34738095Y-13097676D01*
X34738095Y-13097676D02*
X34785714Y-13192914D01*
X34785714Y-13192914D02*
X34833333Y-13383390D01*
X34833333Y-13383390D02*
X34833333Y-13526247D01*
X34833333Y-13526247D02*
X34785714Y-13716723D01*
X34785714Y-13716723D02*
X34738095Y-13811961D01*
X34738095Y-13811961D02*
X34642857Y-13907200D01*
X34642857Y-13907200D02*
X34500000Y-13954819D01*
X34500000Y-13954819D02*
X34261905Y-13954819D01*
X35166667Y-12954819D02*
X35785714Y-12954819D01*
X35785714Y-12954819D02*
X35452381Y-13335771D01*
X35452381Y-13335771D02*
X35595238Y-13335771D01*
X35595238Y-13335771D02*
X35690476Y-13383390D01*
X35690476Y-13383390D02*
X35738095Y-13431009D01*
X35738095Y-13431009D02*
X35785714Y-13526247D01*
X35785714Y-13526247D02*
X35785714Y-13764342D01*
X35785714Y-13764342D02*
X35738095Y-13859580D01*
X35738095Y-13859580D02*
X35690476Y-13907200D01*
X35690476Y-13907200D02*
X35595238Y-13954819D01*
X35595238Y-13954819D02*
X35309524Y-13954819D01*
X35309524Y-13954819D02*
X35214286Y-13907200D01*
X35214286Y-13907200D02*
X35166667Y-13859580D01*
X34261905Y-18954819D02*
X34261905Y-17954819D01*
X34261905Y-17954819D02*
X34500000Y-17954819D01*
X34500000Y-17954819D02*
X34642857Y-18002438D01*
X34642857Y-18002438D02*
X34738095Y-18097676D01*
X34738095Y-18097676D02*
X34785714Y-18192914D01*
X34785714Y-18192914D02*
X34833333Y-18383390D01*
X34833333Y-18383390D02*
X34833333Y-18526247D01*
X34833333Y-18526247D02*
X34785714Y-18716723D01*
X34785714Y-18716723D02*
X34738095Y-18811961D01*
X34738095Y-18811961D02*
X34642857Y-18907200D01*
X34642857Y-18907200D02*
X34500000Y-18954819D01*
X34500000Y-18954819D02*
X34261905Y-18954819D01*
X35690476Y-18288152D02*
X35690476Y-18954819D01*
X35452381Y-17907200D02*
X35214286Y-18621485D01*
X35214286Y-18621485D02*
X35833333Y-18621485D01*
X2714286Y545180D02*
X2714286Y1545180D01*
X2714286Y1068990D02*
X3285714Y1068990D01*
X3285714Y545180D02*
X3285714Y1545180D01*
X36714286Y545180D02*
X36714286Y1545180D01*
X36714286Y1068990D02*
X37285714Y1068990D01*
X37285714Y545180D02*
X37285714Y1545180D01*
X2714286Y-18454819D02*
X2714286Y-17454819D01*
X2714286Y-17931009D02*
X3285714Y-17931009D01*
X3285714Y-18454819D02*
X3285714Y-17454819D01*
X36714286Y-18454819D02*
X36714286Y-17454819D01*
X36714286Y-17931009D02*
X37285714Y-17931009D01*
X37285714Y-18454819D02*
X37285714Y-17454819D01*
%LPC*%
D11*
%TO.C,J1*%
X3000000Y-8000000D03*
D12*
X3000000Y-10540000D03*
%TD*%
D13*
%TO.C,U1*%
X11190000Y-12000000D03*
D14*
X11190000Y-14540000D03*
X11190000Y-17080000D03*
X11190000Y-19620000D03*
X18810000Y-12000000D03*
X18810000Y-14540000D03*
X18810000Y-17080000D03*
X18810000Y-19620000D03*
%TD*%
D15*
%TO.C,R1*%
X6900000Y-5000000D03*
X9100000Y-5000000D03*
%TD*%
%TO.C,R2*%
X6900000Y-10000000D03*
X9100000Y-10000000D03*
%TD*%
%TO.C,C1*%
X6900000Y-17000000D03*
X9100000Y-17000000D03*
%TD*%
%TO.C,C2*%
X6900000Y-22000000D03*
X9100000Y-22000000D03*
%TD*%
%TO.C,R3*%
X26900000Y-6000000D03*
X29100000Y-6000000D03*
%TD*%
%TO.C,R4*%
X26900000Y-11000000D03*
X29100000Y-11000000D03*
%TD*%
%TO.C,R5*%
X26900000Y-16000000D03*
X29100000Y-16000000D03*
%TD*%
%TO.C,R6*%
X26900000Y-21000000D03*
X29100000Y-21000000D03*
%TD*%
D11*
%TO.C,D1*%
X35000000Y-6000000D03*
D12*
X35000000Y-8540000D03*
%TD*%
D11*
%TO.C,D2*%
X35000000Y-11000000D03*
D12*
X35000000Y-13540000D03*
%TD*%
D11*
%TO.C,D3*%
X35000000Y-16000000D03*
D12*
X35000000Y-18540000D03*
%TD*%
D11*
%TO.C,D4*%
X35000000Y-21000000D03*
D12*
X35000000Y-23540000D03*
%TD*%
D16*
%TO.C,H*%
X3000000Y-3000000D03*
%TD*%
%TO.C,H*%
X37000000Y-3000000D03*
%TD*%
%TO.C,H*%
X3000000Y-22000000D03*
%TD*%
%TO.C,H*%
X37000000Y-22000000D03*
%TD*%
%LPD*%
M02*
