M48
; DRILL file {KiCad 8.0.6} date 2026-04-17T23:35:10+0200
; FORMAT={3:3/ absolute / metric / suppress leading zeros}
; #@! TF.CreationDate,2026-04-17T23:35:10+02:00
; #@! TF.GenerationSoftware,Kicad,Pcbnew,8.0.6
; #@! TF.FileFunction,MixedPlating,1,2
FMAT,2
METRIC,TZ
; #@! TA.AperFunction,Plated,PTH,ComponentDrill
T1C0.800
; #@! TA.AperFunction,Plated,PTH,ComponentDrill
T2C1.000
; #@! TA.AperFunction,Plated,PTH,ComponentDrill
T3C2.500
%
G90
G05
T1
X11190Y-12000
X11190Y-14540
X11190Y-17080
X11190Y-19620
X18810Y-12000
X18810Y-14540
X18810Y-17080
X18810Y-19620
T2
X3000Y-8000
X3000Y-10540
X35000Y-6000
X35000Y-8540
X35000Y-11000
X35000Y-13540
X35000Y-16000
X35000Y-18540
X35000Y-21000
X35000Y-23540
T3
X3000Y-3000
X3000Y-22000
X37000Y-3000
X37000Y-22000
M30
