%TF.GenerationSoftware,KiCad,Pcbnew,8.0.6*%
%TF.CreationDate,2026-04-17T23:35:09+02:00*%
%TF.ProjectId,board,626f6172-642e-46b6-9963-61645f706362,rev?*%
%TF.SameCoordinates,Original*%
%TF.FileFunction,AssemblyDrawing,Top*%
%FSLAX46Y46*%
G04 Gerber Fmt 4.6, Leading zero omitted, Abs format (unit mm)*
G04 Created by KiCad (PCBNEW 8.0.6) date 2026-04-17 23:35:09*
%MOMM*%
%LPD*%
G01*
G04 APERTURE LIST*
%ADD10C,0.150000*%
G04 APERTURE END LIST*
D10*
X-2714284Y-6954819D02*
X-2380951Y-7954819D01*
X-2380951Y-7954819D02*
X-2047618Y-6954819D01*
X-1714284Y-7954819D02*
X-1714284Y-6954819D01*
X-1238094Y-7954819D02*
X-1238094Y-6954819D01*
X-1238094Y-6954819D02*
X-666666Y-7954819D01*
X-666666Y-7954819D02*
X-666666Y-6954819D01*
X-190475Y-7573866D02*
X571429Y-7573866D01*
X904762Y-6954819D02*
X1238095Y-7954819D01*
X1238095Y-7954819D02*
X1571428Y-6954819D01*
X2095238Y-6954819D02*
X2285714Y-6954819D01*
X2285714Y-6954819D02*
X2380952Y-7002438D01*
X2380952Y-7002438D02*
X2476190Y-7097676D01*
X2476190Y-7097676D02*
X2523809Y-7288152D01*
X2523809Y-7288152D02*
X2523809Y-7621485D01*
X2523809Y-7621485D02*
X2476190Y-7811961D01*
X2476190Y-7811961D02*
X2380952Y-7907200D01*
X2380952Y-7907200D02*
X2285714Y-7954819D01*
X2285714Y-7954819D02*
X2095238Y-7954819D01*
X2095238Y-7954819D02*
X2000000Y-7907200D01*
X2000000Y-7907200D02*
X1904762Y-7811961D01*
X1904762Y-7811961D02*
X1857143Y-7621485D01*
X1857143Y-7621485D02*
X1857143Y-7288152D01*
X1857143Y-7288152D02*
X1904762Y-7097676D01*
X1904762Y-7097676D02*
X2000000Y-7002438D01*
X2000000Y-7002438D02*
X2095238Y-6954819D01*
X2952381Y-6954819D02*
X2952381Y-7764342D01*
X2952381Y-7764342D02*
X3000000Y-7859580D01*
X3000000Y-7859580D02*
X3047619Y-7907200D01*
X3047619Y-7907200D02*
X3142857Y-7954819D01*
X3142857Y-7954819D02*
X3333333Y-7954819D01*
X3333333Y-7954819D02*
X3428571Y-7907200D01*
X3428571Y-7907200D02*
X3476190Y-7859580D01*
X3476190Y-7859580D02*
X3523809Y-7764342D01*
X3523809Y-7764342D02*
X3523809Y-6954819D01*
X3857143Y-6954819D02*
X4428571Y-6954819D01*
X4142857Y-7954819D02*
X4142857Y-6954819D01*
X4761905Y-7573866D02*
X5523810Y-7573866D01*
X6523809Y-7002438D02*
X6428571Y-6954819D01*
X6428571Y-6954819D02*
X6285714Y-6954819D01*
X6285714Y-6954819D02*
X6142857Y-7002438D01*
X6142857Y-7002438D02*
X6047619Y-7097676D01*
X6047619Y-7097676D02*
X6000000Y-7192914D01*
X6000000Y-7192914D02*
X5952381Y-7383390D01*
X5952381Y-7383390D02*
X5952381Y-7526247D01*
X5952381Y-7526247D02*
X6000000Y-7716723D01*
X6000000Y-7716723D02*
X6047619Y-7811961D01*
X6047619Y-7811961D02*
X6142857Y-7907200D01*
X6142857Y-7907200D02*
X6285714Y-7954819D01*
X6285714Y-7954819D02*
X6380952Y-7954819D01*
X6380952Y-7954819D02*
X6523809Y-7907200D01*
X6523809Y-7907200D02*
X6571428Y-7859580D01*
X6571428Y-7859580D02*
X6571428Y-7526247D01*
X6571428Y-7526247D02*
X6380952Y-7526247D01*
X7000000Y-7954819D02*
X7000000Y-6954819D01*
X7000000Y-6954819D02*
X7571428Y-7954819D01*
X7571428Y-7954819D02*
X7571428Y-6954819D01*
X8047619Y-7954819D02*
X8047619Y-6954819D01*
X8047619Y-6954819D02*
X8285714Y-6954819D01*
X8285714Y-6954819D02*
X8428571Y-7002438D01*
X8428571Y-7002438D02*
X8523809Y-7097676D01*
X8523809Y-7097676D02*
X8571428Y-7192914D01*
X8571428Y-7192914D02*
X8619047Y-7383390D01*
X8619047Y-7383390D02*
X8619047Y-7526247D01*
X8619047Y-7526247D02*
X8571428Y-7716723D01*
X8571428Y-7716723D02*
X8523809Y-7811961D01*
X8523809Y-7811961D02*
X8428571Y-7907200D01*
X8428571Y-7907200D02*
X8285714Y-7954819D01*
X8285714Y-7954819D02*
X8047619Y-7954819D01*
X11404761Y-7954819D02*
X10833333Y-7954819D01*
X11119047Y-7954819D02*
X11119047Y-6954819D01*
X11119047Y-6954819D02*
X11023809Y-7097676D01*
X11023809Y-7097676D02*
X10928571Y-7192914D01*
X10928571Y-7192914D02*
X10833333Y-7240533D01*
X12023809Y-6954819D02*
X12119047Y-6954819D01*
X12119047Y-6954819D02*
X12214285Y-7002438D01*
X12214285Y-7002438D02*
X12261904Y-7050057D01*
X12261904Y-7050057D02*
X12309523Y-7145295D01*
X12309523Y-7145295D02*
X12357142Y-7335771D01*
X12357142Y-7335771D02*
X12357142Y-7573866D01*
X12357142Y-7573866D02*
X12309523Y-7764342D01*
X12309523Y-7764342D02*
X12261904Y-7859580D01*
X12261904Y-7859580D02*
X12214285Y-7907200D01*
X12214285Y-7907200D02*
X12119047Y-7954819D01*
X12119047Y-7954819D02*
X12023809Y-7954819D01*
X12023809Y-7954819D02*
X11928571Y-7907200D01*
X11928571Y-7907200D02*
X11880952Y-7859580D01*
X11880952Y-7859580D02*
X11833333Y-7764342D01*
X11833333Y-7764342D02*
X11785714Y-7573866D01*
X11785714Y-7573866D02*
X11785714Y-7335771D01*
X11785714Y-7335771D02*
X11833333Y-7145295D01*
X11833333Y-7145295D02*
X11880952Y-7050057D01*
X11880952Y-7050057D02*
X11928571Y-7002438D01*
X11928571Y-7002438D02*
X12023809Y-6954819D01*
X12785714Y-7954819D02*
X12785714Y-6954819D01*
X12880952Y-7573866D02*
X13166666Y-7954819D01*
X13166666Y-7288152D02*
X12785714Y-7669104D01*
X10833333Y-12050057D02*
X10880952Y-12002438D01*
X10880952Y-12002438D02*
X10976190Y-11954819D01*
X10976190Y-11954819D02*
X11214285Y-11954819D01*
X11214285Y-11954819D02*
X11309523Y-12002438D01*
X11309523Y-12002438D02*
X11357142Y-12050057D01*
X11357142Y-12050057D02*
X11404761Y-12145295D01*
X11404761Y-12145295D02*
X11404761Y-12240533D01*
X11404761Y-12240533D02*
X11357142Y-12383390D01*
X11357142Y-12383390D02*
X10785714Y-12954819D01*
X10785714Y-12954819D02*
X11404761Y-12954819D01*
X11785714Y-12050057D02*
X11833333Y-12002438D01*
X11833333Y-12002438D02*
X11928571Y-11954819D01*
X11928571Y-11954819D02*
X12166666Y-11954819D01*
X12166666Y-11954819D02*
X12261904Y-12002438D01*
X12261904Y-12002438D02*
X12309523Y-12050057D01*
X12309523Y-12050057D02*
X12357142Y-12145295D01*
X12357142Y-12145295D02*
X12357142Y-12240533D01*
X12357142Y-12240533D02*
X12309523Y-12383390D01*
X12309523Y-12383390D02*
X11738095Y-12954819D01*
X11738095Y-12954819D02*
X12357142Y-12954819D01*
X12785714Y-12954819D02*
X12785714Y-11954819D01*
X12880952Y-12573866D02*
X13166666Y-12954819D01*
X13166666Y-12288152D02*
X12785714Y-12669104D01*
M02*
