%TF.GenerationSoftware,KiCad,Pcbnew,8.0.6*%
%TF.CreationDate,2026-04-18T21:26:53+02:00*%
%TF.ProjectId,board,626f6172-642e-46b6-9963-61645f706362,rev?*%
%TF.SameCoordinates,Original*%
%TF.FileFunction,Legend,Top*%
%TF.FilePolarity,Positive*%
%FSLAX46Y46*%
G04 Gerber Fmt 4.6, Leading zero omitted, Abs format (unit mm)*
G04 Created by KiCad (PCBNEW 8.0.6) date 2026-04-18 21:26:53*
%MOMM*%
%LPD*%
G01*
G04 APERTURE LIST*
G04 Aperture macros list*
%AMRoundRect*
0 Rectangle with rounded corners*
0 $1 Rounding radius*
0 $2 $3 $4 $5 $6 $7 $8 $9 X,Y pos of 4 corners*
0 Add a 4 corners polygon primitive as box body*
4,1,4,$2,$3,$4,$5,$6,$7,$8,$9,$2,$3,0*
0 Add four circle primitives for the rounded corners*
1,1,$1+$1,$2,$3*
1,1,$1+$1,$4,$5*
1,1,$1+$1,$6,$7*
1,1,$1+$1,$8,$9*
0 Add four rect primitives between the rounded corners*
20,1,$1+$1,$2,$3,$4,$5,0*
20,1,$1+$1,$4,$5,$6,$7,0*
20,1,$1+$1,$6,$7,$8,$9,0*
20,1,$1+$1,$8,$9,$2,$3,0*%
G04 Aperture macros list end*
%ADD10C,0.150000*%
%ADD11RoundRect,0.050000X-0.850000X-0.850000X0.850000X-0.850000X0.850000X0.850000X-0.850000X0.850000X0*%
%ADD12C,1.800000*%
%ADD13RoundRect,0.275000X-0.275000X-0.375000X0.275000X-0.375000X0.275000X0.375000X-0.275000X0.375000X0*%
%ADD14C,6.100000*%
G04 APERTURE END LIST*
D10*
X21035713Y-63686128D02*
X21035713Y-62186128D01*
X21035713Y-62186128D02*
X21607142Y-62186128D01*
X21607142Y-62186128D02*
X21749999Y-62257557D01*
X21749999Y-62257557D02*
X21821428Y-62328985D01*
X21821428Y-62328985D02*
X21892856Y-62471842D01*
X21892856Y-62471842D02*
X21892856Y-62686128D01*
X21892856Y-62686128D02*
X21821428Y-62828985D01*
X21821428Y-62828985D02*
X21749999Y-62900414D01*
X21749999Y-62900414D02*
X21607142Y-62971842D01*
X21607142Y-62971842D02*
X21035713Y-62971842D01*
X23178571Y-62686128D02*
X23178571Y-63686128D01*
X22535713Y-62686128D02*
X22535713Y-63471842D01*
X22535713Y-63471842D02*
X22607142Y-63614700D01*
X22607142Y-63614700D02*
X22749999Y-63686128D01*
X22749999Y-63686128D02*
X22964285Y-63686128D01*
X22964285Y-63686128D02*
X23107142Y-63614700D01*
X23107142Y-63614700D02*
X23178571Y-63543271D01*
X24107142Y-63686128D02*
X23964285Y-63614700D01*
X23964285Y-63614700D02*
X23892856Y-63471842D01*
X23892856Y-63471842D02*
X23892856Y-62186128D01*
X24607142Y-63614700D02*
X24749999Y-63686128D01*
X24749999Y-63686128D02*
X25035713Y-63686128D01*
X25035713Y-63686128D02*
X25178570Y-63614700D01*
X25178570Y-63614700D02*
X25249999Y-63471842D01*
X25249999Y-63471842D02*
X25249999Y-63400414D01*
X25249999Y-63400414D02*
X25178570Y-63257557D01*
X25178570Y-63257557D02*
X25035713Y-63186128D01*
X25035713Y-63186128D02*
X24821428Y-63186128D01*
X24821428Y-63186128D02*
X24678570Y-63114700D01*
X24678570Y-63114700D02*
X24607142Y-62971842D01*
X24607142Y-62971842D02*
X24607142Y-62900414D01*
X24607142Y-62900414D02*
X24678570Y-62757557D01*
X24678570Y-62757557D02*
X24821428Y-62686128D01*
X24821428Y-62686128D02*
X25035713Y-62686128D01*
X25035713Y-62686128D02*
X25178570Y-62757557D01*
X26464285Y-63614700D02*
X26321428Y-63686128D01*
X26321428Y-63686128D02*
X26035714Y-63686128D01*
X26035714Y-63686128D02*
X25892856Y-63614700D01*
X25892856Y-63614700D02*
X25821428Y-63471842D01*
X25821428Y-63471842D02*
X25821428Y-62900414D01*
X25821428Y-62900414D02*
X25892856Y-62757557D01*
X25892856Y-62757557D02*
X26035714Y-62686128D01*
X26035714Y-62686128D02*
X26321428Y-62686128D01*
X26321428Y-62686128D02*
X26464285Y-62757557D01*
X26464285Y-62757557D02*
X26535714Y-62900414D01*
X26535714Y-62900414D02*
X26535714Y-63043271D01*
X26535714Y-63043271D02*
X25821428Y-63186128D01*
X27892856Y-63686128D02*
X27178570Y-63686128D01*
X27178570Y-63686128D02*
X27178570Y-62186128D01*
X29035714Y-63686128D02*
X29035714Y-62900414D01*
X29035714Y-62900414D02*
X28964285Y-62757557D01*
X28964285Y-62757557D02*
X28821428Y-62686128D01*
X28821428Y-62686128D02*
X28535714Y-62686128D01*
X28535714Y-62686128D02*
X28392856Y-62757557D01*
X29035714Y-63614700D02*
X28892856Y-63686128D01*
X28892856Y-63686128D02*
X28535714Y-63686128D01*
X28535714Y-63686128D02*
X28392856Y-63614700D01*
X28392856Y-63614700D02*
X28321428Y-63471842D01*
X28321428Y-63471842D02*
X28321428Y-63328985D01*
X28321428Y-63328985D02*
X28392856Y-63186128D01*
X28392856Y-63186128D02*
X28535714Y-63114700D01*
X28535714Y-63114700D02*
X28892856Y-63114700D01*
X28892856Y-63114700D02*
X29035714Y-63043271D01*
X29749999Y-63686128D02*
X29749999Y-62186128D01*
X29749999Y-62757557D02*
X29892857Y-62686128D01*
X29892857Y-62686128D02*
X30178571Y-62686128D01*
X30178571Y-62686128D02*
X30321428Y-62757557D01*
X30321428Y-62757557D02*
X30392857Y-62828985D01*
X30392857Y-62828985D02*
X30464285Y-62971842D01*
X30464285Y-62971842D02*
X30464285Y-63400414D01*
X30464285Y-63400414D02*
X30392857Y-63543271D01*
X30392857Y-63543271D02*
X30321428Y-63614700D01*
X30321428Y-63614700D02*
X30178571Y-63686128D01*
X30178571Y-63686128D02*
X29892857Y-63686128D01*
X29892857Y-63686128D02*
X29749999Y-63614700D01*
X32249999Y-63686128D02*
X32249999Y-62186128D01*
X32249999Y-62186128D02*
X32607142Y-62186128D01*
X32607142Y-62186128D02*
X32821428Y-62257557D01*
X32821428Y-62257557D02*
X32964285Y-62400414D01*
X32964285Y-62400414D02*
X33035714Y-62543271D01*
X33035714Y-62543271D02*
X33107142Y-62828985D01*
X33107142Y-62828985D02*
X33107142Y-63043271D01*
X33107142Y-63043271D02*
X33035714Y-63328985D01*
X33035714Y-63328985D02*
X32964285Y-63471842D01*
X32964285Y-63471842D02*
X32821428Y-63614700D01*
X32821428Y-63614700D02*
X32607142Y-63686128D01*
X32607142Y-63686128D02*
X32249999Y-63686128D01*
X34321428Y-63614700D02*
X34178571Y-63686128D01*
X34178571Y-63686128D02*
X33892857Y-63686128D01*
X33892857Y-63686128D02*
X33749999Y-63614700D01*
X33749999Y-63614700D02*
X33678571Y-63471842D01*
X33678571Y-63471842D02*
X33678571Y-62900414D01*
X33678571Y-62900414D02*
X33749999Y-62757557D01*
X33749999Y-62757557D02*
X33892857Y-62686128D01*
X33892857Y-62686128D02*
X34178571Y-62686128D01*
X34178571Y-62686128D02*
X34321428Y-62757557D01*
X34321428Y-62757557D02*
X34392857Y-62900414D01*
X34392857Y-62900414D02*
X34392857Y-63043271D01*
X34392857Y-63043271D02*
X33678571Y-63186128D01*
X34964285Y-63614700D02*
X35107142Y-63686128D01*
X35107142Y-63686128D02*
X35392856Y-63686128D01*
X35392856Y-63686128D02*
X35535713Y-63614700D01*
X35535713Y-63614700D02*
X35607142Y-63471842D01*
X35607142Y-63471842D02*
X35607142Y-63400414D01*
X35607142Y-63400414D02*
X35535713Y-63257557D01*
X35535713Y-63257557D02*
X35392856Y-63186128D01*
X35392856Y-63186128D02*
X35178571Y-63186128D01*
X35178571Y-63186128D02*
X35035713Y-63114700D01*
X35035713Y-63114700D02*
X34964285Y-62971842D01*
X34964285Y-62971842D02*
X34964285Y-62900414D01*
X34964285Y-62900414D02*
X35035713Y-62757557D01*
X35035713Y-62757557D02*
X35178571Y-62686128D01*
X35178571Y-62686128D02*
X35392856Y-62686128D01*
X35392856Y-62686128D02*
X35535713Y-62757557D01*
X36249999Y-63686128D02*
X36249999Y-62686128D01*
X36249999Y-62186128D02*
X36178571Y-62257557D01*
X36178571Y-62257557D02*
X36249999Y-62328985D01*
X36249999Y-62328985D02*
X36321428Y-62257557D01*
X36321428Y-62257557D02*
X36249999Y-62186128D01*
X36249999Y-62186128D02*
X36249999Y-62328985D01*
X37607143Y-62686128D02*
X37607143Y-63900414D01*
X37607143Y-63900414D02*
X37535714Y-64043271D01*
X37535714Y-64043271D02*
X37464285Y-64114700D01*
X37464285Y-64114700D02*
X37321428Y-64186128D01*
X37321428Y-64186128D02*
X37107143Y-64186128D01*
X37107143Y-64186128D02*
X36964285Y-64114700D01*
X37607143Y-63614700D02*
X37464285Y-63686128D01*
X37464285Y-63686128D02*
X37178571Y-63686128D01*
X37178571Y-63686128D02*
X37035714Y-63614700D01*
X37035714Y-63614700D02*
X36964285Y-63543271D01*
X36964285Y-63543271D02*
X36892857Y-63400414D01*
X36892857Y-63400414D02*
X36892857Y-62971842D01*
X36892857Y-62971842D02*
X36964285Y-62828985D01*
X36964285Y-62828985D02*
X37035714Y-62757557D01*
X37035714Y-62757557D02*
X37178571Y-62686128D01*
X37178571Y-62686128D02*
X37464285Y-62686128D01*
X37464285Y-62686128D02*
X37607143Y-62757557D01*
X38321428Y-62686128D02*
X38321428Y-63686128D01*
X38321428Y-62828985D02*
X38392857Y-62757557D01*
X38392857Y-62757557D02*
X38535714Y-62686128D01*
X38535714Y-62686128D02*
X38750000Y-62686128D01*
X38750000Y-62686128D02*
X38892857Y-62757557D01*
X38892857Y-62757557D02*
X38964286Y-62900414D01*
X38964286Y-62900414D02*
X38964286Y-63686128D01*
X25542856Y-62362295D02*
X25542856Y-61562295D01*
X25542856Y-61562295D02*
X25847618Y-61562295D01*
X25847618Y-61562295D02*
X25923808Y-61600390D01*
X25923808Y-61600390D02*
X25961903Y-61638485D01*
X25961903Y-61638485D02*
X25999999Y-61714676D01*
X25999999Y-61714676D02*
X25999999Y-61828961D01*
X25999999Y-61828961D02*
X25961903Y-61905152D01*
X25961903Y-61905152D02*
X25923808Y-61943247D01*
X25923808Y-61943247D02*
X25847618Y-61981342D01*
X25847618Y-61981342D02*
X25542856Y-61981342D01*
X26685713Y-61828961D02*
X26685713Y-62362295D01*
X26342856Y-61828961D02*
X26342856Y-62248009D01*
X26342856Y-62248009D02*
X26380951Y-62324200D01*
X26380951Y-62324200D02*
X26457141Y-62362295D01*
X26457141Y-62362295D02*
X26571427Y-62362295D01*
X26571427Y-62362295D02*
X26647618Y-62324200D01*
X26647618Y-62324200D02*
X26685713Y-62286104D01*
X27180951Y-62362295D02*
X27104761Y-62324200D01*
X27104761Y-62324200D02*
X27066666Y-62248009D01*
X27066666Y-62248009D02*
X27066666Y-61562295D01*
X27447618Y-62324200D02*
X27523809Y-62362295D01*
X27523809Y-62362295D02*
X27676190Y-62362295D01*
X27676190Y-62362295D02*
X27752380Y-62324200D01*
X27752380Y-62324200D02*
X27790476Y-62248009D01*
X27790476Y-62248009D02*
X27790476Y-62209914D01*
X27790476Y-62209914D02*
X27752380Y-62133723D01*
X27752380Y-62133723D02*
X27676190Y-62095628D01*
X27676190Y-62095628D02*
X27561904Y-62095628D01*
X27561904Y-62095628D02*
X27485714Y-62057533D01*
X27485714Y-62057533D02*
X27447618Y-61981342D01*
X27447618Y-61981342D02*
X27447618Y-61943247D01*
X27447618Y-61943247D02*
X27485714Y-61867057D01*
X27485714Y-61867057D02*
X27561904Y-61828961D01*
X27561904Y-61828961D02*
X27676190Y-61828961D01*
X27676190Y-61828961D02*
X27752380Y-61867057D01*
X28438095Y-62324200D02*
X28361904Y-62362295D01*
X28361904Y-62362295D02*
X28209523Y-62362295D01*
X28209523Y-62362295D02*
X28133333Y-62324200D01*
X28133333Y-62324200D02*
X28095237Y-62248009D01*
X28095237Y-62248009D02*
X28095237Y-61943247D01*
X28095237Y-61943247D02*
X28133333Y-61867057D01*
X28133333Y-61867057D02*
X28209523Y-61828961D01*
X28209523Y-61828961D02*
X28361904Y-61828961D01*
X28361904Y-61828961D02*
X28438095Y-61867057D01*
X28438095Y-61867057D02*
X28476190Y-61943247D01*
X28476190Y-61943247D02*
X28476190Y-62019438D01*
X28476190Y-62019438D02*
X28095237Y-62095628D01*
X29199999Y-62362295D02*
X28819047Y-62362295D01*
X28819047Y-62362295D02*
X28819047Y-61562295D01*
X29809523Y-62362295D02*
X29809523Y-61943247D01*
X29809523Y-61943247D02*
X29771428Y-61867057D01*
X29771428Y-61867057D02*
X29695237Y-61828961D01*
X29695237Y-61828961D02*
X29542856Y-61828961D01*
X29542856Y-61828961D02*
X29466666Y-61867057D01*
X29809523Y-62324200D02*
X29733332Y-62362295D01*
X29733332Y-62362295D02*
X29542856Y-62362295D01*
X29542856Y-62362295D02*
X29466666Y-62324200D01*
X29466666Y-62324200D02*
X29428570Y-62248009D01*
X29428570Y-62248009D02*
X29428570Y-62171819D01*
X29428570Y-62171819D02*
X29466666Y-62095628D01*
X29466666Y-62095628D02*
X29542856Y-62057533D01*
X29542856Y-62057533D02*
X29733332Y-62057533D01*
X29733332Y-62057533D02*
X29809523Y-62019438D01*
X30190476Y-62362295D02*
X30190476Y-61562295D01*
X30190476Y-61867057D02*
X30266666Y-61828961D01*
X30266666Y-61828961D02*
X30419047Y-61828961D01*
X30419047Y-61828961D02*
X30495238Y-61867057D01*
X30495238Y-61867057D02*
X30533333Y-61905152D01*
X30533333Y-61905152D02*
X30571428Y-61981342D01*
X30571428Y-61981342D02*
X30571428Y-62209914D01*
X30571428Y-62209914D02*
X30533333Y-62286104D01*
X30533333Y-62286104D02*
X30495238Y-62324200D01*
X30495238Y-62324200D02*
X30419047Y-62362295D01*
X30419047Y-62362295D02*
X30266666Y-62362295D01*
X30266666Y-62362295D02*
X30190476Y-62324200D01*
X31790476Y-61943247D02*
X31523810Y-61943247D01*
X31523810Y-62362295D02*
X31523810Y-61562295D01*
X31523810Y-61562295D02*
X31904762Y-61562295D01*
X32323809Y-62362295D02*
X32247619Y-62324200D01*
X32247619Y-62324200D02*
X32209524Y-62286104D01*
X32209524Y-62286104D02*
X32171428Y-62209914D01*
X32171428Y-62209914D02*
X32171428Y-61981342D01*
X32171428Y-61981342D02*
X32209524Y-61905152D01*
X32209524Y-61905152D02*
X32247619Y-61867057D01*
X32247619Y-61867057D02*
X32323809Y-61828961D01*
X32323809Y-61828961D02*
X32438095Y-61828961D01*
X32438095Y-61828961D02*
X32514286Y-61867057D01*
X32514286Y-61867057D02*
X32552381Y-61905152D01*
X32552381Y-61905152D02*
X32590476Y-61981342D01*
X32590476Y-61981342D02*
X32590476Y-62209914D01*
X32590476Y-62209914D02*
X32552381Y-62286104D01*
X32552381Y-62286104D02*
X32514286Y-62324200D01*
X32514286Y-62324200D02*
X32438095Y-62362295D01*
X32438095Y-62362295D02*
X32323809Y-62362295D01*
X32933334Y-62362295D02*
X32933334Y-61828961D01*
X32933334Y-61981342D02*
X32971429Y-61905152D01*
X32971429Y-61905152D02*
X33009524Y-61867057D01*
X33009524Y-61867057D02*
X33085715Y-61828961D01*
X33085715Y-61828961D02*
X33161905Y-61828961D01*
X33771429Y-61828961D02*
X33771429Y-62476580D01*
X33771429Y-62476580D02*
X33733334Y-62552771D01*
X33733334Y-62552771D02*
X33695238Y-62590866D01*
X33695238Y-62590866D02*
X33619048Y-62628961D01*
X33619048Y-62628961D02*
X33504762Y-62628961D01*
X33504762Y-62628961D02*
X33428572Y-62590866D01*
X33771429Y-62324200D02*
X33695238Y-62362295D01*
X33695238Y-62362295D02*
X33542857Y-62362295D01*
X33542857Y-62362295D02*
X33466667Y-62324200D01*
X33466667Y-62324200D02*
X33428572Y-62286104D01*
X33428572Y-62286104D02*
X33390476Y-62209914D01*
X33390476Y-62209914D02*
X33390476Y-61981342D01*
X33390476Y-61981342D02*
X33428572Y-61905152D01*
X33428572Y-61905152D02*
X33466667Y-61867057D01*
X33466667Y-61867057D02*
X33542857Y-61828961D01*
X33542857Y-61828961D02*
X33695238Y-61828961D01*
X33695238Y-61828961D02*
X33771429Y-61867057D01*
X34457144Y-62324200D02*
X34380953Y-62362295D01*
X34380953Y-62362295D02*
X34228572Y-62362295D01*
X34228572Y-62362295D02*
X34152382Y-62324200D01*
X34152382Y-62324200D02*
X34114286Y-62248009D01*
X34114286Y-62248009D02*
X34114286Y-61943247D01*
X34114286Y-61943247D02*
X34152382Y-61867057D01*
X34152382Y-61867057D02*
X34228572Y-61828961D01*
X34228572Y-61828961D02*
X34380953Y-61828961D01*
X34380953Y-61828961D02*
X34457144Y-61867057D01*
X34457144Y-61867057D02*
X34495239Y-61943247D01*
X34495239Y-61943247D02*
X34495239Y-62019438D01*
X34495239Y-62019438D02*
X34114286Y-62095628D01*
X5857143Y-4954819D02*
X6190476Y-5954819D01*
X6190476Y-5954819D02*
X6523809Y-4954819D01*
X6619048Y-6050057D02*
X7380952Y-6050057D01*
X7809524Y-4954819D02*
X7904762Y-4954819D01*
X7904762Y-4954819D02*
X8000000Y-5002438D01*
X8000000Y-5002438D02*
X8047619Y-5050057D01*
X8047619Y-5050057D02*
X8095238Y-5145295D01*
X8095238Y-5145295D02*
X8142857Y-5335771D01*
X8142857Y-5335771D02*
X8142857Y-5573866D01*
X8142857Y-5573866D02*
X8095238Y-5764342D01*
X8095238Y-5764342D02*
X8047619Y-5859580D01*
X8047619Y-5859580D02*
X8000000Y-5907200D01*
X8000000Y-5907200D02*
X7904762Y-5954819D01*
X7904762Y-5954819D02*
X7809524Y-5954819D01*
X7809524Y-5954819D02*
X7714286Y-5907200D01*
X7714286Y-5907200D02*
X7666667Y-5859580D01*
X7666667Y-5859580D02*
X7619048Y-5764342D01*
X7619048Y-5764342D02*
X7571429Y-5573866D01*
X7571429Y-5573866D02*
X7571429Y-5335771D01*
X7571429Y-5335771D02*
X7619048Y-5145295D01*
X7619048Y-5145295D02*
X7666667Y-5050057D01*
X7666667Y-5050057D02*
X7714286Y-5002438D01*
X7714286Y-5002438D02*
X7809524Y-4954819D01*
X8761905Y-4954819D02*
X8857143Y-4954819D01*
X8857143Y-4954819D02*
X8952381Y-5002438D01*
X8952381Y-5002438D02*
X9000000Y-5050057D01*
X9000000Y-5050057D02*
X9047619Y-5145295D01*
X9047619Y-5145295D02*
X9095238Y-5335771D01*
X9095238Y-5335771D02*
X9095238Y-5573866D01*
X9095238Y-5573866D02*
X9047619Y-5764342D01*
X9047619Y-5764342D02*
X9000000Y-5859580D01*
X9000000Y-5859580D02*
X8952381Y-5907200D01*
X8952381Y-5907200D02*
X8857143Y-5954819D01*
X8857143Y-5954819D02*
X8761905Y-5954819D01*
X8761905Y-5954819D02*
X8666667Y-5907200D01*
X8666667Y-5907200D02*
X8619048Y-5859580D01*
X8619048Y-5859580D02*
X8571429Y-5764342D01*
X8571429Y-5764342D02*
X8523810Y-5573866D01*
X8523810Y-5573866D02*
X8523810Y-5335771D01*
X8523810Y-5335771D02*
X8571429Y-5145295D01*
X8571429Y-5145295D02*
X8619048Y-5050057D01*
X8619048Y-5050057D02*
X8666667Y-5002438D01*
X8666667Y-5002438D02*
X8761905Y-4954819D01*
X9714286Y-4954819D02*
X9809524Y-4954819D01*
X9809524Y-4954819D02*
X9904762Y-5002438D01*
X9904762Y-5002438D02*
X9952381Y-5050057D01*
X9952381Y-5050057D02*
X10000000Y-5145295D01*
X10000000Y-5145295D02*
X10047619Y-5335771D01*
X10047619Y-5335771D02*
X10047619Y-5573866D01*
X10047619Y-5573866D02*
X10000000Y-5764342D01*
X10000000Y-5764342D02*
X9952381Y-5859580D01*
X9952381Y-5859580D02*
X9904762Y-5907200D01*
X9904762Y-5907200D02*
X9809524Y-5954819D01*
X9809524Y-5954819D02*
X9714286Y-5954819D01*
X9714286Y-5954819D02*
X9619048Y-5907200D01*
X9619048Y-5907200D02*
X9571429Y-5859580D01*
X9571429Y-5859580D02*
X9523810Y-5764342D01*
X9523810Y-5764342D02*
X9476191Y-5573866D01*
X9476191Y-5573866D02*
X9476191Y-5335771D01*
X9476191Y-5335771D02*
X9523810Y-5145295D01*
X9523810Y-5145295D02*
X9571429Y-5050057D01*
X9571429Y-5050057D02*
X9619048Y-5002438D01*
X9619048Y-5002438D02*
X9714286Y-4954819D01*
X17904762Y-5907200D02*
X18047619Y-5954819D01*
X18047619Y-5954819D02*
X18285714Y-5954819D01*
X18285714Y-5954819D02*
X18380952Y-5907200D01*
X18380952Y-5907200D02*
X18428571Y-5859580D01*
X18428571Y-5859580D02*
X18476190Y-5764342D01*
X18476190Y-5764342D02*
X18476190Y-5669104D01*
X18476190Y-5669104D02*
X18428571Y-5573866D01*
X18428571Y-5573866D02*
X18380952Y-5526247D01*
X18380952Y-5526247D02*
X18285714Y-5478628D01*
X18285714Y-5478628D02*
X18095238Y-5431009D01*
X18095238Y-5431009D02*
X18000000Y-5383390D01*
X18000000Y-5383390D02*
X17952381Y-5335771D01*
X17952381Y-5335771D02*
X17904762Y-5240533D01*
X17904762Y-5240533D02*
X17904762Y-5145295D01*
X17904762Y-5145295D02*
X17952381Y-5050057D01*
X17952381Y-5050057D02*
X18000000Y-5002438D01*
X18000000Y-5002438D02*
X18095238Y-4954819D01*
X18095238Y-4954819D02*
X18333333Y-4954819D01*
X18333333Y-4954819D02*
X18476190Y-5002438D01*
X18666667Y-6050057D02*
X19428571Y-6050057D01*
X19857143Y-4954819D02*
X19952381Y-4954819D01*
X19952381Y-4954819D02*
X20047619Y-5002438D01*
X20047619Y-5002438D02*
X20095238Y-5050057D01*
X20095238Y-5050057D02*
X20142857Y-5145295D01*
X20142857Y-5145295D02*
X20190476Y-5335771D01*
X20190476Y-5335771D02*
X20190476Y-5573866D01*
X20190476Y-5573866D02*
X20142857Y-5764342D01*
X20142857Y-5764342D02*
X20095238Y-5859580D01*
X20095238Y-5859580D02*
X20047619Y-5907200D01*
X20047619Y-5907200D02*
X19952381Y-5954819D01*
X19952381Y-5954819D02*
X19857143Y-5954819D01*
X19857143Y-5954819D02*
X19761905Y-5907200D01*
X19761905Y-5907200D02*
X19714286Y-5859580D01*
X19714286Y-5859580D02*
X19666667Y-5764342D01*
X19666667Y-5764342D02*
X19619048Y-5573866D01*
X19619048Y-5573866D02*
X19619048Y-5335771D01*
X19619048Y-5335771D02*
X19666667Y-5145295D01*
X19666667Y-5145295D02*
X19714286Y-5050057D01*
X19714286Y-5050057D02*
X19761905Y-5002438D01*
X19761905Y-5002438D02*
X19857143Y-4954819D01*
X20809524Y-4954819D02*
X20904762Y-4954819D01*
X20904762Y-4954819D02*
X21000000Y-5002438D01*
X21000000Y-5002438D02*
X21047619Y-5050057D01*
X21047619Y-5050057D02*
X21095238Y-5145295D01*
X21095238Y-5145295D02*
X21142857Y-5335771D01*
X21142857Y-5335771D02*
X21142857Y-5573866D01*
X21142857Y-5573866D02*
X21095238Y-5764342D01*
X21095238Y-5764342D02*
X21047619Y-5859580D01*
X21047619Y-5859580D02*
X21000000Y-5907200D01*
X21000000Y-5907200D02*
X20904762Y-5954819D01*
X20904762Y-5954819D02*
X20809524Y-5954819D01*
X20809524Y-5954819D02*
X20714286Y-5907200D01*
X20714286Y-5907200D02*
X20666667Y-5859580D01*
X20666667Y-5859580D02*
X20619048Y-5764342D01*
X20619048Y-5764342D02*
X20571429Y-5573866D01*
X20571429Y-5573866D02*
X20571429Y-5335771D01*
X20571429Y-5335771D02*
X20619048Y-5145295D01*
X20619048Y-5145295D02*
X20666667Y-5050057D01*
X20666667Y-5050057D02*
X20714286Y-5002438D01*
X20714286Y-5002438D02*
X20809524Y-4954819D01*
X22095238Y-5954819D02*
X21523810Y-5954819D01*
X21809524Y-5954819D02*
X21809524Y-4954819D01*
X21809524Y-4954819D02*
X21714286Y-5097676D01*
X21714286Y-5097676D02*
X21619048Y-5192914D01*
X21619048Y-5192914D02*
X21523810Y-5240533D01*
X30499999Y-5954819D02*
X30166666Y-5478628D01*
X29928571Y-5954819D02*
X29928571Y-4954819D01*
X29928571Y-4954819D02*
X30309523Y-4954819D01*
X30309523Y-4954819D02*
X30404761Y-5002438D01*
X30404761Y-5002438D02*
X30452380Y-5050057D01*
X30452380Y-5050057D02*
X30499999Y-5145295D01*
X30499999Y-5145295D02*
X30499999Y-5288152D01*
X30499999Y-5288152D02*
X30452380Y-5383390D01*
X30452380Y-5383390D02*
X30404761Y-5431009D01*
X30404761Y-5431009D02*
X30309523Y-5478628D01*
X30309523Y-5478628D02*
X29928571Y-5478628D01*
X30690476Y-6050057D02*
X31452380Y-6050057D01*
X31880952Y-4954819D02*
X31976190Y-4954819D01*
X31976190Y-4954819D02*
X32071428Y-5002438D01*
X32071428Y-5002438D02*
X32119047Y-5050057D01*
X32119047Y-5050057D02*
X32166666Y-5145295D01*
X32166666Y-5145295D02*
X32214285Y-5335771D01*
X32214285Y-5335771D02*
X32214285Y-5573866D01*
X32214285Y-5573866D02*
X32166666Y-5764342D01*
X32166666Y-5764342D02*
X32119047Y-5859580D01*
X32119047Y-5859580D02*
X32071428Y-5907200D01*
X32071428Y-5907200D02*
X31976190Y-5954819D01*
X31976190Y-5954819D02*
X31880952Y-5954819D01*
X31880952Y-5954819D02*
X31785714Y-5907200D01*
X31785714Y-5907200D02*
X31738095Y-5859580D01*
X31738095Y-5859580D02*
X31690476Y-5764342D01*
X31690476Y-5764342D02*
X31642857Y-5573866D01*
X31642857Y-5573866D02*
X31642857Y-5335771D01*
X31642857Y-5335771D02*
X31690476Y-5145295D01*
X31690476Y-5145295D02*
X31738095Y-5050057D01*
X31738095Y-5050057D02*
X31785714Y-5002438D01*
X31785714Y-5002438D02*
X31880952Y-4954819D01*
X32833333Y-4954819D02*
X32928571Y-4954819D01*
X32928571Y-4954819D02*
X33023809Y-5002438D01*
X33023809Y-5002438D02*
X33071428Y-5050057D01*
X33071428Y-5050057D02*
X33119047Y-5145295D01*
X33119047Y-5145295D02*
X33166666Y-5335771D01*
X33166666Y-5335771D02*
X33166666Y-5573866D01*
X33166666Y-5573866D02*
X33119047Y-5764342D01*
X33119047Y-5764342D02*
X33071428Y-5859580D01*
X33071428Y-5859580D02*
X33023809Y-5907200D01*
X33023809Y-5907200D02*
X32928571Y-5954819D01*
X32928571Y-5954819D02*
X32833333Y-5954819D01*
X32833333Y-5954819D02*
X32738095Y-5907200D01*
X32738095Y-5907200D02*
X32690476Y-5859580D01*
X32690476Y-5859580D02*
X32642857Y-5764342D01*
X32642857Y-5764342D02*
X32595238Y-5573866D01*
X32595238Y-5573866D02*
X32595238Y-5335771D01*
X32595238Y-5335771D02*
X32642857Y-5145295D01*
X32642857Y-5145295D02*
X32690476Y-5050057D01*
X32690476Y-5050057D02*
X32738095Y-5002438D01*
X32738095Y-5002438D02*
X32833333Y-4954819D01*
X33547619Y-5050057D02*
X33595238Y-5002438D01*
X33595238Y-5002438D02*
X33690476Y-4954819D01*
X33690476Y-4954819D02*
X33928571Y-4954819D01*
X33928571Y-4954819D02*
X34023809Y-5002438D01*
X34023809Y-5002438D02*
X34071428Y-5050057D01*
X34071428Y-5050057D02*
X34119047Y-5145295D01*
X34119047Y-5145295D02*
X34119047Y-5240533D01*
X34119047Y-5240533D02*
X34071428Y-5383390D01*
X34071428Y-5383390D02*
X33500000Y-5954819D01*
X33500000Y-5954819D02*
X34119047Y-5954819D01*
X42499999Y-5859580D02*
X42452380Y-5907200D01*
X42452380Y-5907200D02*
X42309523Y-5954819D01*
X42309523Y-5954819D02*
X42214285Y-5954819D01*
X42214285Y-5954819D02*
X42071428Y-5907200D01*
X42071428Y-5907200D02*
X41976190Y-5811961D01*
X41976190Y-5811961D02*
X41928571Y-5716723D01*
X41928571Y-5716723D02*
X41880952Y-5526247D01*
X41880952Y-5526247D02*
X41880952Y-5383390D01*
X41880952Y-5383390D02*
X41928571Y-5192914D01*
X41928571Y-5192914D02*
X41976190Y-5097676D01*
X41976190Y-5097676D02*
X42071428Y-5002438D01*
X42071428Y-5002438D02*
X42214285Y-4954819D01*
X42214285Y-4954819D02*
X42309523Y-4954819D01*
X42309523Y-4954819D02*
X42452380Y-5002438D01*
X42452380Y-5002438D02*
X42499999Y-5050057D01*
X42690476Y-6050057D02*
X43452380Y-6050057D01*
X43880952Y-4954819D02*
X43976190Y-4954819D01*
X43976190Y-4954819D02*
X44071428Y-5002438D01*
X44071428Y-5002438D02*
X44119047Y-5050057D01*
X44119047Y-5050057D02*
X44166666Y-5145295D01*
X44166666Y-5145295D02*
X44214285Y-5335771D01*
X44214285Y-5335771D02*
X44214285Y-5573866D01*
X44214285Y-5573866D02*
X44166666Y-5764342D01*
X44166666Y-5764342D02*
X44119047Y-5859580D01*
X44119047Y-5859580D02*
X44071428Y-5907200D01*
X44071428Y-5907200D02*
X43976190Y-5954819D01*
X43976190Y-5954819D02*
X43880952Y-5954819D01*
X43880952Y-5954819D02*
X43785714Y-5907200D01*
X43785714Y-5907200D02*
X43738095Y-5859580D01*
X43738095Y-5859580D02*
X43690476Y-5764342D01*
X43690476Y-5764342D02*
X43642857Y-5573866D01*
X43642857Y-5573866D02*
X43642857Y-5335771D01*
X43642857Y-5335771D02*
X43690476Y-5145295D01*
X43690476Y-5145295D02*
X43738095Y-5050057D01*
X43738095Y-5050057D02*
X43785714Y-5002438D01*
X43785714Y-5002438D02*
X43880952Y-4954819D01*
X44833333Y-4954819D02*
X44928571Y-4954819D01*
X44928571Y-4954819D02*
X45023809Y-5002438D01*
X45023809Y-5002438D02*
X45071428Y-5050057D01*
X45071428Y-5050057D02*
X45119047Y-5145295D01*
X45119047Y-5145295D02*
X45166666Y-5335771D01*
X45166666Y-5335771D02*
X45166666Y-5573866D01*
X45166666Y-5573866D02*
X45119047Y-5764342D01*
X45119047Y-5764342D02*
X45071428Y-5859580D01*
X45071428Y-5859580D02*
X45023809Y-5907200D01*
X45023809Y-5907200D02*
X44928571Y-5954819D01*
X44928571Y-5954819D02*
X44833333Y-5954819D01*
X44833333Y-5954819D02*
X44738095Y-5907200D01*
X44738095Y-5907200D02*
X44690476Y-5859580D01*
X44690476Y-5859580D02*
X44642857Y-5764342D01*
X44642857Y-5764342D02*
X44595238Y-5573866D01*
X44595238Y-5573866D02*
X44595238Y-5335771D01*
X44595238Y-5335771D02*
X44642857Y-5145295D01*
X44642857Y-5145295D02*
X44690476Y-5050057D01*
X44690476Y-5050057D02*
X44738095Y-5002438D01*
X44738095Y-5002438D02*
X44833333Y-4954819D01*
X45500000Y-4954819D02*
X46119047Y-4954819D01*
X46119047Y-4954819D02*
X45785714Y-5335771D01*
X45785714Y-5335771D02*
X45928571Y-5335771D01*
X45928571Y-5335771D02*
X46023809Y-5383390D01*
X46023809Y-5383390D02*
X46071428Y-5431009D01*
X46071428Y-5431009D02*
X46119047Y-5526247D01*
X46119047Y-5526247D02*
X46119047Y-5764342D01*
X46119047Y-5764342D02*
X46071428Y-5859580D01*
X46071428Y-5859580D02*
X46023809Y-5907200D01*
X46023809Y-5907200D02*
X45928571Y-5954819D01*
X45928571Y-5954819D02*
X45642857Y-5954819D01*
X45642857Y-5954819D02*
X45547619Y-5907200D01*
X45547619Y-5907200D02*
X45500000Y-5859580D01*
X5904762Y-15907200D02*
X6047619Y-15954819D01*
X6047619Y-15954819D02*
X6285714Y-15954819D01*
X6285714Y-15954819D02*
X6380952Y-15907200D01*
X6380952Y-15907200D02*
X6428571Y-15859580D01*
X6428571Y-15859580D02*
X6476190Y-15764342D01*
X6476190Y-15764342D02*
X6476190Y-15669104D01*
X6476190Y-15669104D02*
X6428571Y-15573866D01*
X6428571Y-15573866D02*
X6380952Y-15526247D01*
X6380952Y-15526247D02*
X6285714Y-15478628D01*
X6285714Y-15478628D02*
X6095238Y-15431009D01*
X6095238Y-15431009D02*
X6000000Y-15383390D01*
X6000000Y-15383390D02*
X5952381Y-15335771D01*
X5952381Y-15335771D02*
X5904762Y-15240533D01*
X5904762Y-15240533D02*
X5904762Y-15145295D01*
X5904762Y-15145295D02*
X5952381Y-15050057D01*
X5952381Y-15050057D02*
X6000000Y-15002438D01*
X6000000Y-15002438D02*
X6095238Y-14954819D01*
X6095238Y-14954819D02*
X6333333Y-14954819D01*
X6333333Y-14954819D02*
X6476190Y-15002438D01*
X6666667Y-16050057D02*
X7428571Y-16050057D01*
X7857143Y-14954819D02*
X7952381Y-14954819D01*
X7952381Y-14954819D02*
X8047619Y-15002438D01*
X8047619Y-15002438D02*
X8095238Y-15050057D01*
X8095238Y-15050057D02*
X8142857Y-15145295D01*
X8142857Y-15145295D02*
X8190476Y-15335771D01*
X8190476Y-15335771D02*
X8190476Y-15573866D01*
X8190476Y-15573866D02*
X8142857Y-15764342D01*
X8142857Y-15764342D02*
X8095238Y-15859580D01*
X8095238Y-15859580D02*
X8047619Y-15907200D01*
X8047619Y-15907200D02*
X7952381Y-15954819D01*
X7952381Y-15954819D02*
X7857143Y-15954819D01*
X7857143Y-15954819D02*
X7761905Y-15907200D01*
X7761905Y-15907200D02*
X7714286Y-15859580D01*
X7714286Y-15859580D02*
X7666667Y-15764342D01*
X7666667Y-15764342D02*
X7619048Y-15573866D01*
X7619048Y-15573866D02*
X7619048Y-15335771D01*
X7619048Y-15335771D02*
X7666667Y-15145295D01*
X7666667Y-15145295D02*
X7714286Y-15050057D01*
X7714286Y-15050057D02*
X7761905Y-15002438D01*
X7761905Y-15002438D02*
X7857143Y-14954819D01*
X8809524Y-14954819D02*
X8904762Y-14954819D01*
X8904762Y-14954819D02*
X9000000Y-15002438D01*
X9000000Y-15002438D02*
X9047619Y-15050057D01*
X9047619Y-15050057D02*
X9095238Y-15145295D01*
X9095238Y-15145295D02*
X9142857Y-15335771D01*
X9142857Y-15335771D02*
X9142857Y-15573866D01*
X9142857Y-15573866D02*
X9095238Y-15764342D01*
X9095238Y-15764342D02*
X9047619Y-15859580D01*
X9047619Y-15859580D02*
X9000000Y-15907200D01*
X9000000Y-15907200D02*
X8904762Y-15954819D01*
X8904762Y-15954819D02*
X8809524Y-15954819D01*
X8809524Y-15954819D02*
X8714286Y-15907200D01*
X8714286Y-15907200D02*
X8666667Y-15859580D01*
X8666667Y-15859580D02*
X8619048Y-15764342D01*
X8619048Y-15764342D02*
X8571429Y-15573866D01*
X8571429Y-15573866D02*
X8571429Y-15335771D01*
X8571429Y-15335771D02*
X8619048Y-15145295D01*
X8619048Y-15145295D02*
X8666667Y-15050057D01*
X8666667Y-15050057D02*
X8714286Y-15002438D01*
X8714286Y-15002438D02*
X8809524Y-14954819D01*
X10000000Y-15288152D02*
X10000000Y-15954819D01*
X9761905Y-14907200D02*
X9523810Y-15621485D01*
X9523810Y-15621485D02*
X10142857Y-15621485D01*
X18499999Y-15954819D02*
X18023809Y-15954819D01*
X18023809Y-15954819D02*
X18023809Y-14954819D01*
X18595238Y-16050057D02*
X19357142Y-16050057D01*
X19785714Y-14954819D02*
X19880952Y-14954819D01*
X19880952Y-14954819D02*
X19976190Y-15002438D01*
X19976190Y-15002438D02*
X20023809Y-15050057D01*
X20023809Y-15050057D02*
X20071428Y-15145295D01*
X20071428Y-15145295D02*
X20119047Y-15335771D01*
X20119047Y-15335771D02*
X20119047Y-15573866D01*
X20119047Y-15573866D02*
X20071428Y-15764342D01*
X20071428Y-15764342D02*
X20023809Y-15859580D01*
X20023809Y-15859580D02*
X19976190Y-15907200D01*
X19976190Y-15907200D02*
X19880952Y-15954819D01*
X19880952Y-15954819D02*
X19785714Y-15954819D01*
X19785714Y-15954819D02*
X19690476Y-15907200D01*
X19690476Y-15907200D02*
X19642857Y-15859580D01*
X19642857Y-15859580D02*
X19595238Y-15764342D01*
X19595238Y-15764342D02*
X19547619Y-15573866D01*
X19547619Y-15573866D02*
X19547619Y-15335771D01*
X19547619Y-15335771D02*
X19595238Y-15145295D01*
X19595238Y-15145295D02*
X19642857Y-15050057D01*
X19642857Y-15050057D02*
X19690476Y-15002438D01*
X19690476Y-15002438D02*
X19785714Y-14954819D01*
X20738095Y-14954819D02*
X20833333Y-14954819D01*
X20833333Y-14954819D02*
X20928571Y-15002438D01*
X20928571Y-15002438D02*
X20976190Y-15050057D01*
X20976190Y-15050057D02*
X21023809Y-15145295D01*
X21023809Y-15145295D02*
X21071428Y-15335771D01*
X21071428Y-15335771D02*
X21071428Y-15573866D01*
X21071428Y-15573866D02*
X21023809Y-15764342D01*
X21023809Y-15764342D02*
X20976190Y-15859580D01*
X20976190Y-15859580D02*
X20928571Y-15907200D01*
X20928571Y-15907200D02*
X20833333Y-15954819D01*
X20833333Y-15954819D02*
X20738095Y-15954819D01*
X20738095Y-15954819D02*
X20642857Y-15907200D01*
X20642857Y-15907200D02*
X20595238Y-15859580D01*
X20595238Y-15859580D02*
X20547619Y-15764342D01*
X20547619Y-15764342D02*
X20500000Y-15573866D01*
X20500000Y-15573866D02*
X20500000Y-15335771D01*
X20500000Y-15335771D02*
X20547619Y-15145295D01*
X20547619Y-15145295D02*
X20595238Y-15050057D01*
X20595238Y-15050057D02*
X20642857Y-15002438D01*
X20642857Y-15002438D02*
X20738095Y-14954819D01*
X21976190Y-14954819D02*
X21500000Y-14954819D01*
X21500000Y-14954819D02*
X21452381Y-15431009D01*
X21452381Y-15431009D02*
X21500000Y-15383390D01*
X21500000Y-15383390D02*
X21595238Y-15335771D01*
X21595238Y-15335771D02*
X21833333Y-15335771D01*
X21833333Y-15335771D02*
X21928571Y-15383390D01*
X21928571Y-15383390D02*
X21976190Y-15431009D01*
X21976190Y-15431009D02*
X22023809Y-15526247D01*
X22023809Y-15526247D02*
X22023809Y-15764342D01*
X22023809Y-15764342D02*
X21976190Y-15859580D01*
X21976190Y-15859580D02*
X21928571Y-15907200D01*
X21928571Y-15907200D02*
X21833333Y-15954819D01*
X21833333Y-15954819D02*
X21595238Y-15954819D01*
X21595238Y-15954819D02*
X21500000Y-15907200D01*
X21500000Y-15907200D02*
X21452381Y-15859580D01*
X30499999Y-15954819D02*
X30023809Y-15954819D01*
X30023809Y-15954819D02*
X30023809Y-14954819D01*
X30595238Y-16050057D02*
X31357142Y-16050057D01*
X31785714Y-14954819D02*
X31880952Y-14954819D01*
X31880952Y-14954819D02*
X31976190Y-15002438D01*
X31976190Y-15002438D02*
X32023809Y-15050057D01*
X32023809Y-15050057D02*
X32071428Y-15145295D01*
X32071428Y-15145295D02*
X32119047Y-15335771D01*
X32119047Y-15335771D02*
X32119047Y-15573866D01*
X32119047Y-15573866D02*
X32071428Y-15764342D01*
X32071428Y-15764342D02*
X32023809Y-15859580D01*
X32023809Y-15859580D02*
X31976190Y-15907200D01*
X31976190Y-15907200D02*
X31880952Y-15954819D01*
X31880952Y-15954819D02*
X31785714Y-15954819D01*
X31785714Y-15954819D02*
X31690476Y-15907200D01*
X31690476Y-15907200D02*
X31642857Y-15859580D01*
X31642857Y-15859580D02*
X31595238Y-15764342D01*
X31595238Y-15764342D02*
X31547619Y-15573866D01*
X31547619Y-15573866D02*
X31547619Y-15335771D01*
X31547619Y-15335771D02*
X31595238Y-15145295D01*
X31595238Y-15145295D02*
X31642857Y-15050057D01*
X31642857Y-15050057D02*
X31690476Y-15002438D01*
X31690476Y-15002438D02*
X31785714Y-14954819D01*
X32738095Y-14954819D02*
X32833333Y-14954819D01*
X32833333Y-14954819D02*
X32928571Y-15002438D01*
X32928571Y-15002438D02*
X32976190Y-15050057D01*
X32976190Y-15050057D02*
X33023809Y-15145295D01*
X33023809Y-15145295D02*
X33071428Y-15335771D01*
X33071428Y-15335771D02*
X33071428Y-15573866D01*
X33071428Y-15573866D02*
X33023809Y-15764342D01*
X33023809Y-15764342D02*
X32976190Y-15859580D01*
X32976190Y-15859580D02*
X32928571Y-15907200D01*
X32928571Y-15907200D02*
X32833333Y-15954819D01*
X32833333Y-15954819D02*
X32738095Y-15954819D01*
X32738095Y-15954819D02*
X32642857Y-15907200D01*
X32642857Y-15907200D02*
X32595238Y-15859580D01*
X32595238Y-15859580D02*
X32547619Y-15764342D01*
X32547619Y-15764342D02*
X32500000Y-15573866D01*
X32500000Y-15573866D02*
X32500000Y-15335771D01*
X32500000Y-15335771D02*
X32547619Y-15145295D01*
X32547619Y-15145295D02*
X32595238Y-15050057D01*
X32595238Y-15050057D02*
X32642857Y-15002438D01*
X32642857Y-15002438D02*
X32738095Y-14954819D01*
X33928571Y-14954819D02*
X33738095Y-14954819D01*
X33738095Y-14954819D02*
X33642857Y-15002438D01*
X33642857Y-15002438D02*
X33595238Y-15050057D01*
X33595238Y-15050057D02*
X33500000Y-15192914D01*
X33500000Y-15192914D02*
X33452381Y-15383390D01*
X33452381Y-15383390D02*
X33452381Y-15764342D01*
X33452381Y-15764342D02*
X33500000Y-15859580D01*
X33500000Y-15859580D02*
X33547619Y-15907200D01*
X33547619Y-15907200D02*
X33642857Y-15954819D01*
X33642857Y-15954819D02*
X33833333Y-15954819D01*
X33833333Y-15954819D02*
X33928571Y-15907200D01*
X33928571Y-15907200D02*
X33976190Y-15859580D01*
X33976190Y-15859580D02*
X34023809Y-15764342D01*
X34023809Y-15764342D02*
X34023809Y-15526247D01*
X34023809Y-15526247D02*
X33976190Y-15431009D01*
X33976190Y-15431009D02*
X33928571Y-15383390D01*
X33928571Y-15383390D02*
X33833333Y-15335771D01*
X33833333Y-15335771D02*
X33642857Y-15335771D01*
X33642857Y-15335771D02*
X33547619Y-15383390D01*
X33547619Y-15383390D02*
X33500000Y-15431009D01*
X33500000Y-15431009D02*
X33452381Y-15526247D01*
X42499999Y-15954819D02*
X42023809Y-15954819D01*
X42023809Y-15954819D02*
X42023809Y-14954819D01*
X42595238Y-16050057D02*
X43357142Y-16050057D01*
X43785714Y-14954819D02*
X43880952Y-14954819D01*
X43880952Y-14954819D02*
X43976190Y-15002438D01*
X43976190Y-15002438D02*
X44023809Y-15050057D01*
X44023809Y-15050057D02*
X44071428Y-15145295D01*
X44071428Y-15145295D02*
X44119047Y-15335771D01*
X44119047Y-15335771D02*
X44119047Y-15573866D01*
X44119047Y-15573866D02*
X44071428Y-15764342D01*
X44071428Y-15764342D02*
X44023809Y-15859580D01*
X44023809Y-15859580D02*
X43976190Y-15907200D01*
X43976190Y-15907200D02*
X43880952Y-15954819D01*
X43880952Y-15954819D02*
X43785714Y-15954819D01*
X43785714Y-15954819D02*
X43690476Y-15907200D01*
X43690476Y-15907200D02*
X43642857Y-15859580D01*
X43642857Y-15859580D02*
X43595238Y-15764342D01*
X43595238Y-15764342D02*
X43547619Y-15573866D01*
X43547619Y-15573866D02*
X43547619Y-15335771D01*
X43547619Y-15335771D02*
X43595238Y-15145295D01*
X43595238Y-15145295D02*
X43642857Y-15050057D01*
X43642857Y-15050057D02*
X43690476Y-15002438D01*
X43690476Y-15002438D02*
X43785714Y-14954819D01*
X44738095Y-14954819D02*
X44833333Y-14954819D01*
X44833333Y-14954819D02*
X44928571Y-15002438D01*
X44928571Y-15002438D02*
X44976190Y-15050057D01*
X44976190Y-15050057D02*
X45023809Y-15145295D01*
X45023809Y-15145295D02*
X45071428Y-15335771D01*
X45071428Y-15335771D02*
X45071428Y-15573866D01*
X45071428Y-15573866D02*
X45023809Y-15764342D01*
X45023809Y-15764342D02*
X44976190Y-15859580D01*
X44976190Y-15859580D02*
X44928571Y-15907200D01*
X44928571Y-15907200D02*
X44833333Y-15954819D01*
X44833333Y-15954819D02*
X44738095Y-15954819D01*
X44738095Y-15954819D02*
X44642857Y-15907200D01*
X44642857Y-15907200D02*
X44595238Y-15859580D01*
X44595238Y-15859580D02*
X44547619Y-15764342D01*
X44547619Y-15764342D02*
X44500000Y-15573866D01*
X44500000Y-15573866D02*
X44500000Y-15335771D01*
X44500000Y-15335771D02*
X44547619Y-15145295D01*
X44547619Y-15145295D02*
X44595238Y-15050057D01*
X44595238Y-15050057D02*
X44642857Y-15002438D01*
X44642857Y-15002438D02*
X44738095Y-14954819D01*
X45404762Y-14954819D02*
X46071428Y-14954819D01*
X46071428Y-14954819D02*
X45642857Y-15954819D01*
X6499999Y-25954819D02*
X6023809Y-25954819D01*
X6023809Y-25954819D02*
X6023809Y-24954819D01*
X6595238Y-26050057D02*
X7357142Y-26050057D01*
X7785714Y-24954819D02*
X7880952Y-24954819D01*
X7880952Y-24954819D02*
X7976190Y-25002438D01*
X7976190Y-25002438D02*
X8023809Y-25050057D01*
X8023809Y-25050057D02*
X8071428Y-25145295D01*
X8071428Y-25145295D02*
X8119047Y-25335771D01*
X8119047Y-25335771D02*
X8119047Y-25573866D01*
X8119047Y-25573866D02*
X8071428Y-25764342D01*
X8071428Y-25764342D02*
X8023809Y-25859580D01*
X8023809Y-25859580D02*
X7976190Y-25907200D01*
X7976190Y-25907200D02*
X7880952Y-25954819D01*
X7880952Y-25954819D02*
X7785714Y-25954819D01*
X7785714Y-25954819D02*
X7690476Y-25907200D01*
X7690476Y-25907200D02*
X7642857Y-25859580D01*
X7642857Y-25859580D02*
X7595238Y-25764342D01*
X7595238Y-25764342D02*
X7547619Y-25573866D01*
X7547619Y-25573866D02*
X7547619Y-25335771D01*
X7547619Y-25335771D02*
X7595238Y-25145295D01*
X7595238Y-25145295D02*
X7642857Y-25050057D01*
X7642857Y-25050057D02*
X7690476Y-25002438D01*
X7690476Y-25002438D02*
X7785714Y-24954819D01*
X8738095Y-24954819D02*
X8833333Y-24954819D01*
X8833333Y-24954819D02*
X8928571Y-25002438D01*
X8928571Y-25002438D02*
X8976190Y-25050057D01*
X8976190Y-25050057D02*
X9023809Y-25145295D01*
X9023809Y-25145295D02*
X9071428Y-25335771D01*
X9071428Y-25335771D02*
X9071428Y-25573866D01*
X9071428Y-25573866D02*
X9023809Y-25764342D01*
X9023809Y-25764342D02*
X8976190Y-25859580D01*
X8976190Y-25859580D02*
X8928571Y-25907200D01*
X8928571Y-25907200D02*
X8833333Y-25954819D01*
X8833333Y-25954819D02*
X8738095Y-25954819D01*
X8738095Y-25954819D02*
X8642857Y-25907200D01*
X8642857Y-25907200D02*
X8595238Y-25859580D01*
X8595238Y-25859580D02*
X8547619Y-25764342D01*
X8547619Y-25764342D02*
X8500000Y-25573866D01*
X8500000Y-25573866D02*
X8500000Y-25335771D01*
X8500000Y-25335771D02*
X8547619Y-25145295D01*
X8547619Y-25145295D02*
X8595238Y-25050057D01*
X8595238Y-25050057D02*
X8642857Y-25002438D01*
X8642857Y-25002438D02*
X8738095Y-24954819D01*
X9642857Y-25383390D02*
X9547619Y-25335771D01*
X9547619Y-25335771D02*
X9500000Y-25288152D01*
X9500000Y-25288152D02*
X9452381Y-25192914D01*
X9452381Y-25192914D02*
X9452381Y-25145295D01*
X9452381Y-25145295D02*
X9500000Y-25050057D01*
X9500000Y-25050057D02*
X9547619Y-25002438D01*
X9547619Y-25002438D02*
X9642857Y-24954819D01*
X9642857Y-24954819D02*
X9833333Y-24954819D01*
X9833333Y-24954819D02*
X9928571Y-25002438D01*
X9928571Y-25002438D02*
X9976190Y-25050057D01*
X9976190Y-25050057D02*
X10023809Y-25145295D01*
X10023809Y-25145295D02*
X10023809Y-25192914D01*
X10023809Y-25192914D02*
X9976190Y-25288152D01*
X9976190Y-25288152D02*
X9928571Y-25335771D01*
X9928571Y-25335771D02*
X9833333Y-25383390D01*
X9833333Y-25383390D02*
X9642857Y-25383390D01*
X9642857Y-25383390D02*
X9547619Y-25431009D01*
X9547619Y-25431009D02*
X9500000Y-25478628D01*
X9500000Y-25478628D02*
X9452381Y-25573866D01*
X9452381Y-25573866D02*
X9452381Y-25764342D01*
X9452381Y-25764342D02*
X9500000Y-25859580D01*
X9500000Y-25859580D02*
X9547619Y-25907200D01*
X9547619Y-25907200D02*
X9642857Y-25954819D01*
X9642857Y-25954819D02*
X9833333Y-25954819D01*
X9833333Y-25954819D02*
X9928571Y-25907200D01*
X9928571Y-25907200D02*
X9976190Y-25859580D01*
X9976190Y-25859580D02*
X10023809Y-25764342D01*
X10023809Y-25764342D02*
X10023809Y-25573866D01*
X10023809Y-25573866D02*
X9976190Y-25478628D01*
X9976190Y-25478628D02*
X9928571Y-25431009D01*
X9928571Y-25431009D02*
X9833333Y-25383390D01*
X18499999Y-25954819D02*
X18166666Y-25478628D01*
X17928571Y-25954819D02*
X17928571Y-24954819D01*
X17928571Y-24954819D02*
X18309523Y-24954819D01*
X18309523Y-24954819D02*
X18404761Y-25002438D01*
X18404761Y-25002438D02*
X18452380Y-25050057D01*
X18452380Y-25050057D02*
X18499999Y-25145295D01*
X18499999Y-25145295D02*
X18499999Y-25288152D01*
X18499999Y-25288152D02*
X18452380Y-25383390D01*
X18452380Y-25383390D02*
X18404761Y-25431009D01*
X18404761Y-25431009D02*
X18309523Y-25478628D01*
X18309523Y-25478628D02*
X17928571Y-25478628D01*
X18690476Y-26050057D02*
X19452380Y-26050057D01*
X19880952Y-24954819D02*
X19976190Y-24954819D01*
X19976190Y-24954819D02*
X20071428Y-25002438D01*
X20071428Y-25002438D02*
X20119047Y-25050057D01*
X20119047Y-25050057D02*
X20166666Y-25145295D01*
X20166666Y-25145295D02*
X20214285Y-25335771D01*
X20214285Y-25335771D02*
X20214285Y-25573866D01*
X20214285Y-25573866D02*
X20166666Y-25764342D01*
X20166666Y-25764342D02*
X20119047Y-25859580D01*
X20119047Y-25859580D02*
X20071428Y-25907200D01*
X20071428Y-25907200D02*
X19976190Y-25954819D01*
X19976190Y-25954819D02*
X19880952Y-25954819D01*
X19880952Y-25954819D02*
X19785714Y-25907200D01*
X19785714Y-25907200D02*
X19738095Y-25859580D01*
X19738095Y-25859580D02*
X19690476Y-25764342D01*
X19690476Y-25764342D02*
X19642857Y-25573866D01*
X19642857Y-25573866D02*
X19642857Y-25335771D01*
X19642857Y-25335771D02*
X19690476Y-25145295D01*
X19690476Y-25145295D02*
X19738095Y-25050057D01*
X19738095Y-25050057D02*
X19785714Y-25002438D01*
X19785714Y-25002438D02*
X19880952Y-24954819D01*
X20833333Y-24954819D02*
X20928571Y-24954819D01*
X20928571Y-24954819D02*
X21023809Y-25002438D01*
X21023809Y-25002438D02*
X21071428Y-25050057D01*
X21071428Y-25050057D02*
X21119047Y-25145295D01*
X21119047Y-25145295D02*
X21166666Y-25335771D01*
X21166666Y-25335771D02*
X21166666Y-25573866D01*
X21166666Y-25573866D02*
X21119047Y-25764342D01*
X21119047Y-25764342D02*
X21071428Y-25859580D01*
X21071428Y-25859580D02*
X21023809Y-25907200D01*
X21023809Y-25907200D02*
X20928571Y-25954819D01*
X20928571Y-25954819D02*
X20833333Y-25954819D01*
X20833333Y-25954819D02*
X20738095Y-25907200D01*
X20738095Y-25907200D02*
X20690476Y-25859580D01*
X20690476Y-25859580D02*
X20642857Y-25764342D01*
X20642857Y-25764342D02*
X20595238Y-25573866D01*
X20595238Y-25573866D02*
X20595238Y-25335771D01*
X20595238Y-25335771D02*
X20642857Y-25145295D01*
X20642857Y-25145295D02*
X20690476Y-25050057D01*
X20690476Y-25050057D02*
X20738095Y-25002438D01*
X20738095Y-25002438D02*
X20833333Y-24954819D01*
X21642857Y-25954819D02*
X21833333Y-25954819D01*
X21833333Y-25954819D02*
X21928571Y-25907200D01*
X21928571Y-25907200D02*
X21976190Y-25859580D01*
X21976190Y-25859580D02*
X22071428Y-25716723D01*
X22071428Y-25716723D02*
X22119047Y-25526247D01*
X22119047Y-25526247D02*
X22119047Y-25145295D01*
X22119047Y-25145295D02*
X22071428Y-25050057D01*
X22071428Y-25050057D02*
X22023809Y-25002438D01*
X22023809Y-25002438D02*
X21928571Y-24954819D01*
X21928571Y-24954819D02*
X21738095Y-24954819D01*
X21738095Y-24954819D02*
X21642857Y-25002438D01*
X21642857Y-25002438D02*
X21595238Y-25050057D01*
X21595238Y-25050057D02*
X21547619Y-25145295D01*
X21547619Y-25145295D02*
X21547619Y-25383390D01*
X21547619Y-25383390D02*
X21595238Y-25478628D01*
X21595238Y-25478628D02*
X21642857Y-25526247D01*
X21642857Y-25526247D02*
X21738095Y-25573866D01*
X21738095Y-25573866D02*
X21928571Y-25573866D01*
X21928571Y-25573866D02*
X22023809Y-25526247D01*
X22023809Y-25526247D02*
X22071428Y-25478628D01*
X22071428Y-25478628D02*
X22119047Y-25383390D01*
X29428571Y-25002438D02*
X29333333Y-24954819D01*
X29333333Y-24954819D02*
X29190476Y-24954819D01*
X29190476Y-24954819D02*
X29047619Y-25002438D01*
X29047619Y-25002438D02*
X28952381Y-25097676D01*
X28952381Y-25097676D02*
X28904762Y-25192914D01*
X28904762Y-25192914D02*
X28857143Y-25383390D01*
X28857143Y-25383390D02*
X28857143Y-25526247D01*
X28857143Y-25526247D02*
X28904762Y-25716723D01*
X28904762Y-25716723D02*
X28952381Y-25811961D01*
X28952381Y-25811961D02*
X29047619Y-25907200D01*
X29047619Y-25907200D02*
X29190476Y-25954819D01*
X29190476Y-25954819D02*
X29285714Y-25954819D01*
X29285714Y-25954819D02*
X29428571Y-25907200D01*
X29428571Y-25907200D02*
X29476190Y-25859580D01*
X29476190Y-25859580D02*
X29476190Y-25526247D01*
X29476190Y-25526247D02*
X29285714Y-25526247D01*
X29904762Y-25954819D02*
X29904762Y-24954819D01*
X29904762Y-24954819D02*
X30476190Y-25954819D01*
X30476190Y-25954819D02*
X30476190Y-24954819D01*
X30952381Y-25954819D02*
X30952381Y-24954819D01*
X30952381Y-24954819D02*
X31190476Y-24954819D01*
X31190476Y-24954819D02*
X31333333Y-25002438D01*
X31333333Y-25002438D02*
X31428571Y-25097676D01*
X31428571Y-25097676D02*
X31476190Y-25192914D01*
X31476190Y-25192914D02*
X31523809Y-25383390D01*
X31523809Y-25383390D02*
X31523809Y-25526247D01*
X31523809Y-25526247D02*
X31476190Y-25716723D01*
X31476190Y-25716723D02*
X31428571Y-25811961D01*
X31428571Y-25811961D02*
X31333333Y-25907200D01*
X31333333Y-25907200D02*
X31190476Y-25954819D01*
X31190476Y-25954819D02*
X30952381Y-25954819D01*
X31714286Y-26050057D02*
X32476190Y-26050057D01*
X32904762Y-24954819D02*
X33000000Y-24954819D01*
X33000000Y-24954819D02*
X33095238Y-25002438D01*
X33095238Y-25002438D02*
X33142857Y-25050057D01*
X33142857Y-25050057D02*
X33190476Y-25145295D01*
X33190476Y-25145295D02*
X33238095Y-25335771D01*
X33238095Y-25335771D02*
X33238095Y-25573866D01*
X33238095Y-25573866D02*
X33190476Y-25764342D01*
X33190476Y-25764342D02*
X33142857Y-25859580D01*
X33142857Y-25859580D02*
X33095238Y-25907200D01*
X33095238Y-25907200D02*
X33000000Y-25954819D01*
X33000000Y-25954819D02*
X32904762Y-25954819D01*
X32904762Y-25954819D02*
X32809524Y-25907200D01*
X32809524Y-25907200D02*
X32761905Y-25859580D01*
X32761905Y-25859580D02*
X32714286Y-25764342D01*
X32714286Y-25764342D02*
X32666667Y-25573866D01*
X32666667Y-25573866D02*
X32666667Y-25335771D01*
X32666667Y-25335771D02*
X32714286Y-25145295D01*
X32714286Y-25145295D02*
X32761905Y-25050057D01*
X32761905Y-25050057D02*
X32809524Y-25002438D01*
X32809524Y-25002438D02*
X32904762Y-24954819D01*
X34190476Y-25954819D02*
X33619048Y-25954819D01*
X33904762Y-25954819D02*
X33904762Y-24954819D01*
X33904762Y-24954819D02*
X33809524Y-25097676D01*
X33809524Y-25097676D02*
X33714286Y-25192914D01*
X33714286Y-25192914D02*
X33619048Y-25240533D01*
X34809524Y-24954819D02*
X34904762Y-24954819D01*
X34904762Y-24954819D02*
X35000000Y-25002438D01*
X35000000Y-25002438D02*
X35047619Y-25050057D01*
X35047619Y-25050057D02*
X35095238Y-25145295D01*
X35095238Y-25145295D02*
X35142857Y-25335771D01*
X35142857Y-25335771D02*
X35142857Y-25573866D01*
X35142857Y-25573866D02*
X35095238Y-25764342D01*
X35095238Y-25764342D02*
X35047619Y-25859580D01*
X35047619Y-25859580D02*
X35000000Y-25907200D01*
X35000000Y-25907200D02*
X34904762Y-25954819D01*
X34904762Y-25954819D02*
X34809524Y-25954819D01*
X34809524Y-25954819D02*
X34714286Y-25907200D01*
X34714286Y-25907200D02*
X34666667Y-25859580D01*
X34666667Y-25859580D02*
X34619048Y-25764342D01*
X34619048Y-25764342D02*
X34571429Y-25573866D01*
X34571429Y-25573866D02*
X34571429Y-25335771D01*
X34571429Y-25335771D02*
X34619048Y-25145295D01*
X34619048Y-25145295D02*
X34666667Y-25050057D01*
X34666667Y-25050057D02*
X34714286Y-25002438D01*
X34714286Y-25002438D02*
X34809524Y-24954819D01*
X41428571Y-25002438D02*
X41333333Y-24954819D01*
X41333333Y-24954819D02*
X41190476Y-24954819D01*
X41190476Y-24954819D02*
X41047619Y-25002438D01*
X41047619Y-25002438D02*
X40952381Y-25097676D01*
X40952381Y-25097676D02*
X40904762Y-25192914D01*
X40904762Y-25192914D02*
X40857143Y-25383390D01*
X40857143Y-25383390D02*
X40857143Y-25526247D01*
X40857143Y-25526247D02*
X40904762Y-25716723D01*
X40904762Y-25716723D02*
X40952381Y-25811961D01*
X40952381Y-25811961D02*
X41047619Y-25907200D01*
X41047619Y-25907200D02*
X41190476Y-25954819D01*
X41190476Y-25954819D02*
X41285714Y-25954819D01*
X41285714Y-25954819D02*
X41428571Y-25907200D01*
X41428571Y-25907200D02*
X41476190Y-25859580D01*
X41476190Y-25859580D02*
X41476190Y-25526247D01*
X41476190Y-25526247D02*
X41285714Y-25526247D01*
X41904762Y-25954819D02*
X41904762Y-24954819D01*
X41904762Y-24954819D02*
X42476190Y-25954819D01*
X42476190Y-25954819D02*
X42476190Y-24954819D01*
X42952381Y-25954819D02*
X42952381Y-24954819D01*
X42952381Y-24954819D02*
X43190476Y-24954819D01*
X43190476Y-24954819D02*
X43333333Y-25002438D01*
X43333333Y-25002438D02*
X43428571Y-25097676D01*
X43428571Y-25097676D02*
X43476190Y-25192914D01*
X43476190Y-25192914D02*
X43523809Y-25383390D01*
X43523809Y-25383390D02*
X43523809Y-25526247D01*
X43523809Y-25526247D02*
X43476190Y-25716723D01*
X43476190Y-25716723D02*
X43428571Y-25811961D01*
X43428571Y-25811961D02*
X43333333Y-25907200D01*
X43333333Y-25907200D02*
X43190476Y-25954819D01*
X43190476Y-25954819D02*
X42952381Y-25954819D01*
X43714286Y-26050057D02*
X44476190Y-26050057D01*
X44904762Y-24954819D02*
X45000000Y-24954819D01*
X45000000Y-24954819D02*
X45095238Y-25002438D01*
X45095238Y-25002438D02*
X45142857Y-25050057D01*
X45142857Y-25050057D02*
X45190476Y-25145295D01*
X45190476Y-25145295D02*
X45238095Y-25335771D01*
X45238095Y-25335771D02*
X45238095Y-25573866D01*
X45238095Y-25573866D02*
X45190476Y-25764342D01*
X45190476Y-25764342D02*
X45142857Y-25859580D01*
X45142857Y-25859580D02*
X45095238Y-25907200D01*
X45095238Y-25907200D02*
X45000000Y-25954819D01*
X45000000Y-25954819D02*
X44904762Y-25954819D01*
X44904762Y-25954819D02*
X44809524Y-25907200D01*
X44809524Y-25907200D02*
X44761905Y-25859580D01*
X44761905Y-25859580D02*
X44714286Y-25764342D01*
X44714286Y-25764342D02*
X44666667Y-25573866D01*
X44666667Y-25573866D02*
X44666667Y-25335771D01*
X44666667Y-25335771D02*
X44714286Y-25145295D01*
X44714286Y-25145295D02*
X44761905Y-25050057D01*
X44761905Y-25050057D02*
X44809524Y-25002438D01*
X44809524Y-25002438D02*
X44904762Y-24954819D01*
X46190476Y-25954819D02*
X45619048Y-25954819D01*
X45904762Y-25954819D02*
X45904762Y-24954819D01*
X45904762Y-24954819D02*
X45809524Y-25097676D01*
X45809524Y-25097676D02*
X45714286Y-25192914D01*
X45714286Y-25192914D02*
X45619048Y-25240533D01*
X47142857Y-25954819D02*
X46571429Y-25954819D01*
X46857143Y-25954819D02*
X46857143Y-24954819D01*
X46857143Y-24954819D02*
X46761905Y-25097676D01*
X46761905Y-25097676D02*
X46666667Y-25192914D01*
X46666667Y-25192914D02*
X46571429Y-25240533D01*
X5428571Y-35002438D02*
X5333333Y-34954819D01*
X5333333Y-34954819D02*
X5190476Y-34954819D01*
X5190476Y-34954819D02*
X5047619Y-35002438D01*
X5047619Y-35002438D02*
X4952381Y-35097676D01*
X4952381Y-35097676D02*
X4904762Y-35192914D01*
X4904762Y-35192914D02*
X4857143Y-35383390D01*
X4857143Y-35383390D02*
X4857143Y-35526247D01*
X4857143Y-35526247D02*
X4904762Y-35716723D01*
X4904762Y-35716723D02*
X4952381Y-35811961D01*
X4952381Y-35811961D02*
X5047619Y-35907200D01*
X5047619Y-35907200D02*
X5190476Y-35954819D01*
X5190476Y-35954819D02*
X5285714Y-35954819D01*
X5285714Y-35954819D02*
X5428571Y-35907200D01*
X5428571Y-35907200D02*
X5476190Y-35859580D01*
X5476190Y-35859580D02*
X5476190Y-35526247D01*
X5476190Y-35526247D02*
X5285714Y-35526247D01*
X5904762Y-35954819D02*
X5904762Y-34954819D01*
X5904762Y-34954819D02*
X6476190Y-35954819D01*
X6476190Y-35954819D02*
X6476190Y-34954819D01*
X6952381Y-35954819D02*
X6952381Y-34954819D01*
X6952381Y-34954819D02*
X7190476Y-34954819D01*
X7190476Y-34954819D02*
X7333333Y-35002438D01*
X7333333Y-35002438D02*
X7428571Y-35097676D01*
X7428571Y-35097676D02*
X7476190Y-35192914D01*
X7476190Y-35192914D02*
X7523809Y-35383390D01*
X7523809Y-35383390D02*
X7523809Y-35526247D01*
X7523809Y-35526247D02*
X7476190Y-35716723D01*
X7476190Y-35716723D02*
X7428571Y-35811961D01*
X7428571Y-35811961D02*
X7333333Y-35907200D01*
X7333333Y-35907200D02*
X7190476Y-35954819D01*
X7190476Y-35954819D02*
X6952381Y-35954819D01*
X7714286Y-36050057D02*
X8476190Y-36050057D01*
X8904762Y-34954819D02*
X9000000Y-34954819D01*
X9000000Y-34954819D02*
X9095238Y-35002438D01*
X9095238Y-35002438D02*
X9142857Y-35050057D01*
X9142857Y-35050057D02*
X9190476Y-35145295D01*
X9190476Y-35145295D02*
X9238095Y-35335771D01*
X9238095Y-35335771D02*
X9238095Y-35573866D01*
X9238095Y-35573866D02*
X9190476Y-35764342D01*
X9190476Y-35764342D02*
X9142857Y-35859580D01*
X9142857Y-35859580D02*
X9095238Y-35907200D01*
X9095238Y-35907200D02*
X9000000Y-35954819D01*
X9000000Y-35954819D02*
X8904762Y-35954819D01*
X8904762Y-35954819D02*
X8809524Y-35907200D01*
X8809524Y-35907200D02*
X8761905Y-35859580D01*
X8761905Y-35859580D02*
X8714286Y-35764342D01*
X8714286Y-35764342D02*
X8666667Y-35573866D01*
X8666667Y-35573866D02*
X8666667Y-35335771D01*
X8666667Y-35335771D02*
X8714286Y-35145295D01*
X8714286Y-35145295D02*
X8761905Y-35050057D01*
X8761905Y-35050057D02*
X8809524Y-35002438D01*
X8809524Y-35002438D02*
X8904762Y-34954819D01*
X10190476Y-35954819D02*
X9619048Y-35954819D01*
X9904762Y-35954819D02*
X9904762Y-34954819D01*
X9904762Y-34954819D02*
X9809524Y-35097676D01*
X9809524Y-35097676D02*
X9714286Y-35192914D01*
X9714286Y-35192914D02*
X9619048Y-35240533D01*
X10571429Y-35050057D02*
X10619048Y-35002438D01*
X10619048Y-35002438D02*
X10714286Y-34954819D01*
X10714286Y-34954819D02*
X10952381Y-34954819D01*
X10952381Y-34954819D02*
X11047619Y-35002438D01*
X11047619Y-35002438D02*
X11095238Y-35050057D01*
X11095238Y-35050057D02*
X11142857Y-35145295D01*
X11142857Y-35145295D02*
X11142857Y-35240533D01*
X11142857Y-35240533D02*
X11095238Y-35383390D01*
X11095238Y-35383390D02*
X10523810Y-35954819D01*
X10523810Y-35954819D02*
X11142857Y-35954819D01*
X2714286Y545180D02*
X2714286Y1545180D01*
X2714286Y1068990D02*
X3285714Y1068990D01*
X3285714Y545180D02*
X3285714Y1545180D01*
X56714286Y545180D02*
X56714286Y1545180D01*
X56714286Y1068990D02*
X57285714Y1068990D01*
X57285714Y545180D02*
X57285714Y1545180D01*
X2714286Y-53454819D02*
X2714286Y-52454819D01*
X2714286Y-52931009D02*
X3285714Y-52931009D01*
X3285714Y-53454819D02*
X3285714Y-52454819D01*
X56714286Y-53454819D02*
X56714286Y-52454819D01*
X56714286Y-52931009D02*
X57285714Y-52931009D01*
X57285714Y-53454819D02*
X57285714Y-52454819D01*
%LPC*%
D11*
%TO.C,V_000*%
X8000000Y-8000000D03*
D12*
X8000000Y-10540000D03*
%TD*%
D11*
%TO.C,S_001*%
X20000000Y-8000000D03*
D12*
X20000000Y-10540000D03*
%TD*%
D13*
%TO.C,R_002*%
X30900000Y-8000000D03*
X33100000Y-8000000D03*
%TD*%
%TO.C,C_003*%
X42900000Y-8000000D03*
X45100000Y-8000000D03*
%TD*%
D11*
%TO.C,S_004*%
X8000000Y-18000000D03*
D12*
X8000000Y-20540000D03*
%TD*%
D13*
%TO.C,L_005*%
X18900000Y-18000000D03*
X21100000Y-18000000D03*
%TD*%
%TO.C,L_006*%
X30900000Y-18000000D03*
X33100000Y-18000000D03*
%TD*%
%TO.C,L_007*%
X42900000Y-18000000D03*
X45100000Y-18000000D03*
%TD*%
%TO.C,L_008*%
X6900000Y-28000000D03*
X9100000Y-28000000D03*
%TD*%
%TO.C,R_009*%
X18900000Y-28000000D03*
X21100000Y-28000000D03*
%TD*%
D11*
%TO.C,GND_010*%
X32000000Y-28000000D03*
D12*
X32000000Y-30540000D03*
%TD*%
D11*
%TO.C,GND_011*%
X44000000Y-28000000D03*
D12*
X44000000Y-30540000D03*
%TD*%
D11*
%TO.C,GND_012*%
X8000000Y-38000000D03*
D12*
X8000000Y-40540000D03*
%TD*%
D14*
%TO.C,H*%
X3000000Y-3000000D03*
%TD*%
%TO.C,H*%
X57000000Y-3000000D03*
%TD*%
%TO.C,H*%
X3000000Y-57000000D03*
%TD*%
%TO.C,H*%
X57000000Y-57000000D03*
%TD*%
%LPD*%
M02*
