%TF.GenerationSoftware,KiCad,Pcbnew,8.0.6*%
%TF.CreationDate,2026-04-20T05:39:29+02:00*%
%TF.ProjectId,board,626f6172-642e-46b6-9963-61645f706362,rev?*%
%TF.SameCoordinates,Original*%
%TF.FileFunction,AssemblyDrawing,Top*%
%FSLAX46Y46*%
G04 Gerber Fmt 4.6, Leading zero omitted, Abs format (unit mm)*
G04 Created by KiCad (PCBNEW 8.0.6) date 2026-04-20 05:39:29*
%MOMM*%
%LPD*%
G01*
G04 APERTURE LIST*
%ADD10C,0.150000*%
G04 APERTURE END LIST*
D10*
X6380952Y-9954819D02*
X5904762Y-9954819D01*
X5904762Y-9954819D02*
X5857143Y-10431009D01*
X5857143Y-10431009D02*
X5904762Y-10383390D01*
X5904762Y-10383390D02*
X6000000Y-10335771D01*
X6000000Y-10335771D02*
X6238095Y-10335771D01*
X6238095Y-10335771D02*
X6333333Y-10383390D01*
X6333333Y-10383390D02*
X6380952Y-10431009D01*
X6380952Y-10431009D02*
X6428571Y-10526247D01*
X6428571Y-10526247D02*
X6428571Y-10764342D01*
X6428571Y-10764342D02*
X6380952Y-10859580D01*
X6380952Y-10859580D02*
X6333333Y-10907200D01*
X6333333Y-10907200D02*
X6238095Y-10954819D01*
X6238095Y-10954819D02*
X6000000Y-10954819D01*
X6000000Y-10954819D02*
X5904762Y-10907200D01*
X5904762Y-10907200D02*
X5857143Y-10859580D01*
X7047619Y-9954819D02*
X7142857Y-9954819D01*
X7142857Y-9954819D02*
X7238095Y-10002438D01*
X7238095Y-10002438D02*
X7285714Y-10050057D01*
X7285714Y-10050057D02*
X7333333Y-10145295D01*
X7333333Y-10145295D02*
X7380952Y-10335771D01*
X7380952Y-10335771D02*
X7380952Y-10573866D01*
X7380952Y-10573866D02*
X7333333Y-10764342D01*
X7333333Y-10764342D02*
X7285714Y-10859580D01*
X7285714Y-10859580D02*
X7238095Y-10907200D01*
X7238095Y-10907200D02*
X7142857Y-10954819D01*
X7142857Y-10954819D02*
X7047619Y-10954819D01*
X7047619Y-10954819D02*
X6952381Y-10907200D01*
X6952381Y-10907200D02*
X6904762Y-10859580D01*
X6904762Y-10859580D02*
X6857143Y-10764342D01*
X6857143Y-10764342D02*
X6809524Y-10573866D01*
X6809524Y-10573866D02*
X6809524Y-10335771D01*
X6809524Y-10335771D02*
X6857143Y-10145295D01*
X6857143Y-10145295D02*
X6904762Y-10050057D01*
X6904762Y-10050057D02*
X6952381Y-10002438D01*
X6952381Y-10002438D02*
X7047619Y-9954819D01*
X8000000Y-9954819D02*
X8095238Y-9954819D01*
X8095238Y-9954819D02*
X8190476Y-10002438D01*
X8190476Y-10002438D02*
X8238095Y-10050057D01*
X8238095Y-10050057D02*
X8285714Y-10145295D01*
X8285714Y-10145295D02*
X8333333Y-10335771D01*
X8333333Y-10335771D02*
X8333333Y-10573866D01*
X8333333Y-10573866D02*
X8285714Y-10764342D01*
X8285714Y-10764342D02*
X8238095Y-10859580D01*
X8238095Y-10859580D02*
X8190476Y-10907200D01*
X8190476Y-10907200D02*
X8095238Y-10954819D01*
X8095238Y-10954819D02*
X8000000Y-10954819D01*
X8000000Y-10954819D02*
X7904762Y-10907200D01*
X7904762Y-10907200D02*
X7857143Y-10859580D01*
X7857143Y-10859580D02*
X7809524Y-10764342D01*
X7809524Y-10764342D02*
X7761905Y-10573866D01*
X7761905Y-10573866D02*
X7761905Y-10335771D01*
X7761905Y-10335771D02*
X7809524Y-10145295D01*
X7809524Y-10145295D02*
X7857143Y-10050057D01*
X7857143Y-10050057D02*
X7904762Y-10002438D01*
X7904762Y-10002438D02*
X8000000Y-9954819D01*
X8952381Y-9954819D02*
X9047619Y-9954819D01*
X9047619Y-9954819D02*
X9142857Y-10002438D01*
X9142857Y-10002438D02*
X9190476Y-10050057D01*
X9190476Y-10050057D02*
X9238095Y-10145295D01*
X9238095Y-10145295D02*
X9285714Y-10335771D01*
X9285714Y-10335771D02*
X9285714Y-10573866D01*
X9285714Y-10573866D02*
X9238095Y-10764342D01*
X9238095Y-10764342D02*
X9190476Y-10859580D01*
X9190476Y-10859580D02*
X9142857Y-10907200D01*
X9142857Y-10907200D02*
X9047619Y-10954819D01*
X9047619Y-10954819D02*
X8952381Y-10954819D01*
X8952381Y-10954819D02*
X8857143Y-10907200D01*
X8857143Y-10907200D02*
X8809524Y-10859580D01*
X8809524Y-10859580D02*
X8761905Y-10764342D01*
X8761905Y-10764342D02*
X8714286Y-10573866D01*
X8714286Y-10573866D02*
X8714286Y-10335771D01*
X8714286Y-10335771D02*
X8761905Y-10145295D01*
X8761905Y-10145295D02*
X8809524Y-10050057D01*
X8809524Y-10050057D02*
X8857143Y-10002438D01*
X8857143Y-10002438D02*
X8952381Y-9954819D01*
X9571429Y-9954819D02*
X9904762Y-10954819D01*
X9904762Y-10954819D02*
X10238095Y-9954819D01*
X19714286Y-10907200D02*
X19857143Y-10954819D01*
X19857143Y-10954819D02*
X20095238Y-10954819D01*
X20095238Y-10954819D02*
X20190476Y-10907200D01*
X20190476Y-10907200D02*
X20238095Y-10859580D01*
X20238095Y-10859580D02*
X20285714Y-10764342D01*
X20285714Y-10764342D02*
X20285714Y-10669104D01*
X20285714Y-10669104D02*
X20238095Y-10573866D01*
X20238095Y-10573866D02*
X20190476Y-10526247D01*
X20190476Y-10526247D02*
X20095238Y-10478628D01*
X20095238Y-10478628D02*
X19904762Y-10431009D01*
X19904762Y-10431009D02*
X19809524Y-10383390D01*
X19809524Y-10383390D02*
X19761905Y-10335771D01*
X19761905Y-10335771D02*
X19714286Y-10240533D01*
X19714286Y-10240533D02*
X19714286Y-10145295D01*
X19714286Y-10145295D02*
X19761905Y-10050057D01*
X19761905Y-10050057D02*
X19809524Y-10002438D01*
X19809524Y-10002438D02*
X19904762Y-9954819D01*
X19904762Y-9954819D02*
X20142857Y-9954819D01*
X20142857Y-9954819D02*
X20285714Y-10002438D01*
X30380952Y-10954819D02*
X29809524Y-10954819D01*
X30095238Y-10954819D02*
X30095238Y-9954819D01*
X30095238Y-9954819D02*
X30000000Y-10097676D01*
X30000000Y-10097676D02*
X29904762Y-10192914D01*
X29904762Y-10192914D02*
X29809524Y-10240533D01*
X31000000Y-9954819D02*
X31095238Y-9954819D01*
X31095238Y-9954819D02*
X31190476Y-10002438D01*
X31190476Y-10002438D02*
X31238095Y-10050057D01*
X31238095Y-10050057D02*
X31285714Y-10145295D01*
X31285714Y-10145295D02*
X31333333Y-10335771D01*
X31333333Y-10335771D02*
X31333333Y-10573866D01*
X31333333Y-10573866D02*
X31285714Y-10764342D01*
X31285714Y-10764342D02*
X31238095Y-10859580D01*
X31238095Y-10859580D02*
X31190476Y-10907200D01*
X31190476Y-10907200D02*
X31095238Y-10954819D01*
X31095238Y-10954819D02*
X31000000Y-10954819D01*
X31000000Y-10954819D02*
X30904762Y-10907200D01*
X30904762Y-10907200D02*
X30857143Y-10859580D01*
X30857143Y-10859580D02*
X30809524Y-10764342D01*
X30809524Y-10764342D02*
X30761905Y-10573866D01*
X30761905Y-10573866D02*
X30761905Y-10335771D01*
X30761905Y-10335771D02*
X30809524Y-10145295D01*
X30809524Y-10145295D02*
X30857143Y-10050057D01*
X30857143Y-10050057D02*
X30904762Y-10002438D01*
X30904762Y-10002438D02*
X31000000Y-9954819D01*
X31952381Y-9954819D02*
X32047619Y-9954819D01*
X32047619Y-9954819D02*
X32142857Y-10002438D01*
X32142857Y-10002438D02*
X32190476Y-10050057D01*
X32190476Y-10050057D02*
X32238095Y-10145295D01*
X32238095Y-10145295D02*
X32285714Y-10335771D01*
X32285714Y-10335771D02*
X32285714Y-10573866D01*
X32285714Y-10573866D02*
X32238095Y-10764342D01*
X32238095Y-10764342D02*
X32190476Y-10859580D01*
X32190476Y-10859580D02*
X32142857Y-10907200D01*
X32142857Y-10907200D02*
X32047619Y-10954819D01*
X32047619Y-10954819D02*
X31952381Y-10954819D01*
X31952381Y-10954819D02*
X31857143Y-10907200D01*
X31857143Y-10907200D02*
X31809524Y-10859580D01*
X31809524Y-10859580D02*
X31761905Y-10764342D01*
X31761905Y-10764342D02*
X31714286Y-10573866D01*
X31714286Y-10573866D02*
X31714286Y-10335771D01*
X31714286Y-10335771D02*
X31761905Y-10145295D01*
X31761905Y-10145295D02*
X31809524Y-10050057D01*
X31809524Y-10050057D02*
X31857143Y-10002438D01*
X31857143Y-10002438D02*
X31952381Y-9954819D01*
X32904762Y-9954819D02*
X33000000Y-9954819D01*
X33000000Y-9954819D02*
X33095238Y-10002438D01*
X33095238Y-10002438D02*
X33142857Y-10050057D01*
X33142857Y-10050057D02*
X33190476Y-10145295D01*
X33190476Y-10145295D02*
X33238095Y-10335771D01*
X33238095Y-10335771D02*
X33238095Y-10573866D01*
X33238095Y-10573866D02*
X33190476Y-10764342D01*
X33190476Y-10764342D02*
X33142857Y-10859580D01*
X33142857Y-10859580D02*
X33095238Y-10907200D01*
X33095238Y-10907200D02*
X33000000Y-10954819D01*
X33000000Y-10954819D02*
X32904762Y-10954819D01*
X32904762Y-10954819D02*
X32809524Y-10907200D01*
X32809524Y-10907200D02*
X32761905Y-10859580D01*
X32761905Y-10859580D02*
X32714286Y-10764342D01*
X32714286Y-10764342D02*
X32666667Y-10573866D01*
X32666667Y-10573866D02*
X32666667Y-10335771D01*
X32666667Y-10335771D02*
X32714286Y-10145295D01*
X32714286Y-10145295D02*
X32761905Y-10050057D01*
X32761905Y-10050057D02*
X32809524Y-10002438D01*
X32809524Y-10002438D02*
X32904762Y-9954819D01*
X33857143Y-9954819D02*
X33952381Y-9954819D01*
X33952381Y-9954819D02*
X34047619Y-10002438D01*
X34047619Y-10002438D02*
X34095238Y-10050057D01*
X34095238Y-10050057D02*
X34142857Y-10145295D01*
X34142857Y-10145295D02*
X34190476Y-10335771D01*
X34190476Y-10335771D02*
X34190476Y-10573866D01*
X34190476Y-10573866D02*
X34142857Y-10764342D01*
X34142857Y-10764342D02*
X34095238Y-10859580D01*
X34095238Y-10859580D02*
X34047619Y-10907200D01*
X34047619Y-10907200D02*
X33952381Y-10954819D01*
X33952381Y-10954819D02*
X33857143Y-10954819D01*
X33857143Y-10954819D02*
X33761905Y-10907200D01*
X33761905Y-10907200D02*
X33714286Y-10859580D01*
X33714286Y-10859580D02*
X33666667Y-10764342D01*
X33666667Y-10764342D02*
X33619048Y-10573866D01*
X33619048Y-10573866D02*
X33619048Y-10335771D01*
X33619048Y-10335771D02*
X33666667Y-10145295D01*
X33666667Y-10145295D02*
X33714286Y-10050057D01*
X33714286Y-10050057D02*
X33761905Y-10002438D01*
X33761905Y-10002438D02*
X33857143Y-9954819D01*
X42190476Y-9954819D02*
X42000000Y-9954819D01*
X42000000Y-9954819D02*
X41904762Y-10002438D01*
X41904762Y-10002438D02*
X41857143Y-10050057D01*
X41857143Y-10050057D02*
X41761905Y-10192914D01*
X41761905Y-10192914D02*
X41714286Y-10383390D01*
X41714286Y-10383390D02*
X41714286Y-10764342D01*
X41714286Y-10764342D02*
X41761905Y-10859580D01*
X41761905Y-10859580D02*
X41809524Y-10907200D01*
X41809524Y-10907200D02*
X41904762Y-10954819D01*
X41904762Y-10954819D02*
X42095238Y-10954819D01*
X42095238Y-10954819D02*
X42190476Y-10907200D01*
X42190476Y-10907200D02*
X42238095Y-10859580D01*
X42238095Y-10859580D02*
X42285714Y-10764342D01*
X42285714Y-10764342D02*
X42285714Y-10526247D01*
X42285714Y-10526247D02*
X42238095Y-10431009D01*
X42238095Y-10431009D02*
X42190476Y-10383390D01*
X42190476Y-10383390D02*
X42095238Y-10335771D01*
X42095238Y-10335771D02*
X41904762Y-10335771D01*
X41904762Y-10335771D02*
X41809524Y-10383390D01*
X41809524Y-10383390D02*
X41761905Y-10431009D01*
X41761905Y-10431009D02*
X41714286Y-10526247D01*
X43095238Y-10907200D02*
X43000000Y-10954819D01*
X43000000Y-10954819D02*
X42809524Y-10954819D01*
X42809524Y-10954819D02*
X42714286Y-10907200D01*
X42714286Y-10907200D02*
X42666667Y-10811961D01*
X42666667Y-10811961D02*
X42666667Y-10431009D01*
X42666667Y-10431009D02*
X42714286Y-10335771D01*
X42714286Y-10335771D02*
X42809524Y-10288152D01*
X42809524Y-10288152D02*
X43000000Y-10288152D01*
X43000000Y-10288152D02*
X43095238Y-10335771D01*
X43095238Y-10335771D02*
X43142857Y-10431009D01*
X43142857Y-10431009D02*
X43142857Y-10526247D01*
X43142857Y-10526247D02*
X42666667Y-10621485D01*
X43571429Y-10573866D02*
X44333334Y-10573866D01*
X45000000Y-9954819D02*
X45095238Y-9954819D01*
X45095238Y-9954819D02*
X45190476Y-10002438D01*
X45190476Y-10002438D02*
X45238095Y-10050057D01*
X45238095Y-10050057D02*
X45285714Y-10145295D01*
X45285714Y-10145295D02*
X45333333Y-10335771D01*
X45333333Y-10335771D02*
X45333333Y-10573866D01*
X45333333Y-10573866D02*
X45285714Y-10764342D01*
X45285714Y-10764342D02*
X45238095Y-10859580D01*
X45238095Y-10859580D02*
X45190476Y-10907200D01*
X45190476Y-10907200D02*
X45095238Y-10954819D01*
X45095238Y-10954819D02*
X45000000Y-10954819D01*
X45000000Y-10954819D02*
X44904762Y-10907200D01*
X44904762Y-10907200D02*
X44857143Y-10859580D01*
X44857143Y-10859580D02*
X44809524Y-10764342D01*
X44809524Y-10764342D02*
X44761905Y-10573866D01*
X44761905Y-10573866D02*
X44761905Y-10335771D01*
X44761905Y-10335771D02*
X44809524Y-10145295D01*
X44809524Y-10145295D02*
X44857143Y-10050057D01*
X44857143Y-10050057D02*
X44904762Y-10002438D01*
X44904762Y-10002438D02*
X45000000Y-9954819D01*
X45666667Y-9954819D02*
X46333333Y-9954819D01*
X46333333Y-9954819D02*
X45904762Y-10954819D01*
X7714286Y-20907200D02*
X7857143Y-20954819D01*
X7857143Y-20954819D02*
X8095238Y-20954819D01*
X8095238Y-20954819D02*
X8190476Y-20907200D01*
X8190476Y-20907200D02*
X8238095Y-20859580D01*
X8238095Y-20859580D02*
X8285714Y-20764342D01*
X8285714Y-20764342D02*
X8285714Y-20669104D01*
X8285714Y-20669104D02*
X8238095Y-20573866D01*
X8238095Y-20573866D02*
X8190476Y-20526247D01*
X8190476Y-20526247D02*
X8095238Y-20478628D01*
X8095238Y-20478628D02*
X7904762Y-20431009D01*
X7904762Y-20431009D02*
X7809524Y-20383390D01*
X7809524Y-20383390D02*
X7761905Y-20335771D01*
X7761905Y-20335771D02*
X7714286Y-20240533D01*
X7714286Y-20240533D02*
X7714286Y-20145295D01*
X7714286Y-20145295D02*
X7761905Y-20050057D01*
X7761905Y-20050057D02*
X7809524Y-20002438D01*
X7809524Y-20002438D02*
X7904762Y-19954819D01*
X7904762Y-19954819D02*
X8142857Y-19954819D01*
X8142857Y-19954819D02*
X8285714Y-20002438D01*
X17000000Y-20050057D02*
X17047619Y-20002438D01*
X17047619Y-20002438D02*
X17142857Y-19954819D01*
X17142857Y-19954819D02*
X17380952Y-19954819D01*
X17380952Y-19954819D02*
X17476190Y-20002438D01*
X17476190Y-20002438D02*
X17523809Y-20050057D01*
X17523809Y-20050057D02*
X17571428Y-20145295D01*
X17571428Y-20145295D02*
X17571428Y-20240533D01*
X17571428Y-20240533D02*
X17523809Y-20383390D01*
X17523809Y-20383390D02*
X16952381Y-20954819D01*
X16952381Y-20954819D02*
X17571428Y-20954819D01*
X18000000Y-20859580D02*
X18047619Y-20907200D01*
X18047619Y-20907200D02*
X18000000Y-20954819D01*
X18000000Y-20954819D02*
X17952381Y-20907200D01*
X17952381Y-20907200D02*
X18000000Y-20859580D01*
X18000000Y-20859580D02*
X18000000Y-20954819D01*
X18952380Y-19954819D02*
X18476190Y-19954819D01*
X18476190Y-19954819D02*
X18428571Y-20431009D01*
X18428571Y-20431009D02*
X18476190Y-20383390D01*
X18476190Y-20383390D02*
X18571428Y-20335771D01*
X18571428Y-20335771D02*
X18809523Y-20335771D01*
X18809523Y-20335771D02*
X18904761Y-20383390D01*
X18904761Y-20383390D02*
X18952380Y-20431009D01*
X18952380Y-20431009D02*
X18999999Y-20526247D01*
X18999999Y-20526247D02*
X18999999Y-20764342D01*
X18999999Y-20764342D02*
X18952380Y-20859580D01*
X18952380Y-20859580D02*
X18904761Y-20907200D01*
X18904761Y-20907200D02*
X18809523Y-20954819D01*
X18809523Y-20954819D02*
X18571428Y-20954819D01*
X18571428Y-20954819D02*
X18476190Y-20907200D01*
X18476190Y-20907200D02*
X18428571Y-20859580D01*
X19809523Y-20907200D02*
X19714285Y-20954819D01*
X19714285Y-20954819D02*
X19523809Y-20954819D01*
X19523809Y-20954819D02*
X19428571Y-20907200D01*
X19428571Y-20907200D02*
X19380952Y-20811961D01*
X19380952Y-20811961D02*
X19380952Y-20431009D01*
X19380952Y-20431009D02*
X19428571Y-20335771D01*
X19428571Y-20335771D02*
X19523809Y-20288152D01*
X19523809Y-20288152D02*
X19714285Y-20288152D01*
X19714285Y-20288152D02*
X19809523Y-20335771D01*
X19809523Y-20335771D02*
X19857142Y-20431009D01*
X19857142Y-20431009D02*
X19857142Y-20526247D01*
X19857142Y-20526247D02*
X19380952Y-20621485D01*
X20285714Y-20573866D02*
X21047619Y-20573866D01*
X21714285Y-19954819D02*
X21809523Y-19954819D01*
X21809523Y-19954819D02*
X21904761Y-20002438D01*
X21904761Y-20002438D02*
X21952380Y-20050057D01*
X21952380Y-20050057D02*
X21999999Y-20145295D01*
X21999999Y-20145295D02*
X22047618Y-20335771D01*
X22047618Y-20335771D02*
X22047618Y-20573866D01*
X22047618Y-20573866D02*
X21999999Y-20764342D01*
X21999999Y-20764342D02*
X21952380Y-20859580D01*
X21952380Y-20859580D02*
X21904761Y-20907200D01*
X21904761Y-20907200D02*
X21809523Y-20954819D01*
X21809523Y-20954819D02*
X21714285Y-20954819D01*
X21714285Y-20954819D02*
X21619047Y-20907200D01*
X21619047Y-20907200D02*
X21571428Y-20859580D01*
X21571428Y-20859580D02*
X21523809Y-20764342D01*
X21523809Y-20764342D02*
X21476190Y-20573866D01*
X21476190Y-20573866D02*
X21476190Y-20335771D01*
X21476190Y-20335771D02*
X21523809Y-20145295D01*
X21523809Y-20145295D02*
X21571428Y-20050057D01*
X21571428Y-20050057D02*
X21619047Y-20002438D01*
X21619047Y-20002438D02*
X21714285Y-19954819D01*
X22380952Y-19954819D02*
X23047618Y-19954819D01*
X23047618Y-19954819D02*
X22619047Y-20954819D01*
X29000000Y-20050057D02*
X29047619Y-20002438D01*
X29047619Y-20002438D02*
X29142857Y-19954819D01*
X29142857Y-19954819D02*
X29380952Y-19954819D01*
X29380952Y-19954819D02*
X29476190Y-20002438D01*
X29476190Y-20002438D02*
X29523809Y-20050057D01*
X29523809Y-20050057D02*
X29571428Y-20145295D01*
X29571428Y-20145295D02*
X29571428Y-20240533D01*
X29571428Y-20240533D02*
X29523809Y-20383390D01*
X29523809Y-20383390D02*
X28952381Y-20954819D01*
X28952381Y-20954819D02*
X29571428Y-20954819D01*
X30000000Y-20859580D02*
X30047619Y-20907200D01*
X30047619Y-20907200D02*
X30000000Y-20954819D01*
X30000000Y-20954819D02*
X29952381Y-20907200D01*
X29952381Y-20907200D02*
X30000000Y-20859580D01*
X30000000Y-20859580D02*
X30000000Y-20954819D01*
X30952380Y-19954819D02*
X30476190Y-19954819D01*
X30476190Y-19954819D02*
X30428571Y-20431009D01*
X30428571Y-20431009D02*
X30476190Y-20383390D01*
X30476190Y-20383390D02*
X30571428Y-20335771D01*
X30571428Y-20335771D02*
X30809523Y-20335771D01*
X30809523Y-20335771D02*
X30904761Y-20383390D01*
X30904761Y-20383390D02*
X30952380Y-20431009D01*
X30952380Y-20431009D02*
X30999999Y-20526247D01*
X30999999Y-20526247D02*
X30999999Y-20764342D01*
X30999999Y-20764342D02*
X30952380Y-20859580D01*
X30952380Y-20859580D02*
X30904761Y-20907200D01*
X30904761Y-20907200D02*
X30809523Y-20954819D01*
X30809523Y-20954819D02*
X30571428Y-20954819D01*
X30571428Y-20954819D02*
X30476190Y-20907200D01*
X30476190Y-20907200D02*
X30428571Y-20859580D01*
X31809523Y-20907200D02*
X31714285Y-20954819D01*
X31714285Y-20954819D02*
X31523809Y-20954819D01*
X31523809Y-20954819D02*
X31428571Y-20907200D01*
X31428571Y-20907200D02*
X31380952Y-20811961D01*
X31380952Y-20811961D02*
X31380952Y-20431009D01*
X31380952Y-20431009D02*
X31428571Y-20335771D01*
X31428571Y-20335771D02*
X31523809Y-20288152D01*
X31523809Y-20288152D02*
X31714285Y-20288152D01*
X31714285Y-20288152D02*
X31809523Y-20335771D01*
X31809523Y-20335771D02*
X31857142Y-20431009D01*
X31857142Y-20431009D02*
X31857142Y-20526247D01*
X31857142Y-20526247D02*
X31380952Y-20621485D01*
X32285714Y-20573866D02*
X33047619Y-20573866D01*
X33714285Y-19954819D02*
X33809523Y-19954819D01*
X33809523Y-19954819D02*
X33904761Y-20002438D01*
X33904761Y-20002438D02*
X33952380Y-20050057D01*
X33952380Y-20050057D02*
X33999999Y-20145295D01*
X33999999Y-20145295D02*
X34047618Y-20335771D01*
X34047618Y-20335771D02*
X34047618Y-20573866D01*
X34047618Y-20573866D02*
X33999999Y-20764342D01*
X33999999Y-20764342D02*
X33952380Y-20859580D01*
X33952380Y-20859580D02*
X33904761Y-20907200D01*
X33904761Y-20907200D02*
X33809523Y-20954819D01*
X33809523Y-20954819D02*
X33714285Y-20954819D01*
X33714285Y-20954819D02*
X33619047Y-20907200D01*
X33619047Y-20907200D02*
X33571428Y-20859580D01*
X33571428Y-20859580D02*
X33523809Y-20764342D01*
X33523809Y-20764342D02*
X33476190Y-20573866D01*
X33476190Y-20573866D02*
X33476190Y-20335771D01*
X33476190Y-20335771D02*
X33523809Y-20145295D01*
X33523809Y-20145295D02*
X33571428Y-20050057D01*
X33571428Y-20050057D02*
X33619047Y-20002438D01*
X33619047Y-20002438D02*
X33714285Y-19954819D01*
X34380952Y-19954819D02*
X35047618Y-19954819D01*
X35047618Y-19954819D02*
X34619047Y-20954819D01*
X41000000Y-20050057D02*
X41047619Y-20002438D01*
X41047619Y-20002438D02*
X41142857Y-19954819D01*
X41142857Y-19954819D02*
X41380952Y-19954819D01*
X41380952Y-19954819D02*
X41476190Y-20002438D01*
X41476190Y-20002438D02*
X41523809Y-20050057D01*
X41523809Y-20050057D02*
X41571428Y-20145295D01*
X41571428Y-20145295D02*
X41571428Y-20240533D01*
X41571428Y-20240533D02*
X41523809Y-20383390D01*
X41523809Y-20383390D02*
X40952381Y-20954819D01*
X40952381Y-20954819D02*
X41571428Y-20954819D01*
X42000000Y-20859580D02*
X42047619Y-20907200D01*
X42047619Y-20907200D02*
X42000000Y-20954819D01*
X42000000Y-20954819D02*
X41952381Y-20907200D01*
X41952381Y-20907200D02*
X42000000Y-20859580D01*
X42000000Y-20859580D02*
X42000000Y-20954819D01*
X42952380Y-19954819D02*
X42476190Y-19954819D01*
X42476190Y-19954819D02*
X42428571Y-20431009D01*
X42428571Y-20431009D02*
X42476190Y-20383390D01*
X42476190Y-20383390D02*
X42571428Y-20335771D01*
X42571428Y-20335771D02*
X42809523Y-20335771D01*
X42809523Y-20335771D02*
X42904761Y-20383390D01*
X42904761Y-20383390D02*
X42952380Y-20431009D01*
X42952380Y-20431009D02*
X42999999Y-20526247D01*
X42999999Y-20526247D02*
X42999999Y-20764342D01*
X42999999Y-20764342D02*
X42952380Y-20859580D01*
X42952380Y-20859580D02*
X42904761Y-20907200D01*
X42904761Y-20907200D02*
X42809523Y-20954819D01*
X42809523Y-20954819D02*
X42571428Y-20954819D01*
X42571428Y-20954819D02*
X42476190Y-20907200D01*
X42476190Y-20907200D02*
X42428571Y-20859580D01*
X43809523Y-20907200D02*
X43714285Y-20954819D01*
X43714285Y-20954819D02*
X43523809Y-20954819D01*
X43523809Y-20954819D02*
X43428571Y-20907200D01*
X43428571Y-20907200D02*
X43380952Y-20811961D01*
X43380952Y-20811961D02*
X43380952Y-20431009D01*
X43380952Y-20431009D02*
X43428571Y-20335771D01*
X43428571Y-20335771D02*
X43523809Y-20288152D01*
X43523809Y-20288152D02*
X43714285Y-20288152D01*
X43714285Y-20288152D02*
X43809523Y-20335771D01*
X43809523Y-20335771D02*
X43857142Y-20431009D01*
X43857142Y-20431009D02*
X43857142Y-20526247D01*
X43857142Y-20526247D02*
X43380952Y-20621485D01*
X44285714Y-20573866D02*
X45047619Y-20573866D01*
X45714285Y-19954819D02*
X45809523Y-19954819D01*
X45809523Y-19954819D02*
X45904761Y-20002438D01*
X45904761Y-20002438D02*
X45952380Y-20050057D01*
X45952380Y-20050057D02*
X45999999Y-20145295D01*
X45999999Y-20145295D02*
X46047618Y-20335771D01*
X46047618Y-20335771D02*
X46047618Y-20573866D01*
X46047618Y-20573866D02*
X45999999Y-20764342D01*
X45999999Y-20764342D02*
X45952380Y-20859580D01*
X45952380Y-20859580D02*
X45904761Y-20907200D01*
X45904761Y-20907200D02*
X45809523Y-20954819D01*
X45809523Y-20954819D02*
X45714285Y-20954819D01*
X45714285Y-20954819D02*
X45619047Y-20907200D01*
X45619047Y-20907200D02*
X45571428Y-20859580D01*
X45571428Y-20859580D02*
X45523809Y-20764342D01*
X45523809Y-20764342D02*
X45476190Y-20573866D01*
X45476190Y-20573866D02*
X45476190Y-20335771D01*
X45476190Y-20335771D02*
X45523809Y-20145295D01*
X45523809Y-20145295D02*
X45571428Y-20050057D01*
X45571428Y-20050057D02*
X45619047Y-20002438D01*
X45619047Y-20002438D02*
X45714285Y-19954819D01*
X46380952Y-19954819D02*
X47047618Y-19954819D01*
X47047618Y-19954819D02*
X46619047Y-20954819D01*
X5000000Y-30050057D02*
X5047619Y-30002438D01*
X5047619Y-30002438D02*
X5142857Y-29954819D01*
X5142857Y-29954819D02*
X5380952Y-29954819D01*
X5380952Y-29954819D02*
X5476190Y-30002438D01*
X5476190Y-30002438D02*
X5523809Y-30050057D01*
X5523809Y-30050057D02*
X5571428Y-30145295D01*
X5571428Y-30145295D02*
X5571428Y-30240533D01*
X5571428Y-30240533D02*
X5523809Y-30383390D01*
X5523809Y-30383390D02*
X4952381Y-30954819D01*
X4952381Y-30954819D02*
X5571428Y-30954819D01*
X6000000Y-30859580D02*
X6047619Y-30907200D01*
X6047619Y-30907200D02*
X6000000Y-30954819D01*
X6000000Y-30954819D02*
X5952381Y-30907200D01*
X5952381Y-30907200D02*
X6000000Y-30859580D01*
X6000000Y-30859580D02*
X6000000Y-30954819D01*
X6952380Y-29954819D02*
X6476190Y-29954819D01*
X6476190Y-29954819D02*
X6428571Y-30431009D01*
X6428571Y-30431009D02*
X6476190Y-30383390D01*
X6476190Y-30383390D02*
X6571428Y-30335771D01*
X6571428Y-30335771D02*
X6809523Y-30335771D01*
X6809523Y-30335771D02*
X6904761Y-30383390D01*
X6904761Y-30383390D02*
X6952380Y-30431009D01*
X6952380Y-30431009D02*
X6999999Y-30526247D01*
X6999999Y-30526247D02*
X6999999Y-30764342D01*
X6999999Y-30764342D02*
X6952380Y-30859580D01*
X6952380Y-30859580D02*
X6904761Y-30907200D01*
X6904761Y-30907200D02*
X6809523Y-30954819D01*
X6809523Y-30954819D02*
X6571428Y-30954819D01*
X6571428Y-30954819D02*
X6476190Y-30907200D01*
X6476190Y-30907200D02*
X6428571Y-30859580D01*
X7809523Y-30907200D02*
X7714285Y-30954819D01*
X7714285Y-30954819D02*
X7523809Y-30954819D01*
X7523809Y-30954819D02*
X7428571Y-30907200D01*
X7428571Y-30907200D02*
X7380952Y-30811961D01*
X7380952Y-30811961D02*
X7380952Y-30431009D01*
X7380952Y-30431009D02*
X7428571Y-30335771D01*
X7428571Y-30335771D02*
X7523809Y-30288152D01*
X7523809Y-30288152D02*
X7714285Y-30288152D01*
X7714285Y-30288152D02*
X7809523Y-30335771D01*
X7809523Y-30335771D02*
X7857142Y-30431009D01*
X7857142Y-30431009D02*
X7857142Y-30526247D01*
X7857142Y-30526247D02*
X7380952Y-30621485D01*
X8285714Y-30573866D02*
X9047619Y-30573866D01*
X9714285Y-29954819D02*
X9809523Y-29954819D01*
X9809523Y-29954819D02*
X9904761Y-30002438D01*
X9904761Y-30002438D02*
X9952380Y-30050057D01*
X9952380Y-30050057D02*
X9999999Y-30145295D01*
X9999999Y-30145295D02*
X10047618Y-30335771D01*
X10047618Y-30335771D02*
X10047618Y-30573866D01*
X10047618Y-30573866D02*
X9999999Y-30764342D01*
X9999999Y-30764342D02*
X9952380Y-30859580D01*
X9952380Y-30859580D02*
X9904761Y-30907200D01*
X9904761Y-30907200D02*
X9809523Y-30954819D01*
X9809523Y-30954819D02*
X9714285Y-30954819D01*
X9714285Y-30954819D02*
X9619047Y-30907200D01*
X9619047Y-30907200D02*
X9571428Y-30859580D01*
X9571428Y-30859580D02*
X9523809Y-30764342D01*
X9523809Y-30764342D02*
X9476190Y-30573866D01*
X9476190Y-30573866D02*
X9476190Y-30335771D01*
X9476190Y-30335771D02*
X9523809Y-30145295D01*
X9523809Y-30145295D02*
X9571428Y-30050057D01*
X9571428Y-30050057D02*
X9619047Y-30002438D01*
X9619047Y-30002438D02*
X9714285Y-29954819D01*
X10380952Y-29954819D02*
X11047618Y-29954819D01*
X11047618Y-29954819D02*
X10619047Y-30954819D01*
X19761904Y-29954819D02*
X19285714Y-29954819D01*
X19285714Y-29954819D02*
X19238095Y-30431009D01*
X19238095Y-30431009D02*
X19285714Y-30383390D01*
X19285714Y-30383390D02*
X19380952Y-30335771D01*
X19380952Y-30335771D02*
X19619047Y-30335771D01*
X19619047Y-30335771D02*
X19714285Y-30383390D01*
X19714285Y-30383390D02*
X19761904Y-30431009D01*
X19761904Y-30431009D02*
X19809523Y-30526247D01*
X19809523Y-30526247D02*
X19809523Y-30764342D01*
X19809523Y-30764342D02*
X19761904Y-30859580D01*
X19761904Y-30859580D02*
X19714285Y-30907200D01*
X19714285Y-30907200D02*
X19619047Y-30954819D01*
X19619047Y-30954819D02*
X19380952Y-30954819D01*
X19380952Y-30954819D02*
X19285714Y-30907200D01*
X19285714Y-30907200D02*
X19238095Y-30859580D01*
X20428571Y-29954819D02*
X20523809Y-29954819D01*
X20523809Y-29954819D02*
X20619047Y-30002438D01*
X20619047Y-30002438D02*
X20666666Y-30050057D01*
X20666666Y-30050057D02*
X20714285Y-30145295D01*
X20714285Y-30145295D02*
X20761904Y-30335771D01*
X20761904Y-30335771D02*
X20761904Y-30573866D01*
X20761904Y-30573866D02*
X20714285Y-30764342D01*
X20714285Y-30764342D02*
X20666666Y-30859580D01*
X20666666Y-30859580D02*
X20619047Y-30907200D01*
X20619047Y-30907200D02*
X20523809Y-30954819D01*
X20523809Y-30954819D02*
X20428571Y-30954819D01*
X20428571Y-30954819D02*
X20333333Y-30907200D01*
X20333333Y-30907200D02*
X20285714Y-30859580D01*
X20285714Y-30859580D02*
X20238095Y-30764342D01*
X20238095Y-30764342D02*
X20190476Y-30573866D01*
X20190476Y-30573866D02*
X20190476Y-30335771D01*
X20190476Y-30335771D02*
X20238095Y-30145295D01*
X20238095Y-30145295D02*
X20285714Y-30050057D01*
X20285714Y-30050057D02*
X20333333Y-30002438D01*
X20333333Y-30002438D02*
X20428571Y-29954819D01*
X31238095Y-30002438D02*
X31142857Y-29954819D01*
X31142857Y-29954819D02*
X31000000Y-29954819D01*
X31000000Y-29954819D02*
X30857143Y-30002438D01*
X30857143Y-30002438D02*
X30761905Y-30097676D01*
X30761905Y-30097676D02*
X30714286Y-30192914D01*
X30714286Y-30192914D02*
X30666667Y-30383390D01*
X30666667Y-30383390D02*
X30666667Y-30526247D01*
X30666667Y-30526247D02*
X30714286Y-30716723D01*
X30714286Y-30716723D02*
X30761905Y-30811961D01*
X30761905Y-30811961D02*
X30857143Y-30907200D01*
X30857143Y-30907200D02*
X31000000Y-30954819D01*
X31000000Y-30954819D02*
X31095238Y-30954819D01*
X31095238Y-30954819D02*
X31238095Y-30907200D01*
X31238095Y-30907200D02*
X31285714Y-30859580D01*
X31285714Y-30859580D02*
X31285714Y-30526247D01*
X31285714Y-30526247D02*
X31095238Y-30526247D01*
X31714286Y-30954819D02*
X31714286Y-29954819D01*
X31714286Y-29954819D02*
X32285714Y-30954819D01*
X32285714Y-30954819D02*
X32285714Y-29954819D01*
X32761905Y-30954819D02*
X32761905Y-29954819D01*
X32761905Y-29954819D02*
X33000000Y-29954819D01*
X33000000Y-29954819D02*
X33142857Y-30002438D01*
X33142857Y-30002438D02*
X33238095Y-30097676D01*
X33238095Y-30097676D02*
X33285714Y-30192914D01*
X33285714Y-30192914D02*
X33333333Y-30383390D01*
X33333333Y-30383390D02*
X33333333Y-30526247D01*
X33333333Y-30526247D02*
X33285714Y-30716723D01*
X33285714Y-30716723D02*
X33238095Y-30811961D01*
X33238095Y-30811961D02*
X33142857Y-30907200D01*
X33142857Y-30907200D02*
X33000000Y-30954819D01*
X33000000Y-30954819D02*
X32761905Y-30954819D01*
X43238095Y-30002438D02*
X43142857Y-29954819D01*
X43142857Y-29954819D02*
X43000000Y-29954819D01*
X43000000Y-29954819D02*
X42857143Y-30002438D01*
X42857143Y-30002438D02*
X42761905Y-30097676D01*
X42761905Y-30097676D02*
X42714286Y-30192914D01*
X42714286Y-30192914D02*
X42666667Y-30383390D01*
X42666667Y-30383390D02*
X42666667Y-30526247D01*
X42666667Y-30526247D02*
X42714286Y-30716723D01*
X42714286Y-30716723D02*
X42761905Y-30811961D01*
X42761905Y-30811961D02*
X42857143Y-30907200D01*
X42857143Y-30907200D02*
X43000000Y-30954819D01*
X43000000Y-30954819D02*
X43095238Y-30954819D01*
X43095238Y-30954819D02*
X43238095Y-30907200D01*
X43238095Y-30907200D02*
X43285714Y-30859580D01*
X43285714Y-30859580D02*
X43285714Y-30526247D01*
X43285714Y-30526247D02*
X43095238Y-30526247D01*
X43714286Y-30954819D02*
X43714286Y-29954819D01*
X43714286Y-29954819D02*
X44285714Y-30954819D01*
X44285714Y-30954819D02*
X44285714Y-29954819D01*
X44761905Y-30954819D02*
X44761905Y-29954819D01*
X44761905Y-29954819D02*
X45000000Y-29954819D01*
X45000000Y-29954819D02*
X45142857Y-30002438D01*
X45142857Y-30002438D02*
X45238095Y-30097676D01*
X45238095Y-30097676D02*
X45285714Y-30192914D01*
X45285714Y-30192914D02*
X45333333Y-30383390D01*
X45333333Y-30383390D02*
X45333333Y-30526247D01*
X45333333Y-30526247D02*
X45285714Y-30716723D01*
X45285714Y-30716723D02*
X45238095Y-30811961D01*
X45238095Y-30811961D02*
X45142857Y-30907200D01*
X45142857Y-30907200D02*
X45000000Y-30954819D01*
X45000000Y-30954819D02*
X44761905Y-30954819D01*
X7238095Y-40002438D02*
X7142857Y-39954819D01*
X7142857Y-39954819D02*
X7000000Y-39954819D01*
X7000000Y-39954819D02*
X6857143Y-40002438D01*
X6857143Y-40002438D02*
X6761905Y-40097676D01*
X6761905Y-40097676D02*
X6714286Y-40192914D01*
X6714286Y-40192914D02*
X6666667Y-40383390D01*
X6666667Y-40383390D02*
X6666667Y-40526247D01*
X6666667Y-40526247D02*
X6714286Y-40716723D01*
X6714286Y-40716723D02*
X6761905Y-40811961D01*
X6761905Y-40811961D02*
X6857143Y-40907200D01*
X6857143Y-40907200D02*
X7000000Y-40954819D01*
X7000000Y-40954819D02*
X7095238Y-40954819D01*
X7095238Y-40954819D02*
X7238095Y-40907200D01*
X7238095Y-40907200D02*
X7285714Y-40859580D01*
X7285714Y-40859580D02*
X7285714Y-40526247D01*
X7285714Y-40526247D02*
X7095238Y-40526247D01*
X7714286Y-40954819D02*
X7714286Y-39954819D01*
X7714286Y-39954819D02*
X8285714Y-40954819D01*
X8285714Y-40954819D02*
X8285714Y-39954819D01*
X8761905Y-40954819D02*
X8761905Y-39954819D01*
X8761905Y-39954819D02*
X9000000Y-39954819D01*
X9000000Y-39954819D02*
X9142857Y-40002438D01*
X9142857Y-40002438D02*
X9238095Y-40097676D01*
X9238095Y-40097676D02*
X9285714Y-40192914D01*
X9285714Y-40192914D02*
X9333333Y-40383390D01*
X9333333Y-40383390D02*
X9333333Y-40526247D01*
X9333333Y-40526247D02*
X9285714Y-40716723D01*
X9285714Y-40716723D02*
X9238095Y-40811961D01*
X9238095Y-40811961D02*
X9142857Y-40907200D01*
X9142857Y-40907200D02*
X9000000Y-40954819D01*
X9000000Y-40954819D02*
X8761905Y-40954819D01*
M02*
