%TF.GenerationSoftware,KiCad,Pcbnew,8.0.6*%
%TF.CreationDate,2026-04-21T01:08:35+02:00*%
%TF.ProjectId,board,626f6172-642e-46b6-9963-61645f706362,rev?*%
%TF.SameCoordinates,Original*%
%TF.FileFunction,Copper,L1,Top*%
%TF.FilePolarity,Positive*%
%FSLAX46Y46*%
G04 Gerber Fmt 4.6, Leading zero omitted, Abs format (unit mm)*
G04 Created by KiCad (PCBNEW 8.0.6) date 2026-04-21 01:08:35*
%MOMM*%
%LPD*%
G01*
G04 APERTURE LIST*
G04 Aperture macros list*
%AMRoundRect*
0 Rectangle with rounded corners*
0 $1 Rounding radius*
0 $2 $3 $4 $5 $6 $7 $8 $9 X,Y pos of 4 corners*
0 Add a 4 corners polygon primitive as box body*
4,1,4,$2,$3,$4,$5,$6,$7,$8,$9,$2,$3,0*
0 Add four circle primitives for the rounded corners*
1,1,$1+$1,$2,$3*
1,1,$1+$1,$4,$5*
1,1,$1+$1,$6,$7*
1,1,$1+$1,$8,$9*
0 Add four rect primitives between the rounded corners*
20,1,$1+$1,$2,$3,$4,$5,0*
20,1,$1+$1,$4,$5,$6,$7,0*
20,1,$1+$1,$6,$7,$8,$9,0*
20,1,$1+$1,$8,$9,$2,$3,0*%
G04 Aperture macros list end*
%TA.AperFunction,ComponentPad*%
%ADD10R,1.700000X1.700000*%
%TD*%
%TA.AperFunction,ComponentPad*%
%ADD11C,1.700000*%
%TD*%
%TA.AperFunction,SMDPad,CuDef*%
%ADD12RoundRect,0.250000X-0.250000X-0.350000X0.250000X-0.350000X0.250000X0.350000X-0.250000X0.350000X0*%
%TD*%
%TA.AperFunction,ComponentPad*%
%ADD13C,6.000000*%
%TD*%
%TA.AperFunction,Conductor*%
%ADD14C,0.250000*%
%TD*%
G04 APERTURE END LIST*
D10*
%TO.P,V_000,1*%
%TO.N,N/C*%
X8000000Y-8000000D03*
D11*
%TO.P,V_000,2*%
X8000000Y-10540000D03*
%TD*%
D10*
%TO.P,S_001,1*%
%TO.N,N/C*%
X20000000Y-8000000D03*
D11*
%TO.P,S_001,2*%
X20000000Y-10540000D03*
%TD*%
D12*
%TO.P,R_002,1*%
%TO.N,CARGA_IN*%
X30900000Y-8000000D03*
%TO.P,R_002,2*%
%TO.N,BANCO*%
X33100000Y-8000000D03*
%TD*%
%TO.P,C_003,1*%
%TO.N,BANCO*%
X42900000Y-8000000D03*
%TO.P,C_003,2*%
%TO.N,GND*%
X45100000Y-8000000D03*
%TD*%
D10*
%TO.P,S_004,1*%
%TO.N,N/C*%
X8000000Y-18000000D03*
D11*
%TO.P,S_004,2*%
X8000000Y-20540000D03*
%TD*%
D12*
%TO.P,L_005,1*%
%TO.N,PFN_IN*%
X18900000Y-18000000D03*
%TO.P,L_005,2*%
%TO.N,PFN1*%
X21100000Y-18000000D03*
%TD*%
%TO.P,L_006,1*%
%TO.N,PFN1*%
X30900000Y-18000000D03*
%TO.P,L_006,2*%
%TO.N,PFN2*%
X33100000Y-18000000D03*
%TD*%
%TO.P,L_007,1*%
%TO.N,PFN2*%
X42900000Y-18000000D03*
%TO.P,L_007,2*%
%TO.N,PFN3*%
X45100000Y-18000000D03*
%TD*%
%TO.P,L_008,1*%
%TO.N,PFN3*%
X6900000Y-28000000D03*
%TO.P,L_008,2*%
%TO.N,ANT_IN*%
X9100000Y-28000000D03*
%TD*%
%TO.P,R_009,1*%
%TO.N,ANT_IN*%
X18900000Y-28000000D03*
%TO.P,R_009,2*%
%TO.N,GND*%
X21100000Y-28000000D03*
%TD*%
D10*
%TO.P,GND_010,1*%
%TO.N,N/C*%
X32000000Y-28000000D03*
D11*
%TO.P,GND_010,2*%
X32000000Y-30540000D03*
%TD*%
D10*
%TO.P,GND_011,1*%
%TO.N,N/C*%
X44000000Y-28000000D03*
D11*
%TO.P,GND_011,2*%
X44000000Y-30540000D03*
%TD*%
D10*
%TO.P,GND_012,1*%
%TO.N,N/C*%
X8000000Y-38000000D03*
D11*
%TO.P,GND_012,2*%
X8000000Y-40540000D03*
%TD*%
D13*
%TO.P,H,*%
%TO.N,*%
X3000000Y-3000000D03*
%TD*%
%TO.P,H,*%
%TO.N,*%
X57000000Y-3000000D03*
%TD*%
%TO.P,H,*%
%TO.N,*%
X3000000Y-57000000D03*
%TD*%
%TO.P,H,*%
%TO.N,*%
X57000000Y-57000000D03*
%TD*%
D14*
%TO.N,BANCO*%
X33000000Y-8000000D02*
X33250000Y-8000000D01*
X33250000Y-8000000D02*
X33500000Y-8000000D01*
X33500000Y-8000000D02*
X33750000Y-8000000D01*
X33750000Y-8000000D02*
X34000000Y-8000000D01*
X34000000Y-8000000D02*
X34250000Y-8000000D01*
X34250000Y-8000000D02*
X34500000Y-8000000D01*
X34500000Y-8000000D02*
X34750000Y-8000000D01*
X34750000Y-8000000D02*
X35000000Y-8000000D01*
X35000000Y-8000000D02*
X35250000Y-8000000D01*
X35250000Y-8000000D02*
X35500000Y-8000000D01*
X35500000Y-8000000D02*
X35750000Y-8000000D01*
X35750000Y-8000000D02*
X36000000Y-8000000D01*
X36000000Y-8000000D02*
X36250000Y-8000000D01*
X36250000Y-8000000D02*
X36500000Y-8000000D01*
X36500000Y-8000000D02*
X36750000Y-8000000D01*
X36750000Y-8000000D02*
X37000000Y-8000000D01*
X37000000Y-8000000D02*
X37250000Y-8000000D01*
X37250000Y-8000000D02*
X37500000Y-8000000D01*
X37500000Y-8000000D02*
X37750000Y-8000000D01*
X37750000Y-8000000D02*
X38000000Y-8000000D01*
X38000000Y-8000000D02*
X38250000Y-8000000D01*
X38250000Y-8000000D02*
X38500000Y-8000000D01*
X38500000Y-8000000D02*
X38750000Y-8000000D01*
X38750000Y-8000000D02*
X39000000Y-8000000D01*
X39000000Y-8000000D02*
X39250000Y-8000000D01*
X39250000Y-8000000D02*
X39500000Y-8000000D01*
X39500000Y-8000000D02*
X39750000Y-8000000D01*
X39750000Y-8000000D02*
X40000000Y-8000000D01*
X40000000Y-8000000D02*
X40250000Y-8000000D01*
X40250000Y-8000000D02*
X40500000Y-8000000D01*
X40500000Y-8000000D02*
X40750000Y-8000000D01*
X40750000Y-8000000D02*
X41000000Y-8000000D01*
X41000000Y-8000000D02*
X41250000Y-8000000D01*
X41250000Y-8000000D02*
X41500000Y-8000000D01*
X41500000Y-8000000D02*
X41750000Y-8000000D01*
X41750000Y-8000000D02*
X42000000Y-8000000D01*
X42000000Y-8000000D02*
X42250000Y-8000000D01*
X42250000Y-8000000D02*
X42500000Y-8000000D01*
X42500000Y-8000000D02*
X42750000Y-8000000D01*
X42750000Y-8000000D02*
X42900000Y-8000000D01*
%TO.N,PFN1*%
X21000000Y-18000000D02*
X21250000Y-18000000D01*
X21250000Y-18000000D02*
X21500000Y-18000000D01*
X21500000Y-18000000D02*
X21750000Y-18000000D01*
X21750000Y-18000000D02*
X22000000Y-18000000D01*
X22000000Y-18000000D02*
X22250000Y-18000000D01*
X22250000Y-18000000D02*
X22500000Y-18000000D01*
X22500000Y-18000000D02*
X22750000Y-18000000D01*
X22750000Y-18000000D02*
X23000000Y-18000000D01*
X23000000Y-18000000D02*
X23250000Y-18000000D01*
X23250000Y-18000000D02*
X23500000Y-18000000D01*
X23500000Y-18000000D02*
X23750000Y-18000000D01*
X23750000Y-18000000D02*
X24000000Y-18000000D01*
X24000000Y-18000000D02*
X24250000Y-18000000D01*
X24250000Y-18000000D02*
X24500000Y-18000000D01*
X24500000Y-18000000D02*
X24750000Y-18000000D01*
X24750000Y-18000000D02*
X25000000Y-18000000D01*
X25000000Y-18000000D02*
X25250000Y-18000000D01*
X25250000Y-18000000D02*
X25500000Y-18000000D01*
X25500000Y-18000000D02*
X25750000Y-18000000D01*
X25750000Y-18000000D02*
X26000000Y-18000000D01*
X26000000Y-18000000D02*
X26250000Y-18000000D01*
X26250000Y-18000000D02*
X26500000Y-18000000D01*
X26500000Y-18000000D02*
X26750000Y-18000000D01*
X26750000Y-18000000D02*
X27000000Y-18000000D01*
X27000000Y-18000000D02*
X27250000Y-18000000D01*
X27250000Y-18000000D02*
X27500000Y-18000000D01*
X27500000Y-18000000D02*
X27750000Y-18000000D01*
X27750000Y-18000000D02*
X28000000Y-18000000D01*
X28000000Y-18000000D02*
X28250000Y-18000000D01*
X28250000Y-18000000D02*
X28500000Y-18000000D01*
X28500000Y-18000000D02*
X28750000Y-18000000D01*
X28750000Y-18000000D02*
X29000000Y-18000000D01*
X29000000Y-18000000D02*
X29250000Y-18000000D01*
X29250000Y-18000000D02*
X29500000Y-18000000D01*
X29500000Y-18000000D02*
X29750000Y-18000000D01*
X29750000Y-18000000D02*
X30000000Y-18000000D01*
X30000000Y-18000000D02*
X30250000Y-18000000D01*
X30250000Y-18000000D02*
X30500000Y-18000000D01*
X30500000Y-18000000D02*
X30750000Y-18000000D01*
X30750000Y-18000000D02*
X30900000Y-18000000D01*
%TO.N,PFN2*%
X33000000Y-18000000D02*
X33250000Y-18000000D01*
X33250000Y-18000000D02*
X33500000Y-18000000D01*
X33500000Y-18000000D02*
X33750000Y-18000000D01*
X33750000Y-18000000D02*
X34000000Y-18000000D01*
X34000000Y-18000000D02*
X34250000Y-18000000D01*
X34250000Y-18000000D02*
X34500000Y-18000000D01*
X34500000Y-18000000D02*
X34750000Y-18000000D01*
X34750000Y-18000000D02*
X35000000Y-18000000D01*
X35000000Y-18000000D02*
X35250000Y-18000000D01*
X35250000Y-18000000D02*
X35500000Y-18000000D01*
X35500000Y-18000000D02*
X35750000Y-18000000D01*
X35750000Y-18000000D02*
X36000000Y-18000000D01*
X36000000Y-18000000D02*
X36250000Y-18000000D01*
X36250000Y-18000000D02*
X36500000Y-18000000D01*
X36500000Y-18000000D02*
X36750000Y-18000000D01*
X36750000Y-18000000D02*
X37000000Y-18000000D01*
X37000000Y-18000000D02*
X37250000Y-18000000D01*
X37250000Y-18000000D02*
X37500000Y-18000000D01*
X37500000Y-18000000D02*
X37750000Y-18000000D01*
X37750000Y-18000000D02*
X38000000Y-18000000D01*
X38000000Y-18000000D02*
X38250000Y-18000000D01*
X38250000Y-18000000D02*
X38500000Y-18000000D01*
X38500000Y-18000000D02*
X38750000Y-18000000D01*
X38750000Y-18000000D02*
X39000000Y-18000000D01*
X39000000Y-18000000D02*
X39250000Y-18000000D01*
X39250000Y-18000000D02*
X39500000Y-18000000D01*
X39500000Y-18000000D02*
X39750000Y-18000000D01*
X39750000Y-18000000D02*
X40000000Y-18000000D01*
X40000000Y-18000000D02*
X40250000Y-18000000D01*
X40250000Y-18000000D02*
X40500000Y-18000000D01*
X40500000Y-18000000D02*
X40750000Y-18000000D01*
X40750000Y-18000000D02*
X41000000Y-18000000D01*
X41000000Y-18000000D02*
X41250000Y-18000000D01*
X41250000Y-18000000D02*
X41500000Y-18000000D01*
X41500000Y-18000000D02*
X41750000Y-18000000D01*
X41750000Y-18000000D02*
X42000000Y-18000000D01*
X42000000Y-18000000D02*
X42250000Y-18000000D01*
X42250000Y-18000000D02*
X42500000Y-18000000D01*
X42500000Y-18000000D02*
X42750000Y-18000000D01*
X42750000Y-18000000D02*
X42900000Y-18000000D01*
%TO.N,PFN3*%
X45000000Y-18000000D02*
X44750000Y-18000000D01*
X44750000Y-18000000D02*
X44500000Y-18000000D01*
X44500000Y-18000000D02*
X44250000Y-18000000D01*
X44250000Y-18000000D02*
X44000000Y-18000000D01*
X44000000Y-18000000D02*
X43750000Y-18000000D01*
X43750000Y-18000000D02*
X43750000Y-18250000D01*
X43750000Y-18250000D02*
X43750000Y-18500000D01*
X43750000Y-18500000D02*
X43750000Y-18750000D01*
X43750000Y-18750000D02*
X43750000Y-19000000D01*
X43750000Y-19000000D02*
X43500000Y-19000000D01*
X43500000Y-19000000D02*
X43250000Y-19000000D01*
X43250000Y-19000000D02*
X43000000Y-19000000D01*
X43000000Y-19000000D02*
X42750000Y-19000000D01*
X42750000Y-19000000D02*
X42500000Y-19000000D01*
X42500000Y-19000000D02*
X42250000Y-19000000D01*
X42250000Y-19000000D02*
X42000000Y-19000000D01*
X42000000Y-19000000D02*
X41750000Y-19000000D01*
X41750000Y-19000000D02*
X41500000Y-19000000D01*
X41500000Y-19000000D02*
X41250000Y-19000000D01*
X41250000Y-19000000D02*
X41000000Y-19000000D01*
X41000000Y-19000000D02*
X40750000Y-19000000D01*
X40750000Y-19000000D02*
X40500000Y-19000000D01*
X40500000Y-19000000D02*
X40250000Y-19000000D01*
X40250000Y-19000000D02*
X40000000Y-19000000D01*
X40000000Y-19000000D02*
X39750000Y-19000000D01*
X39750000Y-19000000D02*
X39500000Y-19000000D01*
X39500000Y-19000000D02*
X39250000Y-19000000D01*
X39250000Y-19000000D02*
X39000000Y-19000000D01*
X39000000Y-19000000D02*
X38750000Y-19000000D01*
X38750000Y-19000000D02*
X38500000Y-19000000D01*
X38500000Y-19000000D02*
X38250000Y-19000000D01*
X38250000Y-19000000D02*
X38000000Y-19000000D01*
X38000000Y-19000000D02*
X37750000Y-19000000D01*
X37750000Y-19000000D02*
X37500000Y-19000000D01*
X37500000Y-19000000D02*
X37250000Y-19000000D01*
X37250000Y-19000000D02*
X37000000Y-19000000D01*
X37000000Y-19000000D02*
X36750000Y-19000000D01*
X36750000Y-19000000D02*
X36500000Y-19000000D01*
X36500000Y-19000000D02*
X36250000Y-19000000D01*
X36250000Y-19000000D02*
X36000000Y-19000000D01*
X36000000Y-19000000D02*
X35750000Y-19000000D01*
X35750000Y-19000000D02*
X35500000Y-19000000D01*
X35500000Y-19000000D02*
X35250000Y-19000000D01*
X35250000Y-19000000D02*
X35000000Y-19000000D01*
X35000000Y-19000000D02*
X34750000Y-19000000D01*
X34750000Y-19000000D02*
X34500000Y-19000000D01*
X34500000Y-19000000D02*
X34250000Y-19000000D01*
X34250000Y-19000000D02*
X34000000Y-19000000D01*
X34000000Y-19000000D02*
X33750000Y-19000000D01*
X33750000Y-19000000D02*
X33500000Y-19000000D01*
X33500000Y-19000000D02*
X33250000Y-19000000D01*
X33250000Y-19000000D02*
X33000000Y-19000000D01*
X33000000Y-19000000D02*
X32750000Y-19000000D01*
X32750000Y-19000000D02*
X32500000Y-19000000D01*
X32500000Y-19000000D02*
X32250000Y-19000000D01*
X32250000Y-19000000D02*
X32000000Y-19000000D01*
X32000000Y-19000000D02*
X31750000Y-19000000D01*
X31750000Y-19000000D02*
X31500000Y-19000000D01*
X31500000Y-19000000D02*
X31250000Y-19000000D01*
X31250000Y-19000000D02*
X31000000Y-19000000D01*
X31000000Y-19000000D02*
X30750000Y-19000000D01*
X30750000Y-19000000D02*
X30500000Y-19000000D01*
X30500000Y-19000000D02*
X30250000Y-19000000D01*
X30250000Y-19000000D02*
X30000000Y-19000000D01*
X30000000Y-19000000D02*
X29750000Y-19000000D01*
X29750000Y-19000000D02*
X29500000Y-19000000D01*
X29500000Y-19000000D02*
X29250000Y-19000000D01*
X29250000Y-19000000D02*
X29000000Y-19000000D01*
X29000000Y-19000000D02*
X28750000Y-19000000D01*
X28750000Y-19000000D02*
X28500000Y-19000000D01*
X28500000Y-19000000D02*
X28250000Y-19000000D01*
X28250000Y-19000000D02*
X28000000Y-19000000D01*
X28000000Y-19000000D02*
X27750000Y-19000000D01*
X27750000Y-19000000D02*
X27500000Y-19000000D01*
X27500000Y-19000000D02*
X27250000Y-19000000D01*
X27250000Y-19000000D02*
X27000000Y-19000000D01*
X27000000Y-19000000D02*
X26750000Y-19000000D01*
X26750000Y-19000000D02*
X26500000Y-19000000D01*
X26500000Y-19000000D02*
X26250000Y-19000000D01*
X26250000Y-19000000D02*
X26000000Y-19000000D01*
X26000000Y-19000000D02*
X25750000Y-19000000D01*
X25750000Y-19000000D02*
X25500000Y-19000000D01*
X25500000Y-19000000D02*
X25250000Y-19000000D01*
X25250000Y-19000000D02*
X25000000Y-19000000D01*
X25000000Y-19000000D02*
X24750000Y-19000000D01*
X24750000Y-19000000D02*
X24500000Y-19000000D01*
X24500000Y-19000000D02*
X24250000Y-19000000D01*
X24250000Y-19000000D02*
X24000000Y-19000000D01*
X24000000Y-19000000D02*
X23750000Y-19000000D01*
X23750000Y-19000000D02*
X23500000Y-19000000D01*
X23500000Y-19000000D02*
X23250000Y-19000000D01*
X23250000Y-19000000D02*
X23000000Y-19000000D01*
X23000000Y-19000000D02*
X22750000Y-19000000D01*
X22750000Y-19000000D02*
X22500000Y-19000000D01*
X22500000Y-19000000D02*
X22250000Y-19000000D01*
X22250000Y-19000000D02*
X22000000Y-19000000D01*
X22000000Y-19000000D02*
X21750000Y-19000000D01*
X21750000Y-19000000D02*
X21500000Y-19000000D01*
X21500000Y-19000000D02*
X21250000Y-19000000D01*
X21250000Y-19000000D02*
X21000000Y-19000000D01*
X21000000Y-19000000D02*
X20750000Y-19000000D01*
X20750000Y-19000000D02*
X20500000Y-19000000D01*
X20500000Y-19000000D02*
X20250000Y-19000000D01*
X20250000Y-19000000D02*
X20000000Y-19000000D01*
X20000000Y-19000000D02*
X19750000Y-19000000D01*
X19750000Y-19000000D02*
X19500000Y-19000000D01*
X19500000Y-19000000D02*
X19250000Y-19000000D01*
X19250000Y-19000000D02*
X19000000Y-19000000D01*
X19000000Y-19000000D02*
X18750000Y-19000000D01*
X18750000Y-19000000D02*
X18500000Y-19000000D01*
X18500000Y-19000000D02*
X18250000Y-19000000D01*
X18250000Y-19000000D02*
X18000000Y-19000000D01*
X18000000Y-19000000D02*
X17750000Y-19000000D01*
X17750000Y-19000000D02*
X17500000Y-19000000D01*
X17500000Y-19000000D02*
X17250000Y-19000000D01*
X17250000Y-19000000D02*
X17000000Y-19000000D01*
X17000000Y-19000000D02*
X16750000Y-19000000D01*
X16750000Y-19000000D02*
X16500000Y-19000000D01*
X16500000Y-19000000D02*
X16250000Y-19000000D01*
X16250000Y-19000000D02*
X16000000Y-19000000D01*
X16000000Y-19000000D02*
X15750000Y-19000000D01*
X15750000Y-19000000D02*
X15500000Y-19000000D01*
X15500000Y-19000000D02*
X15250000Y-19000000D01*
X15250000Y-19000000D02*
X15000000Y-19000000D01*
X15000000Y-19000000D02*
X14750000Y-19000000D01*
X14750000Y-19000000D02*
X14500000Y-19000000D01*
X14500000Y-19000000D02*
X14250000Y-19000000D01*
X14250000Y-19000000D02*
X14000000Y-19000000D01*
X14000000Y-19000000D02*
X13750000Y-19000000D01*
X13750000Y-19000000D02*
X13500000Y-19000000D01*
X13500000Y-19000000D02*
X13250000Y-19000000D01*
X13250000Y-19000000D02*
X13000000Y-19000000D01*
X13000000Y-19000000D02*
X12750000Y-19000000D01*
X12750000Y-19000000D02*
X12500000Y-19000000D01*
X12500000Y-19000000D02*
X12250000Y-19000000D01*
X12250000Y-19000000D02*
X12000000Y-19000000D01*
X12000000Y-19000000D02*
X11750000Y-19000000D01*
X11750000Y-19000000D02*
X11500000Y-19000000D01*
X11500000Y-19000000D02*
X11250000Y-19000000D01*
X11250000Y-19000000D02*
X11000000Y-19000000D01*
X11000000Y-19000000D02*
X10750000Y-19000000D01*
X10750000Y-19000000D02*
X10500000Y-19000000D01*
X10500000Y-19000000D02*
X10250000Y-19000000D01*
X10250000Y-19000000D02*
X10000000Y-19000000D01*
X10000000Y-19000000D02*
X9750000Y-19000000D01*
X9750000Y-19000000D02*
X9500000Y-19000000D01*
X9500000Y-19000000D02*
X9250000Y-19000000D01*
X9250000Y-19000000D02*
X9250000Y-19250000D01*
X9250000Y-19250000D02*
X9000000Y-19250000D01*
X9000000Y-19250000D02*
X8750000Y-19250000D01*
X8750000Y-19250000D02*
X8500000Y-19250000D01*
X8500000Y-19250000D02*
X8250000Y-19250000D01*
X8250000Y-19250000D02*
X8000000Y-19250000D01*
X8000000Y-19250000D02*
X7750000Y-19250000D01*
X7750000Y-19250000D02*
X7500000Y-19250000D01*
X7500000Y-19250000D02*
X7250000Y-19250000D01*
X7250000Y-19250000D02*
X7000000Y-19250000D01*
X7000000Y-19250000D02*
X6750000Y-19250000D01*
X6750000Y-19250000D02*
X6750000Y-19500000D01*
X6750000Y-19500000D02*
X6750000Y-19750000D01*
X6750000Y-19750000D02*
X6750000Y-20000000D01*
X6750000Y-20000000D02*
X6750000Y-20250000D01*
X6750000Y-20250000D02*
X6750000Y-20500000D01*
X6750000Y-20500000D02*
X6750000Y-20750000D01*
X6750000Y-20750000D02*
X6750000Y-21000000D01*
X6750000Y-21000000D02*
X6750000Y-21250000D01*
X6750000Y-21250000D02*
X6750000Y-21500000D01*
X6750000Y-21500000D02*
X6750000Y-21750000D01*
X6750000Y-21750000D02*
X6750000Y-22000000D01*
X6750000Y-22000000D02*
X6750000Y-22250000D01*
X6750000Y-22250000D02*
X6750000Y-22500000D01*
X6750000Y-22500000D02*
X6750000Y-22750000D01*
X6750000Y-22750000D02*
X6750000Y-23000000D01*
X6750000Y-23000000D02*
X6750000Y-23250000D01*
X6750000Y-23250000D02*
X6750000Y-23500000D01*
X6750000Y-23500000D02*
X6750000Y-23750000D01*
X6750000Y-23750000D02*
X6750000Y-24000000D01*
X6750000Y-24000000D02*
X6750000Y-24250000D01*
X6750000Y-24250000D02*
X6750000Y-24500000D01*
X6750000Y-24500000D02*
X6750000Y-24750000D01*
X6750000Y-24750000D02*
X6750000Y-25000000D01*
X6750000Y-25000000D02*
X6750000Y-25250000D01*
X6750000Y-25250000D02*
X6750000Y-25500000D01*
X6750000Y-25500000D02*
X6750000Y-25750000D01*
X6750000Y-25750000D02*
X6750000Y-26000000D01*
X6750000Y-26000000D02*
X6750000Y-26250000D01*
X6750000Y-26250000D02*
X6750000Y-26500000D01*
X6750000Y-26500000D02*
X6750000Y-26750000D01*
X6750000Y-26750000D02*
X6750000Y-27000000D01*
X6750000Y-27000000D02*
X6750000Y-27250000D01*
X6750000Y-27250000D02*
X6750000Y-27500000D01*
X6750000Y-27500000D02*
X6750000Y-27750000D01*
X6750000Y-27750000D02*
X6750000Y-28000000D01*
X6750000Y-28000000D02*
X6900000Y-28000000D01*
%TO.N,ANT_IN*%
X9000000Y-28000000D02*
X9250000Y-28000000D01*
X9250000Y-28000000D02*
X9500000Y-28000000D01*
X9500000Y-28000000D02*
X9750000Y-28000000D01*
X9750000Y-28000000D02*
X10000000Y-28000000D01*
X10000000Y-28000000D02*
X10250000Y-28000000D01*
X10250000Y-28000000D02*
X10500000Y-28000000D01*
X10500000Y-28000000D02*
X10750000Y-28000000D01*
X10750000Y-28000000D02*
X11000000Y-28000000D01*
X11000000Y-28000000D02*
X11250000Y-28000000D01*
X11250000Y-28000000D02*
X11500000Y-28000000D01*
X11500000Y-28000000D02*
X11750000Y-28000000D01*
X11750000Y-28000000D02*
X12000000Y-28000000D01*
X12000000Y-28000000D02*
X12250000Y-28000000D01*
X12250000Y-28000000D02*
X12500000Y-28000000D01*
X12500000Y-28000000D02*
X12750000Y-28000000D01*
X12750000Y-28000000D02*
X13000000Y-28000000D01*
X13000000Y-28000000D02*
X13250000Y-28000000D01*
X13250000Y-28000000D02*
X13500000Y-28000000D01*
X13500000Y-28000000D02*
X13750000Y-28000000D01*
X13750000Y-28000000D02*
X14000000Y-28000000D01*
X14000000Y-28000000D02*
X14250000Y-28000000D01*
X14250000Y-28000000D02*
X14500000Y-28000000D01*
X14500000Y-28000000D02*
X14750000Y-28000000D01*
X14750000Y-28000000D02*
X15000000Y-28000000D01*
X15000000Y-28000000D02*
X15250000Y-28000000D01*
X15250000Y-28000000D02*
X15500000Y-28000000D01*
X15500000Y-28000000D02*
X15750000Y-28000000D01*
X15750000Y-28000000D02*
X16000000Y-28000000D01*
X16000000Y-28000000D02*
X16250000Y-28000000D01*
X16250000Y-28000000D02*
X16500000Y-28000000D01*
X16500000Y-28000000D02*
X16750000Y-28000000D01*
X16750000Y-28000000D02*
X17000000Y-28000000D01*
X17000000Y-28000000D02*
X17250000Y-28000000D01*
X17250000Y-28000000D02*
X17500000Y-28000000D01*
X17500000Y-28000000D02*
X17750000Y-28000000D01*
X17750000Y-28000000D02*
X18000000Y-28000000D01*
X18000000Y-28000000D02*
X18250000Y-28000000D01*
X18250000Y-28000000D02*
X18500000Y-28000000D01*
X18500000Y-28000000D02*
X18750000Y-28000000D01*
X18750000Y-28000000D02*
X18900000Y-28000000D01*
%TD*%
M02*
