%TF.GenerationSoftware,KiCad,Pcbnew,8.0.6*%
%TF.CreationDate,2026-04-19T01:26:46+02:00*%
%TF.ProjectId,board,626f6172-642e-46b6-9963-61645f706362,rev?*%
%TF.SameCoordinates,Original*%
%TF.FileFunction,AssemblyDrawing,Top*%
%FSLAX46Y46*%
G04 Gerber Fmt 4.6, Leading zero omitted, Abs format (unit mm)*
G04 Created by KiCad (PCBNEW 8.0.6) date 2026-04-19 01:26:46*
%MOMM*%
%LPD*%
G01*
G04 APERTURE LIST*
%ADD10C,0.150000*%
G04 APERTURE END LIST*
D10*
X7809523Y-9954819D02*
X7333333Y-9954819D01*
X7333333Y-9954819D02*
X7285714Y-10431009D01*
X7285714Y-10431009D02*
X7333333Y-10383390D01*
X7333333Y-10383390D02*
X7428571Y-10335771D01*
X7428571Y-10335771D02*
X7666666Y-10335771D01*
X7666666Y-10335771D02*
X7761904Y-10383390D01*
X7761904Y-10383390D02*
X7809523Y-10431009D01*
X7809523Y-10431009D02*
X7857142Y-10526247D01*
X7857142Y-10526247D02*
X7857142Y-10764342D01*
X7857142Y-10764342D02*
X7809523Y-10859580D01*
X7809523Y-10859580D02*
X7761904Y-10907200D01*
X7761904Y-10907200D02*
X7666666Y-10954819D01*
X7666666Y-10954819D02*
X7428571Y-10954819D01*
X7428571Y-10954819D02*
X7333333Y-10907200D01*
X7333333Y-10907200D02*
X7285714Y-10859580D01*
X8142857Y-9954819D02*
X8476190Y-10954819D01*
X8476190Y-10954819D02*
X8809523Y-9954819D01*
X18857142Y-10954819D02*
X18285714Y-10954819D01*
X18571428Y-10954819D02*
X18571428Y-9954819D01*
X18571428Y-9954819D02*
X18476190Y-10097676D01*
X18476190Y-10097676D02*
X18380952Y-10192914D01*
X18380952Y-10192914D02*
X18285714Y-10240533D01*
X19476190Y-9954819D02*
X19571428Y-9954819D01*
X19571428Y-9954819D02*
X19666666Y-10002438D01*
X19666666Y-10002438D02*
X19714285Y-10050057D01*
X19714285Y-10050057D02*
X19761904Y-10145295D01*
X19761904Y-10145295D02*
X19809523Y-10335771D01*
X19809523Y-10335771D02*
X19809523Y-10573866D01*
X19809523Y-10573866D02*
X19761904Y-10764342D01*
X19761904Y-10764342D02*
X19714285Y-10859580D01*
X19714285Y-10859580D02*
X19666666Y-10907200D01*
X19666666Y-10907200D02*
X19571428Y-10954819D01*
X19571428Y-10954819D02*
X19476190Y-10954819D01*
X19476190Y-10954819D02*
X19380952Y-10907200D01*
X19380952Y-10907200D02*
X19333333Y-10859580D01*
X19333333Y-10859580D02*
X19285714Y-10764342D01*
X19285714Y-10764342D02*
X19238095Y-10573866D01*
X19238095Y-10573866D02*
X19238095Y-10335771D01*
X19238095Y-10335771D02*
X19285714Y-10145295D01*
X19285714Y-10145295D02*
X19333333Y-10050057D01*
X19333333Y-10050057D02*
X19380952Y-10002438D01*
X19380952Y-10002438D02*
X19476190Y-9954819D01*
X20428571Y-9954819D02*
X20523809Y-9954819D01*
X20523809Y-9954819D02*
X20619047Y-10002438D01*
X20619047Y-10002438D02*
X20666666Y-10050057D01*
X20666666Y-10050057D02*
X20714285Y-10145295D01*
X20714285Y-10145295D02*
X20761904Y-10335771D01*
X20761904Y-10335771D02*
X20761904Y-10573866D01*
X20761904Y-10573866D02*
X20714285Y-10764342D01*
X20714285Y-10764342D02*
X20666666Y-10859580D01*
X20666666Y-10859580D02*
X20619047Y-10907200D01*
X20619047Y-10907200D02*
X20523809Y-10954819D01*
X20523809Y-10954819D02*
X20428571Y-10954819D01*
X20428571Y-10954819D02*
X20333333Y-10907200D01*
X20333333Y-10907200D02*
X20285714Y-10859580D01*
X20285714Y-10859580D02*
X20238095Y-10764342D01*
X20238095Y-10764342D02*
X20190476Y-10573866D01*
X20190476Y-10573866D02*
X20190476Y-10335771D01*
X20190476Y-10335771D02*
X20238095Y-10145295D01*
X20238095Y-10145295D02*
X20285714Y-10050057D01*
X20285714Y-10050057D02*
X20333333Y-10002438D01*
X20333333Y-10002438D02*
X20428571Y-9954819D01*
X21380952Y-9954819D02*
X21476190Y-9954819D01*
X21476190Y-9954819D02*
X21571428Y-10002438D01*
X21571428Y-10002438D02*
X21619047Y-10050057D01*
X21619047Y-10050057D02*
X21666666Y-10145295D01*
X21666666Y-10145295D02*
X21714285Y-10335771D01*
X21714285Y-10335771D02*
X21714285Y-10573866D01*
X21714285Y-10573866D02*
X21666666Y-10764342D01*
X21666666Y-10764342D02*
X21619047Y-10859580D01*
X21619047Y-10859580D02*
X21571428Y-10907200D01*
X21571428Y-10907200D02*
X21476190Y-10954819D01*
X21476190Y-10954819D02*
X21380952Y-10954819D01*
X21380952Y-10954819D02*
X21285714Y-10907200D01*
X21285714Y-10907200D02*
X21238095Y-10859580D01*
X21238095Y-10859580D02*
X21190476Y-10764342D01*
X21190476Y-10764342D02*
X21142857Y-10573866D01*
X21142857Y-10573866D02*
X21142857Y-10335771D01*
X21142857Y-10335771D02*
X21190476Y-10145295D01*
X21190476Y-10145295D02*
X21238095Y-10050057D01*
X21238095Y-10050057D02*
X21285714Y-10002438D01*
X21285714Y-10002438D02*
X21380952Y-9954819D01*
X29809524Y-9954819D02*
X29904762Y-9954819D01*
X29904762Y-9954819D02*
X30000000Y-10002438D01*
X30000000Y-10002438D02*
X30047619Y-10050057D01*
X30047619Y-10050057D02*
X30095238Y-10145295D01*
X30095238Y-10145295D02*
X30142857Y-10335771D01*
X30142857Y-10335771D02*
X30142857Y-10573866D01*
X30142857Y-10573866D02*
X30095238Y-10764342D01*
X30095238Y-10764342D02*
X30047619Y-10859580D01*
X30047619Y-10859580D02*
X30000000Y-10907200D01*
X30000000Y-10907200D02*
X29904762Y-10954819D01*
X29904762Y-10954819D02*
X29809524Y-10954819D01*
X29809524Y-10954819D02*
X29714286Y-10907200D01*
X29714286Y-10907200D02*
X29666667Y-10859580D01*
X29666667Y-10859580D02*
X29619048Y-10764342D01*
X29619048Y-10764342D02*
X29571429Y-10573866D01*
X29571429Y-10573866D02*
X29571429Y-10335771D01*
X29571429Y-10335771D02*
X29619048Y-10145295D01*
X29619048Y-10145295D02*
X29666667Y-10050057D01*
X29666667Y-10050057D02*
X29714286Y-10002438D01*
X29714286Y-10002438D02*
X29809524Y-9954819D01*
X30571429Y-10859580D02*
X30619048Y-10907200D01*
X30619048Y-10907200D02*
X30571429Y-10954819D01*
X30571429Y-10954819D02*
X30523810Y-10907200D01*
X30523810Y-10907200D02*
X30571429Y-10859580D01*
X30571429Y-10859580D02*
X30571429Y-10954819D01*
X31238095Y-9954819D02*
X31333333Y-9954819D01*
X31333333Y-9954819D02*
X31428571Y-10002438D01*
X31428571Y-10002438D02*
X31476190Y-10050057D01*
X31476190Y-10050057D02*
X31523809Y-10145295D01*
X31523809Y-10145295D02*
X31571428Y-10335771D01*
X31571428Y-10335771D02*
X31571428Y-10573866D01*
X31571428Y-10573866D02*
X31523809Y-10764342D01*
X31523809Y-10764342D02*
X31476190Y-10859580D01*
X31476190Y-10859580D02*
X31428571Y-10907200D01*
X31428571Y-10907200D02*
X31333333Y-10954819D01*
X31333333Y-10954819D02*
X31238095Y-10954819D01*
X31238095Y-10954819D02*
X31142857Y-10907200D01*
X31142857Y-10907200D02*
X31095238Y-10859580D01*
X31095238Y-10859580D02*
X31047619Y-10764342D01*
X31047619Y-10764342D02*
X31000000Y-10573866D01*
X31000000Y-10573866D02*
X31000000Y-10335771D01*
X31000000Y-10335771D02*
X31047619Y-10145295D01*
X31047619Y-10145295D02*
X31095238Y-10050057D01*
X31095238Y-10050057D02*
X31142857Y-10002438D01*
X31142857Y-10002438D02*
X31238095Y-9954819D01*
X32190476Y-9954819D02*
X32285714Y-9954819D01*
X32285714Y-9954819D02*
X32380952Y-10002438D01*
X32380952Y-10002438D02*
X32428571Y-10050057D01*
X32428571Y-10050057D02*
X32476190Y-10145295D01*
X32476190Y-10145295D02*
X32523809Y-10335771D01*
X32523809Y-10335771D02*
X32523809Y-10573866D01*
X32523809Y-10573866D02*
X32476190Y-10764342D01*
X32476190Y-10764342D02*
X32428571Y-10859580D01*
X32428571Y-10859580D02*
X32380952Y-10907200D01*
X32380952Y-10907200D02*
X32285714Y-10954819D01*
X32285714Y-10954819D02*
X32190476Y-10954819D01*
X32190476Y-10954819D02*
X32095238Y-10907200D01*
X32095238Y-10907200D02*
X32047619Y-10859580D01*
X32047619Y-10859580D02*
X32000000Y-10764342D01*
X32000000Y-10764342D02*
X31952381Y-10573866D01*
X31952381Y-10573866D02*
X31952381Y-10335771D01*
X31952381Y-10335771D02*
X32000000Y-10145295D01*
X32000000Y-10145295D02*
X32047619Y-10050057D01*
X32047619Y-10050057D02*
X32095238Y-10002438D01*
X32095238Y-10002438D02*
X32190476Y-9954819D01*
X33142857Y-9954819D02*
X33238095Y-9954819D01*
X33238095Y-9954819D02*
X33333333Y-10002438D01*
X33333333Y-10002438D02*
X33380952Y-10050057D01*
X33380952Y-10050057D02*
X33428571Y-10145295D01*
X33428571Y-10145295D02*
X33476190Y-10335771D01*
X33476190Y-10335771D02*
X33476190Y-10573866D01*
X33476190Y-10573866D02*
X33428571Y-10764342D01*
X33428571Y-10764342D02*
X33380952Y-10859580D01*
X33380952Y-10859580D02*
X33333333Y-10907200D01*
X33333333Y-10907200D02*
X33238095Y-10954819D01*
X33238095Y-10954819D02*
X33142857Y-10954819D01*
X33142857Y-10954819D02*
X33047619Y-10907200D01*
X33047619Y-10907200D02*
X33000000Y-10859580D01*
X33000000Y-10859580D02*
X32952381Y-10764342D01*
X32952381Y-10764342D02*
X32904762Y-10573866D01*
X32904762Y-10573866D02*
X32904762Y-10335771D01*
X32904762Y-10335771D02*
X32952381Y-10145295D01*
X32952381Y-10145295D02*
X33000000Y-10050057D01*
X33000000Y-10050057D02*
X33047619Y-10002438D01*
X33047619Y-10002438D02*
X33142857Y-9954819D01*
X34428571Y-10954819D02*
X33857143Y-10954819D01*
X34142857Y-10954819D02*
X34142857Y-9954819D01*
X34142857Y-9954819D02*
X34047619Y-10097676D01*
X34047619Y-10097676D02*
X33952381Y-10192914D01*
X33952381Y-10192914D02*
X33857143Y-10240533D01*
X7238095Y-20002438D02*
X7142857Y-19954819D01*
X7142857Y-19954819D02*
X7000000Y-19954819D01*
X7000000Y-19954819D02*
X6857143Y-20002438D01*
X6857143Y-20002438D02*
X6761905Y-20097676D01*
X6761905Y-20097676D02*
X6714286Y-20192914D01*
X6714286Y-20192914D02*
X6666667Y-20383390D01*
X6666667Y-20383390D02*
X6666667Y-20526247D01*
X6666667Y-20526247D02*
X6714286Y-20716723D01*
X6714286Y-20716723D02*
X6761905Y-20811961D01*
X6761905Y-20811961D02*
X6857143Y-20907200D01*
X6857143Y-20907200D02*
X7000000Y-20954819D01*
X7000000Y-20954819D02*
X7095238Y-20954819D01*
X7095238Y-20954819D02*
X7238095Y-20907200D01*
X7238095Y-20907200D02*
X7285714Y-20859580D01*
X7285714Y-20859580D02*
X7285714Y-20526247D01*
X7285714Y-20526247D02*
X7095238Y-20526247D01*
X7714286Y-20954819D02*
X7714286Y-19954819D01*
X7714286Y-19954819D02*
X8285714Y-20954819D01*
X8285714Y-20954819D02*
X8285714Y-19954819D01*
X8761905Y-20954819D02*
X8761905Y-19954819D01*
X8761905Y-19954819D02*
X9000000Y-19954819D01*
X9000000Y-19954819D02*
X9142857Y-20002438D01*
X9142857Y-20002438D02*
X9238095Y-20097676D01*
X9238095Y-20097676D02*
X9285714Y-20192914D01*
X9285714Y-20192914D02*
X9333333Y-20383390D01*
X9333333Y-20383390D02*
X9333333Y-20526247D01*
X9333333Y-20526247D02*
X9285714Y-20716723D01*
X9285714Y-20716723D02*
X9238095Y-20811961D01*
X9238095Y-20811961D02*
X9142857Y-20907200D01*
X9142857Y-20907200D02*
X9000000Y-20954819D01*
X9000000Y-20954819D02*
X8761905Y-20954819D01*
X19238095Y-20002438D02*
X19142857Y-19954819D01*
X19142857Y-19954819D02*
X19000000Y-19954819D01*
X19000000Y-19954819D02*
X18857143Y-20002438D01*
X18857143Y-20002438D02*
X18761905Y-20097676D01*
X18761905Y-20097676D02*
X18714286Y-20192914D01*
X18714286Y-20192914D02*
X18666667Y-20383390D01*
X18666667Y-20383390D02*
X18666667Y-20526247D01*
X18666667Y-20526247D02*
X18714286Y-20716723D01*
X18714286Y-20716723D02*
X18761905Y-20811961D01*
X18761905Y-20811961D02*
X18857143Y-20907200D01*
X18857143Y-20907200D02*
X19000000Y-20954819D01*
X19000000Y-20954819D02*
X19095238Y-20954819D01*
X19095238Y-20954819D02*
X19238095Y-20907200D01*
X19238095Y-20907200D02*
X19285714Y-20859580D01*
X19285714Y-20859580D02*
X19285714Y-20526247D01*
X19285714Y-20526247D02*
X19095238Y-20526247D01*
X19714286Y-20954819D02*
X19714286Y-19954819D01*
X19714286Y-19954819D02*
X20285714Y-20954819D01*
X20285714Y-20954819D02*
X20285714Y-19954819D01*
X20761905Y-20954819D02*
X20761905Y-19954819D01*
X20761905Y-19954819D02*
X21000000Y-19954819D01*
X21000000Y-19954819D02*
X21142857Y-20002438D01*
X21142857Y-20002438D02*
X21238095Y-20097676D01*
X21238095Y-20097676D02*
X21285714Y-20192914D01*
X21285714Y-20192914D02*
X21333333Y-20383390D01*
X21333333Y-20383390D02*
X21333333Y-20526247D01*
X21333333Y-20526247D02*
X21285714Y-20716723D01*
X21285714Y-20716723D02*
X21238095Y-20811961D01*
X21238095Y-20811961D02*
X21142857Y-20907200D01*
X21142857Y-20907200D02*
X21000000Y-20954819D01*
X21000000Y-20954819D02*
X20761905Y-20954819D01*
M02*
