%TF.GenerationSoftware,KiCad,Pcbnew,8.0.6*%
%TF.CreationDate,2026-04-19T01:26:46+02:00*%
%TF.ProjectId,board,626f6172-642e-46b6-9963-61645f706362,rev?*%
%TF.SameCoordinates,Original*%
%TF.FileFunction,Copper,L2,Bot*%
%TF.FilePolarity,Positive*%
%FSLAX46Y46*%
G04 Gerber Fmt 4.6, Leading zero omitted, Abs format (unit mm)*
G04 Created by KiCad (PCBNEW 8.0.6) date 2026-04-19 01:26:46*
%MOMM*%
%LPD*%
G01*
G04 APERTURE LIST*
%TA.AperFunction,ComponentPad*%
%ADD10R,1.700000X1.700000*%
%TD*%
%TA.AperFunction,ComponentPad*%
%ADD11C,1.700000*%
%TD*%
%TA.AperFunction,ComponentPad*%
%ADD12C,6.000000*%
%TD*%
%TA.AperFunction,ViaPad*%
%ADD13C,0.600000*%
%TD*%
%TA.AperFunction,Conductor*%
%ADD14C,0.250000*%
%TD*%
G04 APERTURE END LIST*
D10*
%TO.P,V_000,1*%
%TO.N,N/C*%
X8000000Y-8000000D03*
D11*
%TO.P,V_000,2*%
X8000000Y-10540000D03*
%TD*%
D10*
%TO.P,GND_003,1*%
%TO.N,N/C*%
X8000000Y-18000000D03*
D11*
%TO.P,GND_003,2*%
X8000000Y-20540000D03*
%TD*%
D10*
%TO.P,GND_004,1*%
%TO.N,N/C*%
X20000000Y-18000000D03*
D11*
%TO.P,GND_004,2*%
X20000000Y-20540000D03*
%TD*%
D12*
%TO.P,H,*%
%TO.N,*%
X3000000Y-3000000D03*
%TD*%
%TO.P,H,*%
%TO.N,*%
X42000000Y-3000000D03*
%TD*%
%TO.P,H,*%
%TO.N,*%
X3000000Y-33000000D03*
%TD*%
%TO.P,H,*%
%TO.N,*%
X42000000Y-33000000D03*
%TD*%
D13*
%TO.N,B*%
X21000000Y-8000000D03*
X30750000Y-8000000D03*
%TD*%
D14*
%TO.N,B*%
X21000000Y-8000000D02*
X21250000Y-8000000D01*
X21250000Y-8000000D02*
X21500000Y-8000000D01*
X21500000Y-8000000D02*
X21750000Y-8000000D01*
X21750000Y-8000000D02*
X22000000Y-8000000D01*
X22000000Y-8000000D02*
X22250000Y-8000000D01*
X22250000Y-8000000D02*
X22500000Y-8000000D01*
X22500000Y-8000000D02*
X22750000Y-8000000D01*
X22750000Y-8000000D02*
X23000000Y-8000000D01*
X23000000Y-8000000D02*
X23250000Y-8000000D01*
X23250000Y-8000000D02*
X23500000Y-8000000D01*
X23500000Y-8000000D02*
X23750000Y-8000000D01*
X23750000Y-8000000D02*
X24000000Y-8000000D01*
X24000000Y-8000000D02*
X24250000Y-8000000D01*
X24250000Y-8000000D02*
X24500000Y-8000000D01*
X24500000Y-8000000D02*
X24750000Y-8000000D01*
X24750000Y-8000000D02*
X25000000Y-8000000D01*
X25000000Y-8000000D02*
X25250000Y-8000000D01*
X25250000Y-8000000D02*
X25500000Y-8000000D01*
X25500000Y-8000000D02*
X25750000Y-8000000D01*
X25750000Y-8000000D02*
X26000000Y-8000000D01*
X26000000Y-8000000D02*
X26250000Y-8000000D01*
X26250000Y-8000000D02*
X26500000Y-8000000D01*
X26500000Y-8000000D02*
X26750000Y-8000000D01*
X26750000Y-8000000D02*
X27000000Y-8000000D01*
X27000000Y-8000000D02*
X27250000Y-8000000D01*
X27250000Y-8000000D02*
X27500000Y-8000000D01*
X27500000Y-8000000D02*
X27750000Y-8000000D01*
X27750000Y-8000000D02*
X28000000Y-8000000D01*
X28000000Y-8000000D02*
X28250000Y-8000000D01*
X28250000Y-8000000D02*
X28500000Y-8000000D01*
X28500000Y-8000000D02*
X28750000Y-8000000D01*
X28750000Y-8000000D02*
X29000000Y-8000000D01*
X29000000Y-8000000D02*
X29250000Y-8000000D01*
X29250000Y-8000000D02*
X29500000Y-8000000D01*
X29500000Y-8000000D02*
X29750000Y-8000000D01*
X29750000Y-8000000D02*
X30000000Y-8000000D01*
X30000000Y-8000000D02*
X30250000Y-8000000D01*
X30250000Y-8000000D02*
X30500000Y-8000000D01*
X30500000Y-8000000D02*
X30750000Y-8000000D01*
%TD*%
M02*
