M48
; DRILL file {KiCad 8.0.6} date 2026-04-17T23:35:11+0200
; FORMAT={3:3/ absolute / metric / suppress leading zeros}
; #@! TF.CreationDate,2026-04-17T23:35:11+02:00
; #@! TF.GenerationSoftware,Kicad,Pcbnew,8.0.6
; #@! TF.FileFunction,MixedPlating,1,2
FMAT,2
METRIC,TZ
; #@! TA.AperFunction,Plated,PTH,ComponentDrill
T1C0.800
; #@! TA.AperFunction,Plated,PTH,ComponentDrill
T2C1.000
; #@! TA.AperFunction,Plated,PTH,ComponentDrill
T3C3.200
%
G90
G05
T1
X29190Y-18000
X29190Y-20540
X29190Y-23080
X29190Y-25620
X29190Y-28160
X29190Y-30700
X29190Y-33240
X29190Y-35780
X36810Y-18000
X36810Y-20540
X36810Y-23080
X36810Y-25620
X36810Y-28160
X36810Y-30700
X36810Y-33240
X36810Y-35780
T2
X5500Y-12000
X5500Y-14540
X15000Y-12000
X15000Y-14540
X15000Y-17080
X33000Y-40000
X35540Y-40000
X38080Y-40000
X40620Y-40000
X43160Y-40000
X45700Y-40000
X55000Y-10000
X55000Y-12540
X55000Y-15080
X55000Y-17620
X55500Y-32000
X55500Y-34540
T3
X3500Y-3500
X3500Y-41500
X56500Y-3500
X56500Y-41500
M30
