%TF.GenerationSoftware,KiCad,Pcbnew,8.0.6*%
%TF.CreationDate,2026-04-17T23:35:11+02:00*%
%TF.ProjectId,board,626f6172-642e-46b6-9963-61645f706362,rev?*%
%TF.SameCoordinates,Original*%
%TF.FileFunction,AssemblyDrawing,Top*%
%FSLAX46Y46*%
G04 Gerber Fmt 4.6, Leading zero omitted, Abs format (unit mm)*
G04 Created by KiCad (PCBNEW 8.0.6) date 2026-04-17 23:35:11*
%MOMM*%
%LPD*%
G01*
G04 APERTURE LIST*
%ADD10C,0.150000*%
G04 APERTURE END LIST*
D10*
X4166666Y-13954819D02*
X3690476Y-13954819D01*
X3690476Y-13954819D02*
X3642857Y-14431009D01*
X3642857Y-14431009D02*
X3690476Y-14383390D01*
X3690476Y-14383390D02*
X3785714Y-14335771D01*
X3785714Y-14335771D02*
X4023809Y-14335771D01*
X4023809Y-14335771D02*
X4119047Y-14383390D01*
X4119047Y-14383390D02*
X4166666Y-14431009D01*
X4166666Y-14431009D02*
X4214285Y-14526247D01*
X4214285Y-14526247D02*
X4214285Y-14764342D01*
X4214285Y-14764342D02*
X4166666Y-14859580D01*
X4166666Y-14859580D02*
X4119047Y-14907200D01*
X4119047Y-14907200D02*
X4023809Y-14954819D01*
X4023809Y-14954819D02*
X3785714Y-14954819D01*
X3785714Y-14954819D02*
X3690476Y-14907200D01*
X3690476Y-14907200D02*
X3642857Y-14859580D01*
X4500000Y-13954819D02*
X4833333Y-14954819D01*
X4833333Y-14954819D02*
X5166666Y-13954819D01*
X6261905Y-14954819D02*
X6261905Y-13954819D01*
X6738095Y-14954819D02*
X6738095Y-13954819D01*
X6738095Y-13954819D02*
X7309523Y-14954819D01*
X7309523Y-14954819D02*
X7309523Y-13954819D01*
X10000000Y-14669104D02*
X10476190Y-14669104D01*
X9904762Y-14954819D02*
X10238095Y-13954819D01*
X10238095Y-13954819D02*
X10571428Y-14954819D01*
X10904762Y-14954819D02*
X10904762Y-13954819D01*
X10904762Y-13954819D02*
X11238095Y-14669104D01*
X11238095Y-14669104D02*
X11571428Y-13954819D01*
X11571428Y-13954819D02*
X11571428Y-14954819D01*
X12000000Y-14907200D02*
X12142857Y-14954819D01*
X12142857Y-14954819D02*
X12380952Y-14954819D01*
X12380952Y-14954819D02*
X12476190Y-14907200D01*
X12476190Y-14907200D02*
X12523809Y-14859580D01*
X12523809Y-14859580D02*
X12571428Y-14764342D01*
X12571428Y-14764342D02*
X12571428Y-14669104D01*
X12571428Y-14669104D02*
X12523809Y-14573866D01*
X12523809Y-14573866D02*
X12476190Y-14526247D01*
X12476190Y-14526247D02*
X12380952Y-14478628D01*
X12380952Y-14478628D02*
X12190476Y-14431009D01*
X12190476Y-14431009D02*
X12095238Y-14383390D01*
X12095238Y-14383390D02*
X12047619Y-14335771D01*
X12047619Y-14335771D02*
X12000000Y-14240533D01*
X12000000Y-14240533D02*
X12000000Y-14145295D01*
X12000000Y-14145295D02*
X12047619Y-14050057D01*
X12047619Y-14050057D02*
X12095238Y-14002438D01*
X12095238Y-14002438D02*
X12190476Y-13954819D01*
X12190476Y-13954819D02*
X12428571Y-13954819D01*
X12428571Y-13954819D02*
X12571428Y-14002438D01*
X13523809Y-14954819D02*
X12952381Y-14954819D01*
X13238095Y-14954819D02*
X13238095Y-13954819D01*
X13238095Y-13954819D02*
X13142857Y-14097676D01*
X13142857Y-14097676D02*
X13047619Y-14192914D01*
X13047619Y-14192914D02*
X12952381Y-14240533D01*
X14476190Y-14954819D02*
X13904762Y-14954819D01*
X14190476Y-14954819D02*
X14190476Y-13954819D01*
X14190476Y-13954819D02*
X14095238Y-14097676D01*
X14095238Y-14097676D02*
X14000000Y-14192914D01*
X14000000Y-14192914D02*
X13904762Y-14240533D01*
X15428571Y-14954819D02*
X14857143Y-14954819D01*
X15142857Y-14954819D02*
X15142857Y-13954819D01*
X15142857Y-13954819D02*
X15047619Y-14097676D01*
X15047619Y-14097676D02*
X14952381Y-14192914D01*
X14952381Y-14192914D02*
X14857143Y-14240533D01*
X15761905Y-13954819D02*
X16428571Y-13954819D01*
X16428571Y-13954819D02*
X16000000Y-14954819D01*
X16809524Y-14573866D02*
X17571429Y-14573866D01*
X17952381Y-13954819D02*
X18571428Y-13954819D01*
X18571428Y-13954819D02*
X18238095Y-14335771D01*
X18238095Y-14335771D02*
X18380952Y-14335771D01*
X18380952Y-14335771D02*
X18476190Y-14383390D01*
X18476190Y-14383390D02*
X18523809Y-14431009D01*
X18523809Y-14431009D02*
X18571428Y-14526247D01*
X18571428Y-14526247D02*
X18571428Y-14764342D01*
X18571428Y-14764342D02*
X18523809Y-14859580D01*
X18523809Y-14859580D02*
X18476190Y-14907200D01*
X18476190Y-14907200D02*
X18380952Y-14954819D01*
X18380952Y-14954819D02*
X18095238Y-14954819D01*
X18095238Y-14954819D02*
X18000000Y-14907200D01*
X18000000Y-14907200D02*
X17952381Y-14859580D01*
X19000000Y-14859580D02*
X19047619Y-14907200D01*
X19047619Y-14907200D02*
X19000000Y-14954819D01*
X19000000Y-14954819D02*
X18952381Y-14907200D01*
X18952381Y-14907200D02*
X19000000Y-14859580D01*
X19000000Y-14859580D02*
X19000000Y-14954819D01*
X19380952Y-13954819D02*
X19999999Y-13954819D01*
X19999999Y-13954819D02*
X19666666Y-14335771D01*
X19666666Y-14335771D02*
X19809523Y-14335771D01*
X19809523Y-14335771D02*
X19904761Y-14383390D01*
X19904761Y-14383390D02*
X19952380Y-14431009D01*
X19952380Y-14431009D02*
X19999999Y-14526247D01*
X19999999Y-14526247D02*
X19999999Y-14764342D01*
X19999999Y-14764342D02*
X19952380Y-14859580D01*
X19952380Y-14859580D02*
X19904761Y-14907200D01*
X19904761Y-14907200D02*
X19809523Y-14954819D01*
X19809523Y-14954819D02*
X19523809Y-14954819D01*
X19523809Y-14954819D02*
X19428571Y-14907200D01*
X19428571Y-14907200D02*
X19380952Y-14859580D01*
X8928571Y-20954819D02*
X8357143Y-20954819D01*
X8642857Y-20954819D02*
X8642857Y-19954819D01*
X8642857Y-19954819D02*
X8547619Y-20097676D01*
X8547619Y-20097676D02*
X8452381Y-20192914D01*
X8452381Y-20192914D02*
X8357143Y-20240533D01*
X9547619Y-19954819D02*
X9642857Y-19954819D01*
X9642857Y-19954819D02*
X9738095Y-20002438D01*
X9738095Y-20002438D02*
X9785714Y-20050057D01*
X9785714Y-20050057D02*
X9833333Y-20145295D01*
X9833333Y-20145295D02*
X9880952Y-20335771D01*
X9880952Y-20335771D02*
X9880952Y-20573866D01*
X9880952Y-20573866D02*
X9833333Y-20764342D01*
X9833333Y-20764342D02*
X9785714Y-20859580D01*
X9785714Y-20859580D02*
X9738095Y-20907200D01*
X9738095Y-20907200D02*
X9642857Y-20954819D01*
X9642857Y-20954819D02*
X9547619Y-20954819D01*
X9547619Y-20954819D02*
X9452381Y-20907200D01*
X9452381Y-20907200D02*
X9404762Y-20859580D01*
X9404762Y-20859580D02*
X9357143Y-20764342D01*
X9357143Y-20764342D02*
X9309524Y-20573866D01*
X9309524Y-20573866D02*
X9309524Y-20335771D01*
X9309524Y-20335771D02*
X9357143Y-20145295D01*
X9357143Y-20145295D02*
X9404762Y-20050057D01*
X9404762Y-20050057D02*
X9452381Y-20002438D01*
X9452381Y-20002438D02*
X9547619Y-19954819D01*
X10738095Y-20288152D02*
X10738095Y-20954819D01*
X10309524Y-20288152D02*
X10309524Y-20811961D01*
X10309524Y-20811961D02*
X10357143Y-20907200D01*
X10357143Y-20907200D02*
X10452381Y-20954819D01*
X10452381Y-20954819D02*
X10595238Y-20954819D01*
X10595238Y-20954819D02*
X10690476Y-20907200D01*
X10690476Y-20907200D02*
X10738095Y-20859580D01*
X11547619Y-20431009D02*
X11214286Y-20431009D01*
X11214286Y-20954819D02*
X11214286Y-19954819D01*
X11214286Y-19954819D02*
X11690476Y-19954819D01*
X18928571Y-20954819D02*
X18357143Y-20954819D01*
X18642857Y-20954819D02*
X18642857Y-19954819D01*
X18642857Y-19954819D02*
X18547619Y-20097676D01*
X18547619Y-20097676D02*
X18452381Y-20192914D01*
X18452381Y-20192914D02*
X18357143Y-20240533D01*
X19547619Y-19954819D02*
X19642857Y-19954819D01*
X19642857Y-19954819D02*
X19738095Y-20002438D01*
X19738095Y-20002438D02*
X19785714Y-20050057D01*
X19785714Y-20050057D02*
X19833333Y-20145295D01*
X19833333Y-20145295D02*
X19880952Y-20335771D01*
X19880952Y-20335771D02*
X19880952Y-20573866D01*
X19880952Y-20573866D02*
X19833333Y-20764342D01*
X19833333Y-20764342D02*
X19785714Y-20859580D01*
X19785714Y-20859580D02*
X19738095Y-20907200D01*
X19738095Y-20907200D02*
X19642857Y-20954819D01*
X19642857Y-20954819D02*
X19547619Y-20954819D01*
X19547619Y-20954819D02*
X19452381Y-20907200D01*
X19452381Y-20907200D02*
X19404762Y-20859580D01*
X19404762Y-20859580D02*
X19357143Y-20764342D01*
X19357143Y-20764342D02*
X19309524Y-20573866D01*
X19309524Y-20573866D02*
X19309524Y-20335771D01*
X19309524Y-20335771D02*
X19357143Y-20145295D01*
X19357143Y-20145295D02*
X19404762Y-20050057D01*
X19404762Y-20050057D02*
X19452381Y-20002438D01*
X19452381Y-20002438D02*
X19547619Y-19954819D01*
X20738095Y-20288152D02*
X20738095Y-20954819D01*
X20309524Y-20288152D02*
X20309524Y-20811961D01*
X20309524Y-20811961D02*
X20357143Y-20907200D01*
X20357143Y-20907200D02*
X20452381Y-20954819D01*
X20452381Y-20954819D02*
X20595238Y-20954819D01*
X20595238Y-20954819D02*
X20690476Y-20907200D01*
X20690476Y-20907200D02*
X20738095Y-20859580D01*
X21547619Y-20431009D02*
X21214286Y-20431009D01*
X21214286Y-20954819D02*
X21214286Y-19954819D01*
X21214286Y-19954819D02*
X21690476Y-19954819D01*
X29809524Y-20431009D02*
X30142857Y-20431009D01*
X30285714Y-20954819D02*
X29809524Y-20954819D01*
X29809524Y-20954819D02*
X29809524Y-19954819D01*
X29809524Y-19954819D02*
X30285714Y-19954819D01*
X30666667Y-20907200D02*
X30809524Y-20954819D01*
X30809524Y-20954819D02*
X31047619Y-20954819D01*
X31047619Y-20954819D02*
X31142857Y-20907200D01*
X31142857Y-20907200D02*
X31190476Y-20859580D01*
X31190476Y-20859580D02*
X31238095Y-20764342D01*
X31238095Y-20764342D02*
X31238095Y-20669104D01*
X31238095Y-20669104D02*
X31190476Y-20573866D01*
X31190476Y-20573866D02*
X31142857Y-20526247D01*
X31142857Y-20526247D02*
X31047619Y-20478628D01*
X31047619Y-20478628D02*
X30857143Y-20431009D01*
X30857143Y-20431009D02*
X30761905Y-20383390D01*
X30761905Y-20383390D02*
X30714286Y-20335771D01*
X30714286Y-20335771D02*
X30666667Y-20240533D01*
X30666667Y-20240533D02*
X30666667Y-20145295D01*
X30666667Y-20145295D02*
X30714286Y-20050057D01*
X30714286Y-20050057D02*
X30761905Y-20002438D01*
X30761905Y-20002438D02*
X30857143Y-19954819D01*
X30857143Y-19954819D02*
X31095238Y-19954819D01*
X31095238Y-19954819D02*
X31238095Y-20002438D01*
X31666667Y-20954819D02*
X31666667Y-19954819D01*
X31666667Y-19954819D02*
X32047619Y-19954819D01*
X32047619Y-19954819D02*
X32142857Y-20002438D01*
X32142857Y-20002438D02*
X32190476Y-20050057D01*
X32190476Y-20050057D02*
X32238095Y-20145295D01*
X32238095Y-20145295D02*
X32238095Y-20288152D01*
X32238095Y-20288152D02*
X32190476Y-20383390D01*
X32190476Y-20383390D02*
X32142857Y-20431009D01*
X32142857Y-20431009D02*
X32047619Y-20478628D01*
X32047619Y-20478628D02*
X31666667Y-20478628D01*
X32666667Y-20573866D02*
X33428572Y-20573866D01*
X34428571Y-20954819D02*
X33857143Y-20954819D01*
X34142857Y-20954819D02*
X34142857Y-19954819D01*
X34142857Y-19954819D02*
X34047619Y-20097676D01*
X34047619Y-20097676D02*
X33952381Y-20192914D01*
X33952381Y-20192914D02*
X33857143Y-20240533D01*
X34809524Y-20050057D02*
X34857143Y-20002438D01*
X34857143Y-20002438D02*
X34952381Y-19954819D01*
X34952381Y-19954819D02*
X35190476Y-19954819D01*
X35190476Y-19954819D02*
X35285714Y-20002438D01*
X35285714Y-20002438D02*
X35333333Y-20050057D01*
X35333333Y-20050057D02*
X35380952Y-20145295D01*
X35380952Y-20145295D02*
X35380952Y-20240533D01*
X35380952Y-20240533D02*
X35333333Y-20383390D01*
X35333333Y-20383390D02*
X34761905Y-20954819D01*
X34761905Y-20954819D02*
X35380952Y-20954819D01*
X36142857Y-20431009D02*
X35809524Y-20431009D01*
X35809524Y-20954819D02*
X35809524Y-19954819D01*
X35809524Y-19954819D02*
X36285714Y-19954819D01*
X23452380Y-10954819D02*
X22880952Y-10954819D01*
X23166666Y-10954819D02*
X23166666Y-9954819D01*
X23166666Y-9954819D02*
X23071428Y-10097676D01*
X23071428Y-10097676D02*
X22976190Y-10192914D01*
X22976190Y-10192914D02*
X22880952Y-10240533D01*
X24071428Y-9954819D02*
X24166666Y-9954819D01*
X24166666Y-9954819D02*
X24261904Y-10002438D01*
X24261904Y-10002438D02*
X24309523Y-10050057D01*
X24309523Y-10050057D02*
X24357142Y-10145295D01*
X24357142Y-10145295D02*
X24404761Y-10335771D01*
X24404761Y-10335771D02*
X24404761Y-10573866D01*
X24404761Y-10573866D02*
X24357142Y-10764342D01*
X24357142Y-10764342D02*
X24309523Y-10859580D01*
X24309523Y-10859580D02*
X24261904Y-10907200D01*
X24261904Y-10907200D02*
X24166666Y-10954819D01*
X24166666Y-10954819D02*
X24071428Y-10954819D01*
X24071428Y-10954819D02*
X23976190Y-10907200D01*
X23976190Y-10907200D02*
X23928571Y-10859580D01*
X23928571Y-10859580D02*
X23880952Y-10764342D01*
X23880952Y-10764342D02*
X23833333Y-10573866D01*
X23833333Y-10573866D02*
X23833333Y-10335771D01*
X23833333Y-10335771D02*
X23880952Y-10145295D01*
X23880952Y-10145295D02*
X23928571Y-10050057D01*
X23928571Y-10050057D02*
X23976190Y-10002438D01*
X23976190Y-10002438D02*
X24071428Y-9954819D01*
X25023809Y-9954819D02*
X25119047Y-9954819D01*
X25119047Y-9954819D02*
X25214285Y-10002438D01*
X25214285Y-10002438D02*
X25261904Y-10050057D01*
X25261904Y-10050057D02*
X25309523Y-10145295D01*
X25309523Y-10145295D02*
X25357142Y-10335771D01*
X25357142Y-10335771D02*
X25357142Y-10573866D01*
X25357142Y-10573866D02*
X25309523Y-10764342D01*
X25309523Y-10764342D02*
X25261904Y-10859580D01*
X25261904Y-10859580D02*
X25214285Y-10907200D01*
X25214285Y-10907200D02*
X25119047Y-10954819D01*
X25119047Y-10954819D02*
X25023809Y-10954819D01*
X25023809Y-10954819D02*
X24928571Y-10907200D01*
X24928571Y-10907200D02*
X24880952Y-10859580D01*
X24880952Y-10859580D02*
X24833333Y-10764342D01*
X24833333Y-10764342D02*
X24785714Y-10573866D01*
X24785714Y-10573866D02*
X24785714Y-10335771D01*
X24785714Y-10335771D02*
X24833333Y-10145295D01*
X24833333Y-10145295D02*
X24880952Y-10050057D01*
X24880952Y-10050057D02*
X24928571Y-10002438D01*
X24928571Y-10002438D02*
X25023809Y-9954819D01*
X25785714Y-10288152D02*
X25785714Y-10954819D01*
X25785714Y-10383390D02*
X25833333Y-10335771D01*
X25833333Y-10335771D02*
X25928571Y-10288152D01*
X25928571Y-10288152D02*
X26071428Y-10288152D01*
X26071428Y-10288152D02*
X26166666Y-10335771D01*
X26166666Y-10335771D02*
X26214285Y-10431009D01*
X26214285Y-10431009D02*
X26214285Y-10954819D01*
X27023809Y-10431009D02*
X26690476Y-10431009D01*
X26690476Y-10954819D02*
X26690476Y-9954819D01*
X26690476Y-9954819D02*
X27166666Y-9954819D01*
X39452380Y-10954819D02*
X38880952Y-10954819D01*
X39166666Y-10954819D02*
X39166666Y-9954819D01*
X39166666Y-9954819D02*
X39071428Y-10097676D01*
X39071428Y-10097676D02*
X38976190Y-10192914D01*
X38976190Y-10192914D02*
X38880952Y-10240533D01*
X40071428Y-9954819D02*
X40166666Y-9954819D01*
X40166666Y-9954819D02*
X40261904Y-10002438D01*
X40261904Y-10002438D02*
X40309523Y-10050057D01*
X40309523Y-10050057D02*
X40357142Y-10145295D01*
X40357142Y-10145295D02*
X40404761Y-10335771D01*
X40404761Y-10335771D02*
X40404761Y-10573866D01*
X40404761Y-10573866D02*
X40357142Y-10764342D01*
X40357142Y-10764342D02*
X40309523Y-10859580D01*
X40309523Y-10859580D02*
X40261904Y-10907200D01*
X40261904Y-10907200D02*
X40166666Y-10954819D01*
X40166666Y-10954819D02*
X40071428Y-10954819D01*
X40071428Y-10954819D02*
X39976190Y-10907200D01*
X39976190Y-10907200D02*
X39928571Y-10859580D01*
X39928571Y-10859580D02*
X39880952Y-10764342D01*
X39880952Y-10764342D02*
X39833333Y-10573866D01*
X39833333Y-10573866D02*
X39833333Y-10335771D01*
X39833333Y-10335771D02*
X39880952Y-10145295D01*
X39880952Y-10145295D02*
X39928571Y-10050057D01*
X39928571Y-10050057D02*
X39976190Y-10002438D01*
X39976190Y-10002438D02*
X40071428Y-9954819D01*
X41023809Y-9954819D02*
X41119047Y-9954819D01*
X41119047Y-9954819D02*
X41214285Y-10002438D01*
X41214285Y-10002438D02*
X41261904Y-10050057D01*
X41261904Y-10050057D02*
X41309523Y-10145295D01*
X41309523Y-10145295D02*
X41357142Y-10335771D01*
X41357142Y-10335771D02*
X41357142Y-10573866D01*
X41357142Y-10573866D02*
X41309523Y-10764342D01*
X41309523Y-10764342D02*
X41261904Y-10859580D01*
X41261904Y-10859580D02*
X41214285Y-10907200D01*
X41214285Y-10907200D02*
X41119047Y-10954819D01*
X41119047Y-10954819D02*
X41023809Y-10954819D01*
X41023809Y-10954819D02*
X40928571Y-10907200D01*
X40928571Y-10907200D02*
X40880952Y-10859580D01*
X40880952Y-10859580D02*
X40833333Y-10764342D01*
X40833333Y-10764342D02*
X40785714Y-10573866D01*
X40785714Y-10573866D02*
X40785714Y-10335771D01*
X40785714Y-10335771D02*
X40833333Y-10145295D01*
X40833333Y-10145295D02*
X40880952Y-10050057D01*
X40880952Y-10050057D02*
X40928571Y-10002438D01*
X40928571Y-10002438D02*
X41023809Y-9954819D01*
X41785714Y-10288152D02*
X41785714Y-10954819D01*
X41785714Y-10383390D02*
X41833333Y-10335771D01*
X41833333Y-10335771D02*
X41928571Y-10288152D01*
X41928571Y-10288152D02*
X42071428Y-10288152D01*
X42071428Y-10288152D02*
X42166666Y-10335771D01*
X42166666Y-10335771D02*
X42214285Y-10431009D01*
X42214285Y-10431009D02*
X42214285Y-10954819D01*
X43023809Y-10431009D02*
X42690476Y-10431009D01*
X42690476Y-10954819D02*
X42690476Y-9954819D01*
X42690476Y-9954819D02*
X43166666Y-9954819D01*
X24404761Y-32954819D02*
X23833333Y-32954819D01*
X24119047Y-32954819D02*
X24119047Y-31954819D01*
X24119047Y-31954819D02*
X24023809Y-32097676D01*
X24023809Y-32097676D02*
X23928571Y-32192914D01*
X23928571Y-32192914D02*
X23833333Y-32240533D01*
X25023809Y-31954819D02*
X25119047Y-31954819D01*
X25119047Y-31954819D02*
X25214285Y-32002438D01*
X25214285Y-32002438D02*
X25261904Y-32050057D01*
X25261904Y-32050057D02*
X25309523Y-32145295D01*
X25309523Y-32145295D02*
X25357142Y-32335771D01*
X25357142Y-32335771D02*
X25357142Y-32573866D01*
X25357142Y-32573866D02*
X25309523Y-32764342D01*
X25309523Y-32764342D02*
X25261904Y-32859580D01*
X25261904Y-32859580D02*
X25214285Y-32907200D01*
X25214285Y-32907200D02*
X25119047Y-32954819D01*
X25119047Y-32954819D02*
X25023809Y-32954819D01*
X25023809Y-32954819D02*
X24928571Y-32907200D01*
X24928571Y-32907200D02*
X24880952Y-32859580D01*
X24880952Y-32859580D02*
X24833333Y-32764342D01*
X24833333Y-32764342D02*
X24785714Y-32573866D01*
X24785714Y-32573866D02*
X24785714Y-32335771D01*
X24785714Y-32335771D02*
X24833333Y-32145295D01*
X24833333Y-32145295D02*
X24880952Y-32050057D01*
X24880952Y-32050057D02*
X24928571Y-32002438D01*
X24928571Y-32002438D02*
X25023809Y-31954819D01*
X25785714Y-32954819D02*
X25785714Y-31954819D01*
X25880952Y-32573866D02*
X26166666Y-32954819D01*
X26166666Y-32288152D02*
X25785714Y-32669104D01*
X32404761Y-32954819D02*
X31833333Y-32954819D01*
X32119047Y-32954819D02*
X32119047Y-31954819D01*
X32119047Y-31954819D02*
X32023809Y-32097676D01*
X32023809Y-32097676D02*
X31928571Y-32192914D01*
X31928571Y-32192914D02*
X31833333Y-32240533D01*
X33023809Y-31954819D02*
X33119047Y-31954819D01*
X33119047Y-31954819D02*
X33214285Y-32002438D01*
X33214285Y-32002438D02*
X33261904Y-32050057D01*
X33261904Y-32050057D02*
X33309523Y-32145295D01*
X33309523Y-32145295D02*
X33357142Y-32335771D01*
X33357142Y-32335771D02*
X33357142Y-32573866D01*
X33357142Y-32573866D02*
X33309523Y-32764342D01*
X33309523Y-32764342D02*
X33261904Y-32859580D01*
X33261904Y-32859580D02*
X33214285Y-32907200D01*
X33214285Y-32907200D02*
X33119047Y-32954819D01*
X33119047Y-32954819D02*
X33023809Y-32954819D01*
X33023809Y-32954819D02*
X32928571Y-32907200D01*
X32928571Y-32907200D02*
X32880952Y-32859580D01*
X32880952Y-32859580D02*
X32833333Y-32764342D01*
X32833333Y-32764342D02*
X32785714Y-32573866D01*
X32785714Y-32573866D02*
X32785714Y-32335771D01*
X32785714Y-32335771D02*
X32833333Y-32145295D01*
X32833333Y-32145295D02*
X32880952Y-32050057D01*
X32880952Y-32050057D02*
X32928571Y-32002438D01*
X32928571Y-32002438D02*
X33023809Y-31954819D01*
X33785714Y-32954819D02*
X33785714Y-31954819D01*
X33880952Y-32573866D02*
X34166666Y-32954819D01*
X34166666Y-32288152D02*
X33785714Y-32669104D01*
X40404761Y-32954819D02*
X39833333Y-32954819D01*
X40119047Y-32954819D02*
X40119047Y-31954819D01*
X40119047Y-31954819D02*
X40023809Y-32097676D01*
X40023809Y-32097676D02*
X39928571Y-32192914D01*
X39928571Y-32192914D02*
X39833333Y-32240533D01*
X41023809Y-31954819D02*
X41119047Y-31954819D01*
X41119047Y-31954819D02*
X41214285Y-32002438D01*
X41214285Y-32002438D02*
X41261904Y-32050057D01*
X41261904Y-32050057D02*
X41309523Y-32145295D01*
X41309523Y-32145295D02*
X41357142Y-32335771D01*
X41357142Y-32335771D02*
X41357142Y-32573866D01*
X41357142Y-32573866D02*
X41309523Y-32764342D01*
X41309523Y-32764342D02*
X41261904Y-32859580D01*
X41261904Y-32859580D02*
X41214285Y-32907200D01*
X41214285Y-32907200D02*
X41119047Y-32954819D01*
X41119047Y-32954819D02*
X41023809Y-32954819D01*
X41023809Y-32954819D02*
X40928571Y-32907200D01*
X40928571Y-32907200D02*
X40880952Y-32859580D01*
X40880952Y-32859580D02*
X40833333Y-32764342D01*
X40833333Y-32764342D02*
X40785714Y-32573866D01*
X40785714Y-32573866D02*
X40785714Y-32335771D01*
X40785714Y-32335771D02*
X40833333Y-32145295D01*
X40833333Y-32145295D02*
X40880952Y-32050057D01*
X40880952Y-32050057D02*
X40928571Y-32002438D01*
X40928571Y-32002438D02*
X41023809Y-31954819D01*
X41785714Y-32954819D02*
X41785714Y-31954819D01*
X41880952Y-32573866D02*
X42166666Y-32954819D01*
X42166666Y-32288152D02*
X41785714Y-32669104D01*
X51119047Y-12954819D02*
X51119047Y-11954819D01*
X51547618Y-12050057D02*
X51595237Y-12002438D01*
X51595237Y-12002438D02*
X51690475Y-11954819D01*
X51690475Y-11954819D02*
X51928570Y-11954819D01*
X51928570Y-11954819D02*
X52023808Y-12002438D01*
X52023808Y-12002438D02*
X52071427Y-12050057D01*
X52071427Y-12050057D02*
X52119046Y-12145295D01*
X52119046Y-12145295D02*
X52119046Y-12240533D01*
X52119046Y-12240533D02*
X52071427Y-12383390D01*
X52071427Y-12383390D02*
X51499999Y-12954819D01*
X51499999Y-12954819D02*
X52119046Y-12954819D01*
X53119046Y-12859580D02*
X53071427Y-12907200D01*
X53071427Y-12907200D02*
X52928570Y-12954819D01*
X52928570Y-12954819D02*
X52833332Y-12954819D01*
X52833332Y-12954819D02*
X52690475Y-12907200D01*
X52690475Y-12907200D02*
X52595237Y-12811961D01*
X52595237Y-12811961D02*
X52547618Y-12716723D01*
X52547618Y-12716723D02*
X52499999Y-12526247D01*
X52499999Y-12526247D02*
X52499999Y-12383390D01*
X52499999Y-12383390D02*
X52547618Y-12192914D01*
X52547618Y-12192914D02*
X52595237Y-12097676D01*
X52595237Y-12097676D02*
X52690475Y-12002438D01*
X52690475Y-12002438D02*
X52833332Y-11954819D01*
X52833332Y-11954819D02*
X52928570Y-11954819D01*
X52928570Y-11954819D02*
X53071427Y-12002438D01*
X53071427Y-12002438D02*
X53119046Y-12050057D01*
X54261904Y-12907200D02*
X54404761Y-12954819D01*
X54404761Y-12954819D02*
X54642856Y-12954819D01*
X54642856Y-12954819D02*
X54738094Y-12907200D01*
X54738094Y-12907200D02*
X54785713Y-12859580D01*
X54785713Y-12859580D02*
X54833332Y-12764342D01*
X54833332Y-12764342D02*
X54833332Y-12669104D01*
X54833332Y-12669104D02*
X54785713Y-12573866D01*
X54785713Y-12573866D02*
X54738094Y-12526247D01*
X54738094Y-12526247D02*
X54642856Y-12478628D01*
X54642856Y-12478628D02*
X54452380Y-12431009D01*
X54452380Y-12431009D02*
X54357142Y-12383390D01*
X54357142Y-12383390D02*
X54309523Y-12335771D01*
X54309523Y-12335771D02*
X54261904Y-12240533D01*
X54261904Y-12240533D02*
X54261904Y-12145295D01*
X54261904Y-12145295D02*
X54309523Y-12050057D01*
X54309523Y-12050057D02*
X54357142Y-12002438D01*
X54357142Y-12002438D02*
X54452380Y-11954819D01*
X54452380Y-11954819D02*
X54690475Y-11954819D01*
X54690475Y-11954819D02*
X54833332Y-12002438D01*
X55642856Y-12907200D02*
X55547618Y-12954819D01*
X55547618Y-12954819D02*
X55357142Y-12954819D01*
X55357142Y-12954819D02*
X55261904Y-12907200D01*
X55261904Y-12907200D02*
X55214285Y-12811961D01*
X55214285Y-12811961D02*
X55214285Y-12431009D01*
X55214285Y-12431009D02*
X55261904Y-12335771D01*
X55261904Y-12335771D02*
X55357142Y-12288152D01*
X55357142Y-12288152D02*
X55547618Y-12288152D01*
X55547618Y-12288152D02*
X55642856Y-12335771D01*
X55642856Y-12335771D02*
X55690475Y-12431009D01*
X55690475Y-12431009D02*
X55690475Y-12526247D01*
X55690475Y-12526247D02*
X55214285Y-12621485D01*
X56119047Y-12288152D02*
X56119047Y-12954819D01*
X56119047Y-12383390D02*
X56166666Y-12335771D01*
X56166666Y-12335771D02*
X56261904Y-12288152D01*
X56261904Y-12288152D02*
X56404761Y-12288152D01*
X56404761Y-12288152D02*
X56499999Y-12335771D01*
X56499999Y-12335771D02*
X56547618Y-12431009D01*
X56547618Y-12431009D02*
X56547618Y-12954819D01*
X56976190Y-12907200D02*
X57071428Y-12954819D01*
X57071428Y-12954819D02*
X57261904Y-12954819D01*
X57261904Y-12954819D02*
X57357142Y-12907200D01*
X57357142Y-12907200D02*
X57404761Y-12811961D01*
X57404761Y-12811961D02*
X57404761Y-12764342D01*
X57404761Y-12764342D02*
X57357142Y-12669104D01*
X57357142Y-12669104D02*
X57261904Y-12621485D01*
X57261904Y-12621485D02*
X57119047Y-12621485D01*
X57119047Y-12621485D02*
X57023809Y-12573866D01*
X57023809Y-12573866D02*
X56976190Y-12478628D01*
X56976190Y-12478628D02*
X56976190Y-12431009D01*
X56976190Y-12431009D02*
X57023809Y-12335771D01*
X57023809Y-12335771D02*
X57119047Y-12288152D01*
X57119047Y-12288152D02*
X57261904Y-12288152D01*
X57261904Y-12288152D02*
X57357142Y-12335771D01*
X57976190Y-12954819D02*
X57880952Y-12907200D01*
X57880952Y-12907200D02*
X57833333Y-12859580D01*
X57833333Y-12859580D02*
X57785714Y-12764342D01*
X57785714Y-12764342D02*
X57785714Y-12478628D01*
X57785714Y-12478628D02*
X57833333Y-12383390D01*
X57833333Y-12383390D02*
X57880952Y-12335771D01*
X57880952Y-12335771D02*
X57976190Y-12288152D01*
X57976190Y-12288152D02*
X58119047Y-12288152D01*
X58119047Y-12288152D02*
X58214285Y-12335771D01*
X58214285Y-12335771D02*
X58261904Y-12383390D01*
X58261904Y-12383390D02*
X58309523Y-12478628D01*
X58309523Y-12478628D02*
X58309523Y-12764342D01*
X58309523Y-12764342D02*
X58261904Y-12859580D01*
X58261904Y-12859580D02*
X58214285Y-12907200D01*
X58214285Y-12907200D02*
X58119047Y-12954819D01*
X58119047Y-12954819D02*
X57976190Y-12954819D01*
X58738095Y-12954819D02*
X58738095Y-12288152D01*
X58738095Y-12478628D02*
X58785714Y-12383390D01*
X58785714Y-12383390D02*
X58833333Y-12335771D01*
X58833333Y-12335771D02*
X58928571Y-12288152D01*
X58928571Y-12288152D02*
X59023809Y-12288152D01*
X48714286Y-33954819D02*
X49333333Y-33954819D01*
X49333333Y-33954819D02*
X49000000Y-34335771D01*
X49000000Y-34335771D02*
X49142857Y-34335771D01*
X49142857Y-34335771D02*
X49238095Y-34383390D01*
X49238095Y-34383390D02*
X49285714Y-34431009D01*
X49285714Y-34431009D02*
X49333333Y-34526247D01*
X49333333Y-34526247D02*
X49333333Y-34764342D01*
X49333333Y-34764342D02*
X49285714Y-34859580D01*
X49285714Y-34859580D02*
X49238095Y-34907200D01*
X49238095Y-34907200D02*
X49142857Y-34954819D01*
X49142857Y-34954819D02*
X48857143Y-34954819D01*
X48857143Y-34954819D02*
X48761905Y-34907200D01*
X48761905Y-34907200D02*
X48714286Y-34859580D01*
X49666667Y-33954819D02*
X50285714Y-33954819D01*
X50285714Y-33954819D02*
X49952381Y-34335771D01*
X49952381Y-34335771D02*
X50095238Y-34335771D01*
X50095238Y-34335771D02*
X50190476Y-34383390D01*
X50190476Y-34383390D02*
X50238095Y-34431009D01*
X50238095Y-34431009D02*
X50285714Y-34526247D01*
X50285714Y-34526247D02*
X50285714Y-34764342D01*
X50285714Y-34764342D02*
X50238095Y-34859580D01*
X50238095Y-34859580D02*
X50190476Y-34907200D01*
X50190476Y-34907200D02*
X50095238Y-34954819D01*
X50095238Y-34954819D02*
X49809524Y-34954819D01*
X49809524Y-34954819D02*
X49714286Y-34907200D01*
X49714286Y-34907200D02*
X49666667Y-34859580D01*
X50904762Y-33954819D02*
X51000000Y-33954819D01*
X51000000Y-33954819D02*
X51095238Y-34002438D01*
X51095238Y-34002438D02*
X51142857Y-34050057D01*
X51142857Y-34050057D02*
X51190476Y-34145295D01*
X51190476Y-34145295D02*
X51238095Y-34335771D01*
X51238095Y-34335771D02*
X51238095Y-34573866D01*
X51238095Y-34573866D02*
X51190476Y-34764342D01*
X51190476Y-34764342D02*
X51142857Y-34859580D01*
X51142857Y-34859580D02*
X51095238Y-34907200D01*
X51095238Y-34907200D02*
X51000000Y-34954819D01*
X51000000Y-34954819D02*
X50904762Y-34954819D01*
X50904762Y-34954819D02*
X50809524Y-34907200D01*
X50809524Y-34907200D02*
X50761905Y-34859580D01*
X50761905Y-34859580D02*
X50714286Y-34764342D01*
X50714286Y-34764342D02*
X50666667Y-34573866D01*
X50666667Y-34573866D02*
X50666667Y-34335771D01*
X50666667Y-34335771D02*
X50714286Y-34145295D01*
X50714286Y-34145295D02*
X50761905Y-34050057D01*
X50761905Y-34050057D02*
X50809524Y-34002438D01*
X50809524Y-34002438D02*
X50904762Y-33954819D01*
X54857142Y-34954819D02*
X54380952Y-34954819D01*
X54380952Y-34954819D02*
X54380952Y-33954819D01*
X55190476Y-34431009D02*
X55523809Y-34431009D01*
X55666666Y-34954819D02*
X55190476Y-34954819D01*
X55190476Y-34954819D02*
X55190476Y-33954819D01*
X55190476Y-33954819D02*
X55666666Y-33954819D01*
X56095238Y-34954819D02*
X56095238Y-33954819D01*
X56095238Y-33954819D02*
X56333333Y-33954819D01*
X56333333Y-33954819D02*
X56476190Y-34002438D01*
X56476190Y-34002438D02*
X56571428Y-34097676D01*
X56571428Y-34097676D02*
X56619047Y-34192914D01*
X56619047Y-34192914D02*
X56666666Y-34383390D01*
X56666666Y-34383390D02*
X56666666Y-34526247D01*
X56666666Y-34526247D02*
X56619047Y-34716723D01*
X56619047Y-34716723D02*
X56571428Y-34811961D01*
X56571428Y-34811961D02*
X56476190Y-34907200D01*
X56476190Y-34907200D02*
X56333333Y-34954819D01*
X56333333Y-34954819D02*
X56095238Y-34954819D01*
X31500000Y-39454819D02*
X31500000Y-40264342D01*
X31500000Y-40264342D02*
X31547619Y-40359580D01*
X31547619Y-40359580D02*
X31595238Y-40407200D01*
X31595238Y-40407200D02*
X31690476Y-40454819D01*
X31690476Y-40454819D02*
X31880952Y-40454819D01*
X31880952Y-40454819D02*
X31976190Y-40407200D01*
X31976190Y-40407200D02*
X32023809Y-40359580D01*
X32023809Y-40359580D02*
X32071428Y-40264342D01*
X32071428Y-40264342D02*
X32071428Y-39454819D01*
X32500000Y-40169104D02*
X32976190Y-40169104D01*
X32404762Y-40454819D02*
X32738095Y-39454819D01*
X32738095Y-39454819D02*
X33071428Y-40454819D01*
X33976190Y-40454819D02*
X33642857Y-39978628D01*
X33404762Y-40454819D02*
X33404762Y-39454819D01*
X33404762Y-39454819D02*
X33785714Y-39454819D01*
X33785714Y-39454819D02*
X33880952Y-39502438D01*
X33880952Y-39502438D02*
X33928571Y-39550057D01*
X33928571Y-39550057D02*
X33976190Y-39645295D01*
X33976190Y-39645295D02*
X33976190Y-39788152D01*
X33976190Y-39788152D02*
X33928571Y-39883390D01*
X33928571Y-39883390D02*
X33880952Y-39931009D01*
X33880952Y-39931009D02*
X33785714Y-39978628D01*
X33785714Y-39978628D02*
X33404762Y-39978628D01*
X34261905Y-39454819D02*
X34833333Y-39454819D01*
X34547619Y-40454819D02*
X34547619Y-39454819D01*
X35928572Y-40454819D02*
X35928572Y-39454819D01*
X35928572Y-39454819D02*
X36309524Y-39454819D01*
X36309524Y-39454819D02*
X36404762Y-39502438D01*
X36404762Y-39502438D02*
X36452381Y-39550057D01*
X36452381Y-39550057D02*
X36500000Y-39645295D01*
X36500000Y-39645295D02*
X36500000Y-39788152D01*
X36500000Y-39788152D02*
X36452381Y-39883390D01*
X36452381Y-39883390D02*
X36404762Y-39931009D01*
X36404762Y-39931009D02*
X36309524Y-39978628D01*
X36309524Y-39978628D02*
X35928572Y-39978628D01*
X37500000Y-40454819D02*
X37166667Y-39978628D01*
X36928572Y-40454819D02*
X36928572Y-39454819D01*
X36928572Y-39454819D02*
X37309524Y-39454819D01*
X37309524Y-39454819D02*
X37404762Y-39502438D01*
X37404762Y-39502438D02*
X37452381Y-39550057D01*
X37452381Y-39550057D02*
X37500000Y-39645295D01*
X37500000Y-39645295D02*
X37500000Y-39788152D01*
X37500000Y-39788152D02*
X37452381Y-39883390D01*
X37452381Y-39883390D02*
X37404762Y-39931009D01*
X37404762Y-39931009D02*
X37309524Y-39978628D01*
X37309524Y-39978628D02*
X36928572Y-39978628D01*
X38119048Y-39454819D02*
X38309524Y-39454819D01*
X38309524Y-39454819D02*
X38404762Y-39502438D01*
X38404762Y-39502438D02*
X38500000Y-39597676D01*
X38500000Y-39597676D02*
X38547619Y-39788152D01*
X38547619Y-39788152D02*
X38547619Y-40121485D01*
X38547619Y-40121485D02*
X38500000Y-40311961D01*
X38500000Y-40311961D02*
X38404762Y-40407200D01*
X38404762Y-40407200D02*
X38309524Y-40454819D01*
X38309524Y-40454819D02*
X38119048Y-40454819D01*
X38119048Y-40454819D02*
X38023810Y-40407200D01*
X38023810Y-40407200D02*
X37928572Y-40311961D01*
X37928572Y-40311961D02*
X37880953Y-40121485D01*
X37880953Y-40121485D02*
X37880953Y-39788152D01*
X37880953Y-39788152D02*
X37928572Y-39597676D01*
X37928572Y-39597676D02*
X38023810Y-39502438D01*
X38023810Y-39502438D02*
X38119048Y-39454819D01*
X39500000Y-39502438D02*
X39404762Y-39454819D01*
X39404762Y-39454819D02*
X39261905Y-39454819D01*
X39261905Y-39454819D02*
X39119048Y-39502438D01*
X39119048Y-39502438D02*
X39023810Y-39597676D01*
X39023810Y-39597676D02*
X38976191Y-39692914D01*
X38976191Y-39692914D02*
X38928572Y-39883390D01*
X38928572Y-39883390D02*
X38928572Y-40026247D01*
X38928572Y-40026247D02*
X38976191Y-40216723D01*
X38976191Y-40216723D02*
X39023810Y-40311961D01*
X39023810Y-40311961D02*
X39119048Y-40407200D01*
X39119048Y-40407200D02*
X39261905Y-40454819D01*
X39261905Y-40454819D02*
X39357143Y-40454819D01*
X39357143Y-40454819D02*
X39500000Y-40407200D01*
X39500000Y-40407200D02*
X39547619Y-40359580D01*
X39547619Y-40359580D02*
X39547619Y-40026247D01*
X39547619Y-40026247D02*
X39357143Y-40026247D01*
M02*
