%TF.GenerationSoftware,KiCad,Pcbnew,8.0.6*%
%TF.CreationDate,2026-04-17T23:35:11+02:00*%
%TF.ProjectId,board,626f6172-642e-46b6-9963-61645f706362,rev?*%
%TF.SameCoordinates,Original*%
%TF.FileFunction,Copper,L1,Top*%
%TF.FilePolarity,Positive*%
%FSLAX46Y46*%
G04 Gerber Fmt 4.6, Leading zero omitted, Abs format (unit mm)*
G04 Created by KiCad (PCBNEW 8.0.6) date 2026-04-17 23:35:11*
%MOMM*%
%LPD*%
G01*
G04 APERTURE LIST*
G04 Aperture macros list*
%AMRoundRect*
0 Rectangle with rounded corners*
0 $1 Rounding radius*
0 $2 $3 $4 $5 $6 $7 $8 $9 X,Y pos of 4 corners*
0 Add a 4 corners polygon primitive as box body*
4,1,4,$2,$3,$4,$5,$6,$7,$8,$9,$2,$3,0*
0 Add four circle primitives for the rounded corners*
1,1,$1+$1,$2,$3*
1,1,$1+$1,$4,$5*
1,1,$1+$1,$6,$7*
1,1,$1+$1,$8,$9*
0 Add four rect primitives between the rounded corners*
20,1,$1+$1,$2,$3,$4,$5,0*
20,1,$1+$1,$4,$5,$6,$7,0*
20,1,$1+$1,$6,$7,$8,$9,0*
20,1,$1+$1,$8,$9,$2,$3,0*%
G04 Aperture macros list end*
%TA.AperFunction,ComponentPad*%
%ADD10R,1.700000X1.700000*%
%TD*%
%TA.AperFunction,ComponentPad*%
%ADD11C,1.700000*%
%TD*%
%TA.AperFunction,SMDPad,CuDef*%
%ADD12RoundRect,0.250000X-0.250000X-0.350000X0.250000X-0.350000X0.250000X0.350000X-0.250000X0.350000X0*%
%TD*%
%TA.AperFunction,ComponentPad*%
%ADD13R,1.600000X1.600000*%
%TD*%
%TA.AperFunction,ComponentPad*%
%ADD14O,1.600000X1.600000*%
%TD*%
%TA.AperFunction,ComponentPad*%
%ADD15C,6.000000*%
%TD*%
%TA.AperFunction,Conductor*%
%ADD16C,0.400000*%
%TD*%
G04 APERTURE END LIST*
D10*
%TO.P,J1,1*%
%TO.N,N/C*%
X5500000Y-12000000D03*
D11*
%TO.P,J1,2*%
X5500000Y-14540000D03*
%TD*%
D10*
%TO.P,U1,1*%
%TO.N,N/C*%
X15000000Y-12000000D03*
D11*
%TO.P,U1,2*%
X15000000Y-14540000D03*
%TO.P,U1,3*%
X15000000Y-17080000D03*
%TD*%
D12*
%TO.P,C1,1*%
%TO.N,5V*%
X8900000Y-18000000D03*
%TO.P,C1,2*%
%TO.N,GND*%
X11100000Y-18000000D03*
%TD*%
%TO.P,C2,1*%
%TO.N,3V3*%
X18900000Y-18000000D03*
%TO.P,C2,2*%
%TO.N,GND*%
X21100000Y-18000000D03*
%TD*%
D13*
%TO.P,U2,1*%
%TO.N,N/C*%
X29190000Y-18000000D03*
D14*
%TO.P,U2,2*%
X29190000Y-20540000D03*
%TO.P,U2,3*%
X29190000Y-23080000D03*
%TO.P,U2,4*%
X29190000Y-25620000D03*
%TO.P,U2,5*%
X29190000Y-28160000D03*
%TO.P,U2,6*%
X29190000Y-30700000D03*
%TO.P,U2,7*%
X29190000Y-33240000D03*
%TO.P,U2,8*%
X29190000Y-35780000D03*
%TO.P,U2,16*%
X36810000Y-18000000D03*
%TO.P,U2,15*%
X36810000Y-20540000D03*
%TO.P,U2,14*%
X36810000Y-23080000D03*
%TO.P,U2,13*%
X36810000Y-25620000D03*
%TO.P,U2,12*%
X36810000Y-28160000D03*
%TO.P,U2,11*%
X36810000Y-30700000D03*
%TO.P,U2,10*%
X36810000Y-33240000D03*
%TO.P,U2,9*%
X36810000Y-35780000D03*
%TD*%
D12*
%TO.P,C3,1*%
%TO.N,3V3*%
X23900000Y-8000000D03*
%TO.P,C3,2*%
%TO.N,GND*%
X26100000Y-8000000D03*
%TD*%
%TO.P,C4,1*%
%TO.N,3V3*%
X39900000Y-8000000D03*
%TO.P,C4,2*%
%TO.N,GND*%
X42100000Y-8000000D03*
%TD*%
%TO.P,R1,1*%
%TO.N,3V3*%
X23900000Y-30000000D03*
%TO.P,R1,2*%
%TO.N,EN*%
X26100000Y-30000000D03*
%TD*%
%TO.P,R2,1*%
%TO.N,3V3*%
X31900000Y-30000000D03*
%TO.P,R2,2*%
%TO.N,GPIO0*%
X34100000Y-30000000D03*
%TD*%
%TO.P,R3,1*%
%TO.N,3V3*%
X39900000Y-30000000D03*
%TO.P,R3,2*%
%TO.N,GPIO2*%
X42100000Y-30000000D03*
%TD*%
D10*
%TO.P,J2,1*%
%TO.N,N/C*%
X55000000Y-10000000D03*
D11*
%TO.P,J2,2*%
X55000000Y-12540000D03*
%TO.P,J2,3*%
X55000000Y-15080000D03*
%TO.P,J2,4*%
X55000000Y-17620000D03*
%TD*%
D12*
%TO.P,R4,1*%
%TO.N,GPIO2*%
X48900000Y-32000000D03*
%TO.P,R4,2*%
%TO.N,LED*%
X51100000Y-32000000D03*
%TD*%
D10*
%TO.P,D1,1*%
%TO.N,N/C*%
X55500000Y-32000000D03*
D11*
%TO.P,D1,2*%
X55500000Y-34540000D03*
%TD*%
D10*
%TO.P,J3,1*%
%TO.N,N/C*%
X33000000Y-40000000D03*
D11*
%TO.P,J3,2*%
X35540000Y-40000000D03*
%TO.P,J3,3*%
X38080000Y-40000000D03*
%TO.P,J3,4*%
X40620000Y-40000000D03*
%TO.P,J3,5*%
X43160000Y-40000000D03*
%TO.P,J3,6*%
X45700000Y-40000000D03*
%TD*%
D15*
%TO.P,H,*%
%TO.N,*%
X3500000Y-3500000D03*
%TD*%
%TO.P,H,*%
%TO.N,*%
X56500000Y-3500000D03*
%TD*%
%TO.P,H,*%
%TO.N,*%
X3500000Y-41500000D03*
%TD*%
%TO.P,H,*%
%TO.N,*%
X56500000Y-41500000D03*
%TD*%
D16*
%TO.N,3V3*%
X20000000Y-12000000D02*
X20000000Y-6000000D01*
X20000000Y-6000000D02*
X33000000Y-6000000D01*
%TO.N,GND*%
X5500000Y-14500000D02*
X5500000Y-36000000D01*
X5500000Y-36000000D02*
X33000000Y-36000000D01*
X33000000Y-36000000D02*
X55000000Y-36000000D01*
%TO.N,5V*%
X5500000Y-12000000D02*
X15000000Y-12000000D01*
%TD*%
M02*
