%TF.GenerationSoftware,KiCad,Pcbnew,8.0.6*%
%TF.CreationDate,2026-04-17T23:35:11+02:00*%
%TF.ProjectId,board,626f6172-642e-46b6-9963-61645f706362,rev?*%
%TF.SameCoordinates,Original*%
%TF.FileFunction,Legend,Top*%
%TF.FilePolarity,Positive*%
%FSLAX46Y46*%
G04 Gerber Fmt 4.6, Leading zero omitted, Abs format (unit mm)*
G04 Created by KiCad (PCBNEW 8.0.6) date 2026-04-17 23:35:11*
%MOMM*%
%LPD*%
G01*
G04 APERTURE LIST*
G04 Aperture macros list*
%AMRoundRect*
0 Rectangle with rounded corners*
0 $1 Rounding radius*
0 $2 $3 $4 $5 $6 $7 $8 $9 X,Y pos of 4 corners*
0 Add a 4 corners polygon primitive as box body*
4,1,4,$2,$3,$4,$5,$6,$7,$8,$9,$2,$3,0*
0 Add four circle primitives for the rounded corners*
1,1,$1+$1,$2,$3*
1,1,$1+$1,$4,$5*
1,1,$1+$1,$6,$7*
1,1,$1+$1,$8,$9*
0 Add four rect primitives between the rounded corners*
20,1,$1+$1,$2,$3,$4,$5,0*
20,1,$1+$1,$4,$5,$6,$7,0*
20,1,$1+$1,$6,$7,$8,$9,0*
20,1,$1+$1,$8,$9,$2,$3,0*%
G04 Aperture macros list end*
%ADD10C,0.150000*%
%ADD11RoundRect,0.050000X-0.850000X-0.850000X0.850000X-0.850000X0.850000X0.850000X-0.850000X0.850000X0*%
%ADD12C,1.800000*%
%ADD13RoundRect,0.275000X-0.275000X-0.375000X0.275000X-0.375000X0.275000X0.375000X-0.275000X0.375000X0*%
%ADD14RoundRect,0.050000X-0.800000X-0.800000X0.800000X-0.800000X0.800000X0.800000X-0.800000X0.800000X0*%
%ADD15O,1.700000X1.700000*%
%ADD16C,6.100000*%
G04 APERTURE END LIST*
D10*
X17642858Y-47900414D02*
X18142858Y-47900414D01*
X18357144Y-48686128D02*
X17642858Y-48686128D01*
X17642858Y-48686128D02*
X17642858Y-47186128D01*
X17642858Y-47186128D02*
X18357144Y-47186128D01*
X18928573Y-48614700D02*
X19142859Y-48686128D01*
X19142859Y-48686128D02*
X19500001Y-48686128D01*
X19500001Y-48686128D02*
X19642859Y-48614700D01*
X19642859Y-48614700D02*
X19714287Y-48543271D01*
X19714287Y-48543271D02*
X19785716Y-48400414D01*
X19785716Y-48400414D02*
X19785716Y-48257557D01*
X19785716Y-48257557D02*
X19714287Y-48114700D01*
X19714287Y-48114700D02*
X19642859Y-48043271D01*
X19642859Y-48043271D02*
X19500001Y-47971842D01*
X19500001Y-47971842D02*
X19214287Y-47900414D01*
X19214287Y-47900414D02*
X19071430Y-47828985D01*
X19071430Y-47828985D02*
X19000001Y-47757557D01*
X19000001Y-47757557D02*
X18928573Y-47614700D01*
X18928573Y-47614700D02*
X18928573Y-47471842D01*
X18928573Y-47471842D02*
X19000001Y-47328985D01*
X19000001Y-47328985D02*
X19071430Y-47257557D01*
X19071430Y-47257557D02*
X19214287Y-47186128D01*
X19214287Y-47186128D02*
X19571430Y-47186128D01*
X19571430Y-47186128D02*
X19785716Y-47257557D01*
X20428572Y-48686128D02*
X20428572Y-47186128D01*
X20428572Y-47186128D02*
X21000001Y-47186128D01*
X21000001Y-47186128D02*
X21142858Y-47257557D01*
X21142858Y-47257557D02*
X21214287Y-47328985D01*
X21214287Y-47328985D02*
X21285715Y-47471842D01*
X21285715Y-47471842D02*
X21285715Y-47686128D01*
X21285715Y-47686128D02*
X21214287Y-47828985D01*
X21214287Y-47828985D02*
X21142858Y-47900414D01*
X21142858Y-47900414D02*
X21000001Y-47971842D01*
X21000001Y-47971842D02*
X20428572Y-47971842D01*
X22142858Y-47828985D02*
X22000001Y-47757557D01*
X22000001Y-47757557D02*
X21928572Y-47686128D01*
X21928572Y-47686128D02*
X21857144Y-47543271D01*
X21857144Y-47543271D02*
X21857144Y-47471842D01*
X21857144Y-47471842D02*
X21928572Y-47328985D01*
X21928572Y-47328985D02*
X22000001Y-47257557D01*
X22000001Y-47257557D02*
X22142858Y-47186128D01*
X22142858Y-47186128D02*
X22428572Y-47186128D01*
X22428572Y-47186128D02*
X22571430Y-47257557D01*
X22571430Y-47257557D02*
X22642858Y-47328985D01*
X22642858Y-47328985D02*
X22714287Y-47471842D01*
X22714287Y-47471842D02*
X22714287Y-47543271D01*
X22714287Y-47543271D02*
X22642858Y-47686128D01*
X22642858Y-47686128D02*
X22571430Y-47757557D01*
X22571430Y-47757557D02*
X22428572Y-47828985D01*
X22428572Y-47828985D02*
X22142858Y-47828985D01*
X22142858Y-47828985D02*
X22000001Y-47900414D01*
X22000001Y-47900414D02*
X21928572Y-47971842D01*
X21928572Y-47971842D02*
X21857144Y-48114700D01*
X21857144Y-48114700D02*
X21857144Y-48400414D01*
X21857144Y-48400414D02*
X21928572Y-48543271D01*
X21928572Y-48543271D02*
X22000001Y-48614700D01*
X22000001Y-48614700D02*
X22142858Y-48686128D01*
X22142858Y-48686128D02*
X22428572Y-48686128D01*
X22428572Y-48686128D02*
X22571430Y-48614700D01*
X22571430Y-48614700D02*
X22642858Y-48543271D01*
X22642858Y-48543271D02*
X22714287Y-48400414D01*
X22714287Y-48400414D02*
X22714287Y-48114700D01*
X22714287Y-48114700D02*
X22642858Y-47971842D01*
X22642858Y-47971842D02*
X22571430Y-47900414D01*
X22571430Y-47900414D02*
X22428572Y-47828985D01*
X23285715Y-47328985D02*
X23357143Y-47257557D01*
X23357143Y-47257557D02*
X23500001Y-47186128D01*
X23500001Y-47186128D02*
X23857143Y-47186128D01*
X23857143Y-47186128D02*
X24000001Y-47257557D01*
X24000001Y-47257557D02*
X24071429Y-47328985D01*
X24071429Y-47328985D02*
X24142858Y-47471842D01*
X24142858Y-47471842D02*
X24142858Y-47614700D01*
X24142858Y-47614700D02*
X24071429Y-47828985D01*
X24071429Y-47828985D02*
X23214286Y-48686128D01*
X23214286Y-48686128D02*
X24142858Y-48686128D01*
X25428572Y-47186128D02*
X25142857Y-47186128D01*
X25142857Y-47186128D02*
X25000000Y-47257557D01*
X25000000Y-47257557D02*
X24928572Y-47328985D01*
X24928572Y-47328985D02*
X24785714Y-47543271D01*
X24785714Y-47543271D02*
X24714286Y-47828985D01*
X24714286Y-47828985D02*
X24714286Y-48400414D01*
X24714286Y-48400414D02*
X24785714Y-48543271D01*
X24785714Y-48543271D02*
X24857143Y-48614700D01*
X24857143Y-48614700D02*
X25000000Y-48686128D01*
X25000000Y-48686128D02*
X25285714Y-48686128D01*
X25285714Y-48686128D02*
X25428572Y-48614700D01*
X25428572Y-48614700D02*
X25500000Y-48543271D01*
X25500000Y-48543271D02*
X25571429Y-48400414D01*
X25571429Y-48400414D02*
X25571429Y-48043271D01*
X25571429Y-48043271D02*
X25500000Y-47900414D01*
X25500000Y-47900414D02*
X25428572Y-47828985D01*
X25428572Y-47828985D02*
X25285714Y-47757557D01*
X25285714Y-47757557D02*
X25000000Y-47757557D01*
X25000000Y-47757557D02*
X24857143Y-47828985D01*
X24857143Y-47828985D02*
X24785714Y-47900414D01*
X24785714Y-47900414D02*
X24714286Y-48043271D01*
X26857143Y-47186128D02*
X26571428Y-47186128D01*
X26571428Y-47186128D02*
X26428571Y-47257557D01*
X26428571Y-47257557D02*
X26357143Y-47328985D01*
X26357143Y-47328985D02*
X26214285Y-47543271D01*
X26214285Y-47543271D02*
X26142857Y-47828985D01*
X26142857Y-47828985D02*
X26142857Y-48400414D01*
X26142857Y-48400414D02*
X26214285Y-48543271D01*
X26214285Y-48543271D02*
X26285714Y-48614700D01*
X26285714Y-48614700D02*
X26428571Y-48686128D01*
X26428571Y-48686128D02*
X26714285Y-48686128D01*
X26714285Y-48686128D02*
X26857143Y-48614700D01*
X26857143Y-48614700D02*
X26928571Y-48543271D01*
X26928571Y-48543271D02*
X27000000Y-48400414D01*
X27000000Y-48400414D02*
X27000000Y-48043271D01*
X27000000Y-48043271D02*
X26928571Y-47900414D01*
X26928571Y-47900414D02*
X26857143Y-47828985D01*
X26857143Y-47828985D02*
X26714285Y-47757557D01*
X26714285Y-47757557D02*
X26428571Y-47757557D01*
X26428571Y-47757557D02*
X26285714Y-47828985D01*
X26285714Y-47828985D02*
X26214285Y-47900414D01*
X26214285Y-47900414D02*
X26142857Y-48043271D01*
X28714285Y-48614700D02*
X28928571Y-48686128D01*
X28928571Y-48686128D02*
X29285713Y-48686128D01*
X29285713Y-48686128D02*
X29428571Y-48614700D01*
X29428571Y-48614700D02*
X29499999Y-48543271D01*
X29499999Y-48543271D02*
X29571428Y-48400414D01*
X29571428Y-48400414D02*
X29571428Y-48257557D01*
X29571428Y-48257557D02*
X29499999Y-48114700D01*
X29499999Y-48114700D02*
X29428571Y-48043271D01*
X29428571Y-48043271D02*
X29285713Y-47971842D01*
X29285713Y-47971842D02*
X28999999Y-47900414D01*
X28999999Y-47900414D02*
X28857142Y-47828985D01*
X28857142Y-47828985D02*
X28785713Y-47757557D01*
X28785713Y-47757557D02*
X28714285Y-47614700D01*
X28714285Y-47614700D02*
X28714285Y-47471842D01*
X28714285Y-47471842D02*
X28785713Y-47328985D01*
X28785713Y-47328985D02*
X28857142Y-47257557D01*
X28857142Y-47257557D02*
X28999999Y-47186128D01*
X28999999Y-47186128D02*
X29357142Y-47186128D01*
X29357142Y-47186128D02*
X29571428Y-47257557D01*
X30785713Y-48614700D02*
X30642856Y-48686128D01*
X30642856Y-48686128D02*
X30357142Y-48686128D01*
X30357142Y-48686128D02*
X30214284Y-48614700D01*
X30214284Y-48614700D02*
X30142856Y-48471842D01*
X30142856Y-48471842D02*
X30142856Y-47900414D01*
X30142856Y-47900414D02*
X30214284Y-47757557D01*
X30214284Y-47757557D02*
X30357142Y-47686128D01*
X30357142Y-47686128D02*
X30642856Y-47686128D01*
X30642856Y-47686128D02*
X30785713Y-47757557D01*
X30785713Y-47757557D02*
X30857142Y-47900414D01*
X30857142Y-47900414D02*
X30857142Y-48043271D01*
X30857142Y-48043271D02*
X30142856Y-48186128D01*
X31499998Y-47686128D02*
X31499998Y-48686128D01*
X31499998Y-47828985D02*
X31571427Y-47757557D01*
X31571427Y-47757557D02*
X31714284Y-47686128D01*
X31714284Y-47686128D02*
X31928570Y-47686128D01*
X31928570Y-47686128D02*
X32071427Y-47757557D01*
X32071427Y-47757557D02*
X32142856Y-47900414D01*
X32142856Y-47900414D02*
X32142856Y-48686128D01*
X32785713Y-48614700D02*
X32928570Y-48686128D01*
X32928570Y-48686128D02*
X33214284Y-48686128D01*
X33214284Y-48686128D02*
X33357141Y-48614700D01*
X33357141Y-48614700D02*
X33428570Y-48471842D01*
X33428570Y-48471842D02*
X33428570Y-48400414D01*
X33428570Y-48400414D02*
X33357141Y-48257557D01*
X33357141Y-48257557D02*
X33214284Y-48186128D01*
X33214284Y-48186128D02*
X32999999Y-48186128D01*
X32999999Y-48186128D02*
X32857141Y-48114700D01*
X32857141Y-48114700D02*
X32785713Y-47971842D01*
X32785713Y-47971842D02*
X32785713Y-47900414D01*
X32785713Y-47900414D02*
X32857141Y-47757557D01*
X32857141Y-47757557D02*
X32999999Y-47686128D01*
X32999999Y-47686128D02*
X33214284Y-47686128D01*
X33214284Y-47686128D02*
X33357141Y-47757557D01*
X34285713Y-48686128D02*
X34142856Y-48614700D01*
X34142856Y-48614700D02*
X34071427Y-48543271D01*
X34071427Y-48543271D02*
X33999999Y-48400414D01*
X33999999Y-48400414D02*
X33999999Y-47971842D01*
X33999999Y-47971842D02*
X34071427Y-47828985D01*
X34071427Y-47828985D02*
X34142856Y-47757557D01*
X34142856Y-47757557D02*
X34285713Y-47686128D01*
X34285713Y-47686128D02*
X34499999Y-47686128D01*
X34499999Y-47686128D02*
X34642856Y-47757557D01*
X34642856Y-47757557D02*
X34714285Y-47828985D01*
X34714285Y-47828985D02*
X34785713Y-47971842D01*
X34785713Y-47971842D02*
X34785713Y-48400414D01*
X34785713Y-48400414D02*
X34714285Y-48543271D01*
X34714285Y-48543271D02*
X34642856Y-48614700D01*
X34642856Y-48614700D02*
X34499999Y-48686128D01*
X34499999Y-48686128D02*
X34285713Y-48686128D01*
X35428570Y-48686128D02*
X35428570Y-47686128D01*
X35428570Y-47971842D02*
X35499999Y-47828985D01*
X35499999Y-47828985D02*
X35571428Y-47757557D01*
X35571428Y-47757557D02*
X35714285Y-47686128D01*
X35714285Y-47686128D02*
X35857142Y-47686128D01*
X37499998Y-48686128D02*
X37499998Y-47186128D01*
X37499998Y-47186128D02*
X38357141Y-48686128D01*
X38357141Y-48686128D02*
X38357141Y-47186128D01*
X39285713Y-48686128D02*
X39142856Y-48614700D01*
X39142856Y-48614700D02*
X39071427Y-48543271D01*
X39071427Y-48543271D02*
X38999999Y-48400414D01*
X38999999Y-48400414D02*
X38999999Y-47971842D01*
X38999999Y-47971842D02*
X39071427Y-47828985D01*
X39071427Y-47828985D02*
X39142856Y-47757557D01*
X39142856Y-47757557D02*
X39285713Y-47686128D01*
X39285713Y-47686128D02*
X39499999Y-47686128D01*
X39499999Y-47686128D02*
X39642856Y-47757557D01*
X39642856Y-47757557D02*
X39714285Y-47828985D01*
X39714285Y-47828985D02*
X39785713Y-47971842D01*
X39785713Y-47971842D02*
X39785713Y-48400414D01*
X39785713Y-48400414D02*
X39714285Y-48543271D01*
X39714285Y-48543271D02*
X39642856Y-48614700D01*
X39642856Y-48614700D02*
X39499999Y-48686128D01*
X39499999Y-48686128D02*
X39285713Y-48686128D01*
X41071428Y-48686128D02*
X41071428Y-47186128D01*
X41071428Y-48614700D02*
X40928570Y-48686128D01*
X40928570Y-48686128D02*
X40642856Y-48686128D01*
X40642856Y-48686128D02*
X40499999Y-48614700D01*
X40499999Y-48614700D02*
X40428570Y-48543271D01*
X40428570Y-48543271D02*
X40357142Y-48400414D01*
X40357142Y-48400414D02*
X40357142Y-47971842D01*
X40357142Y-47971842D02*
X40428570Y-47828985D01*
X40428570Y-47828985D02*
X40499999Y-47757557D01*
X40499999Y-47757557D02*
X40642856Y-47686128D01*
X40642856Y-47686128D02*
X40928570Y-47686128D01*
X40928570Y-47686128D02*
X41071428Y-47757557D01*
X42357142Y-48614700D02*
X42214285Y-48686128D01*
X42214285Y-48686128D02*
X41928571Y-48686128D01*
X41928571Y-48686128D02*
X41785713Y-48614700D01*
X41785713Y-48614700D02*
X41714285Y-48471842D01*
X41714285Y-48471842D02*
X41714285Y-47900414D01*
X41714285Y-47900414D02*
X41785713Y-47757557D01*
X41785713Y-47757557D02*
X41928571Y-47686128D01*
X41928571Y-47686128D02*
X42214285Y-47686128D01*
X42214285Y-47686128D02*
X42357142Y-47757557D01*
X42357142Y-47757557D02*
X42428571Y-47900414D01*
X42428571Y-47900414D02*
X42428571Y-48043271D01*
X42428571Y-48043271D02*
X41714285Y-48186128D01*
X20114287Y-2918771D02*
X20514287Y-2918771D01*
X20685715Y-3547342D02*
X20114287Y-3547342D01*
X20114287Y-3547342D02*
X20114287Y-2347342D01*
X20114287Y-2347342D02*
X20685715Y-2347342D01*
X21142858Y-3490200D02*
X21314287Y-3547342D01*
X21314287Y-3547342D02*
X21600001Y-3547342D01*
X21600001Y-3547342D02*
X21714287Y-3490200D01*
X21714287Y-3490200D02*
X21771429Y-3433057D01*
X21771429Y-3433057D02*
X21828572Y-3318771D01*
X21828572Y-3318771D02*
X21828572Y-3204485D01*
X21828572Y-3204485D02*
X21771429Y-3090200D01*
X21771429Y-3090200D02*
X21714287Y-3033057D01*
X21714287Y-3033057D02*
X21600001Y-2975914D01*
X21600001Y-2975914D02*
X21371429Y-2918771D01*
X21371429Y-2918771D02*
X21257144Y-2861628D01*
X21257144Y-2861628D02*
X21200001Y-2804485D01*
X21200001Y-2804485D02*
X21142858Y-2690200D01*
X21142858Y-2690200D02*
X21142858Y-2575914D01*
X21142858Y-2575914D02*
X21200001Y-2461628D01*
X21200001Y-2461628D02*
X21257144Y-2404485D01*
X21257144Y-2404485D02*
X21371429Y-2347342D01*
X21371429Y-2347342D02*
X21657144Y-2347342D01*
X21657144Y-2347342D02*
X21828572Y-2404485D01*
X22342858Y-3547342D02*
X22342858Y-2347342D01*
X22342858Y-2347342D02*
X22800001Y-2347342D01*
X22800001Y-2347342D02*
X22914286Y-2404485D01*
X22914286Y-2404485D02*
X22971429Y-2461628D01*
X22971429Y-2461628D02*
X23028572Y-2575914D01*
X23028572Y-2575914D02*
X23028572Y-2747342D01*
X23028572Y-2747342D02*
X22971429Y-2861628D01*
X22971429Y-2861628D02*
X22914286Y-2918771D01*
X22914286Y-2918771D02*
X22800001Y-2975914D01*
X22800001Y-2975914D02*
X22342858Y-2975914D01*
X23714286Y-2861628D02*
X23600001Y-2804485D01*
X23600001Y-2804485D02*
X23542858Y-2747342D01*
X23542858Y-2747342D02*
X23485715Y-2633057D01*
X23485715Y-2633057D02*
X23485715Y-2575914D01*
X23485715Y-2575914D02*
X23542858Y-2461628D01*
X23542858Y-2461628D02*
X23600001Y-2404485D01*
X23600001Y-2404485D02*
X23714286Y-2347342D01*
X23714286Y-2347342D02*
X23942858Y-2347342D01*
X23942858Y-2347342D02*
X24057144Y-2404485D01*
X24057144Y-2404485D02*
X24114286Y-2461628D01*
X24114286Y-2461628D02*
X24171429Y-2575914D01*
X24171429Y-2575914D02*
X24171429Y-2633057D01*
X24171429Y-2633057D02*
X24114286Y-2747342D01*
X24114286Y-2747342D02*
X24057144Y-2804485D01*
X24057144Y-2804485D02*
X23942858Y-2861628D01*
X23942858Y-2861628D02*
X23714286Y-2861628D01*
X23714286Y-2861628D02*
X23600001Y-2918771D01*
X23600001Y-2918771D02*
X23542858Y-2975914D01*
X23542858Y-2975914D02*
X23485715Y-3090200D01*
X23485715Y-3090200D02*
X23485715Y-3318771D01*
X23485715Y-3318771D02*
X23542858Y-3433057D01*
X23542858Y-3433057D02*
X23600001Y-3490200D01*
X23600001Y-3490200D02*
X23714286Y-3547342D01*
X23714286Y-3547342D02*
X23942858Y-3547342D01*
X23942858Y-3547342D02*
X24057144Y-3490200D01*
X24057144Y-3490200D02*
X24114286Y-3433057D01*
X24114286Y-3433057D02*
X24171429Y-3318771D01*
X24171429Y-3318771D02*
X24171429Y-3090200D01*
X24171429Y-3090200D02*
X24114286Y-2975914D01*
X24114286Y-2975914D02*
X24057144Y-2918771D01*
X24057144Y-2918771D02*
X23942858Y-2861628D01*
X24628572Y-2461628D02*
X24685715Y-2404485D01*
X24685715Y-2404485D02*
X24800001Y-2347342D01*
X24800001Y-2347342D02*
X25085715Y-2347342D01*
X25085715Y-2347342D02*
X25200001Y-2404485D01*
X25200001Y-2404485D02*
X25257143Y-2461628D01*
X25257143Y-2461628D02*
X25314286Y-2575914D01*
X25314286Y-2575914D02*
X25314286Y-2690200D01*
X25314286Y-2690200D02*
X25257143Y-2861628D01*
X25257143Y-2861628D02*
X24571429Y-3547342D01*
X24571429Y-3547342D02*
X25314286Y-3547342D01*
X26342858Y-2347342D02*
X26114286Y-2347342D01*
X26114286Y-2347342D02*
X26000000Y-2404485D01*
X26000000Y-2404485D02*
X25942858Y-2461628D01*
X25942858Y-2461628D02*
X25828572Y-2633057D01*
X25828572Y-2633057D02*
X25771429Y-2861628D01*
X25771429Y-2861628D02*
X25771429Y-3318771D01*
X25771429Y-3318771D02*
X25828572Y-3433057D01*
X25828572Y-3433057D02*
X25885715Y-3490200D01*
X25885715Y-3490200D02*
X26000000Y-3547342D01*
X26000000Y-3547342D02*
X26228572Y-3547342D01*
X26228572Y-3547342D02*
X26342858Y-3490200D01*
X26342858Y-3490200D02*
X26400000Y-3433057D01*
X26400000Y-3433057D02*
X26457143Y-3318771D01*
X26457143Y-3318771D02*
X26457143Y-3033057D01*
X26457143Y-3033057D02*
X26400000Y-2918771D01*
X26400000Y-2918771D02*
X26342858Y-2861628D01*
X26342858Y-2861628D02*
X26228572Y-2804485D01*
X26228572Y-2804485D02*
X26000000Y-2804485D01*
X26000000Y-2804485D02*
X25885715Y-2861628D01*
X25885715Y-2861628D02*
X25828572Y-2918771D01*
X25828572Y-2918771D02*
X25771429Y-3033057D01*
X27485715Y-2347342D02*
X27257143Y-2347342D01*
X27257143Y-2347342D02*
X27142857Y-2404485D01*
X27142857Y-2404485D02*
X27085715Y-2461628D01*
X27085715Y-2461628D02*
X26971429Y-2633057D01*
X26971429Y-2633057D02*
X26914286Y-2861628D01*
X26914286Y-2861628D02*
X26914286Y-3318771D01*
X26914286Y-3318771D02*
X26971429Y-3433057D01*
X26971429Y-3433057D02*
X27028572Y-3490200D01*
X27028572Y-3490200D02*
X27142857Y-3547342D01*
X27142857Y-3547342D02*
X27371429Y-3547342D01*
X27371429Y-3547342D02*
X27485715Y-3490200D01*
X27485715Y-3490200D02*
X27542857Y-3433057D01*
X27542857Y-3433057D02*
X27600000Y-3318771D01*
X27600000Y-3318771D02*
X27600000Y-3033057D01*
X27600000Y-3033057D02*
X27542857Y-2918771D01*
X27542857Y-2918771D02*
X27485715Y-2861628D01*
X27485715Y-2861628D02*
X27371429Y-2804485D01*
X27371429Y-2804485D02*
X27142857Y-2804485D01*
X27142857Y-2804485D02*
X27028572Y-2861628D01*
X27028572Y-2861628D02*
X26971429Y-2918771D01*
X26971429Y-2918771D02*
X26914286Y-3033057D01*
X28971429Y-3490200D02*
X29142858Y-3547342D01*
X29142858Y-3547342D02*
X29428572Y-3547342D01*
X29428572Y-3547342D02*
X29542858Y-3490200D01*
X29542858Y-3490200D02*
X29600000Y-3433057D01*
X29600000Y-3433057D02*
X29657143Y-3318771D01*
X29657143Y-3318771D02*
X29657143Y-3204485D01*
X29657143Y-3204485D02*
X29600000Y-3090200D01*
X29600000Y-3090200D02*
X29542858Y-3033057D01*
X29542858Y-3033057D02*
X29428572Y-2975914D01*
X29428572Y-2975914D02*
X29200000Y-2918771D01*
X29200000Y-2918771D02*
X29085715Y-2861628D01*
X29085715Y-2861628D02*
X29028572Y-2804485D01*
X29028572Y-2804485D02*
X28971429Y-2690200D01*
X28971429Y-2690200D02*
X28971429Y-2575914D01*
X28971429Y-2575914D02*
X29028572Y-2461628D01*
X29028572Y-2461628D02*
X29085715Y-2404485D01*
X29085715Y-2404485D02*
X29200000Y-2347342D01*
X29200000Y-2347342D02*
X29485715Y-2347342D01*
X29485715Y-2347342D02*
X29657143Y-2404485D01*
X30628572Y-3490200D02*
X30514286Y-3547342D01*
X30514286Y-3547342D02*
X30285715Y-3547342D01*
X30285715Y-3547342D02*
X30171429Y-3490200D01*
X30171429Y-3490200D02*
X30114286Y-3375914D01*
X30114286Y-3375914D02*
X30114286Y-2918771D01*
X30114286Y-2918771D02*
X30171429Y-2804485D01*
X30171429Y-2804485D02*
X30285715Y-2747342D01*
X30285715Y-2747342D02*
X30514286Y-2747342D01*
X30514286Y-2747342D02*
X30628572Y-2804485D01*
X30628572Y-2804485D02*
X30685715Y-2918771D01*
X30685715Y-2918771D02*
X30685715Y-3033057D01*
X30685715Y-3033057D02*
X30114286Y-3147342D01*
X31200000Y-2747342D02*
X31200000Y-3547342D01*
X31200000Y-2861628D02*
X31257143Y-2804485D01*
X31257143Y-2804485D02*
X31371428Y-2747342D01*
X31371428Y-2747342D02*
X31542857Y-2747342D01*
X31542857Y-2747342D02*
X31657143Y-2804485D01*
X31657143Y-2804485D02*
X31714286Y-2918771D01*
X31714286Y-2918771D02*
X31714286Y-3547342D01*
X32228571Y-3490200D02*
X32342857Y-3547342D01*
X32342857Y-3547342D02*
X32571428Y-3547342D01*
X32571428Y-3547342D02*
X32685714Y-3490200D01*
X32685714Y-3490200D02*
X32742857Y-3375914D01*
X32742857Y-3375914D02*
X32742857Y-3318771D01*
X32742857Y-3318771D02*
X32685714Y-3204485D01*
X32685714Y-3204485D02*
X32571428Y-3147342D01*
X32571428Y-3147342D02*
X32400000Y-3147342D01*
X32400000Y-3147342D02*
X32285714Y-3090200D01*
X32285714Y-3090200D02*
X32228571Y-2975914D01*
X32228571Y-2975914D02*
X32228571Y-2918771D01*
X32228571Y-2918771D02*
X32285714Y-2804485D01*
X32285714Y-2804485D02*
X32400000Y-2747342D01*
X32400000Y-2747342D02*
X32571428Y-2747342D01*
X32571428Y-2747342D02*
X32685714Y-2804485D01*
X33428571Y-3547342D02*
X33314286Y-3490200D01*
X33314286Y-3490200D02*
X33257143Y-3433057D01*
X33257143Y-3433057D02*
X33200000Y-3318771D01*
X33200000Y-3318771D02*
X33200000Y-2975914D01*
X33200000Y-2975914D02*
X33257143Y-2861628D01*
X33257143Y-2861628D02*
X33314286Y-2804485D01*
X33314286Y-2804485D02*
X33428571Y-2747342D01*
X33428571Y-2747342D02*
X33600000Y-2747342D01*
X33600000Y-2747342D02*
X33714286Y-2804485D01*
X33714286Y-2804485D02*
X33771429Y-2861628D01*
X33771429Y-2861628D02*
X33828571Y-2975914D01*
X33828571Y-2975914D02*
X33828571Y-3318771D01*
X33828571Y-3318771D02*
X33771429Y-3433057D01*
X33771429Y-3433057D02*
X33714286Y-3490200D01*
X33714286Y-3490200D02*
X33600000Y-3547342D01*
X33600000Y-3547342D02*
X33428571Y-3547342D01*
X34342857Y-3547342D02*
X34342857Y-2747342D01*
X34342857Y-2975914D02*
X34400000Y-2861628D01*
X34400000Y-2861628D02*
X34457143Y-2804485D01*
X34457143Y-2804485D02*
X34571428Y-2747342D01*
X34571428Y-2747342D02*
X34685714Y-2747342D01*
X36000000Y-3547342D02*
X36000000Y-2347342D01*
X36000000Y-2347342D02*
X36685714Y-3547342D01*
X36685714Y-3547342D02*
X36685714Y-2347342D01*
X37428571Y-3547342D02*
X37314286Y-3490200D01*
X37314286Y-3490200D02*
X37257143Y-3433057D01*
X37257143Y-3433057D02*
X37200000Y-3318771D01*
X37200000Y-3318771D02*
X37200000Y-2975914D01*
X37200000Y-2975914D02*
X37257143Y-2861628D01*
X37257143Y-2861628D02*
X37314286Y-2804485D01*
X37314286Y-2804485D02*
X37428571Y-2747342D01*
X37428571Y-2747342D02*
X37600000Y-2747342D01*
X37600000Y-2747342D02*
X37714286Y-2804485D01*
X37714286Y-2804485D02*
X37771429Y-2861628D01*
X37771429Y-2861628D02*
X37828571Y-2975914D01*
X37828571Y-2975914D02*
X37828571Y-3318771D01*
X37828571Y-3318771D02*
X37771429Y-3433057D01*
X37771429Y-3433057D02*
X37714286Y-3490200D01*
X37714286Y-3490200D02*
X37600000Y-3547342D01*
X37600000Y-3547342D02*
X37428571Y-3547342D01*
X38857143Y-3547342D02*
X38857143Y-2347342D01*
X38857143Y-3490200D02*
X38742857Y-3547342D01*
X38742857Y-3547342D02*
X38514285Y-3547342D01*
X38514285Y-3547342D02*
X38400000Y-3490200D01*
X38400000Y-3490200D02*
X38342857Y-3433057D01*
X38342857Y-3433057D02*
X38285714Y-3318771D01*
X38285714Y-3318771D02*
X38285714Y-2975914D01*
X38285714Y-2975914D02*
X38342857Y-2861628D01*
X38342857Y-2861628D02*
X38400000Y-2804485D01*
X38400000Y-2804485D02*
X38514285Y-2747342D01*
X38514285Y-2747342D02*
X38742857Y-2747342D01*
X38742857Y-2747342D02*
X38857143Y-2804485D01*
X39885714Y-3490200D02*
X39771428Y-3547342D01*
X39771428Y-3547342D02*
X39542857Y-3547342D01*
X39542857Y-3547342D02*
X39428571Y-3490200D01*
X39428571Y-3490200D02*
X39371428Y-3375914D01*
X39371428Y-3375914D02*
X39371428Y-2918771D01*
X39371428Y-2918771D02*
X39428571Y-2804485D01*
X39428571Y-2804485D02*
X39542857Y-2747342D01*
X39542857Y-2747342D02*
X39771428Y-2747342D01*
X39771428Y-2747342D02*
X39885714Y-2804485D01*
X39885714Y-2804485D02*
X39942857Y-2918771D01*
X39942857Y-2918771D02*
X39942857Y-3033057D01*
X39942857Y-3033057D02*
X39371428Y-3147342D01*
X23980951Y-43862295D02*
X23980951Y-43062295D01*
X23980951Y-43062295D02*
X24285713Y-43062295D01*
X24285713Y-43062295D02*
X24361903Y-43100390D01*
X24361903Y-43100390D02*
X24399998Y-43138485D01*
X24399998Y-43138485D02*
X24438094Y-43214676D01*
X24438094Y-43214676D02*
X24438094Y-43328961D01*
X24438094Y-43328961D02*
X24399998Y-43405152D01*
X24399998Y-43405152D02*
X24361903Y-43443247D01*
X24361903Y-43443247D02*
X24285713Y-43481342D01*
X24285713Y-43481342D02*
X23980951Y-43481342D01*
X25123808Y-43328961D02*
X25123808Y-43862295D01*
X24780951Y-43328961D02*
X24780951Y-43748009D01*
X24780951Y-43748009D02*
X24819046Y-43824200D01*
X24819046Y-43824200D02*
X24895236Y-43862295D01*
X24895236Y-43862295D02*
X25009522Y-43862295D01*
X25009522Y-43862295D02*
X25085713Y-43824200D01*
X25085713Y-43824200D02*
X25123808Y-43786104D01*
X25619046Y-43862295D02*
X25542856Y-43824200D01*
X25542856Y-43824200D02*
X25504761Y-43748009D01*
X25504761Y-43748009D02*
X25504761Y-43062295D01*
X25885713Y-43824200D02*
X25961904Y-43862295D01*
X25961904Y-43862295D02*
X26114285Y-43862295D01*
X26114285Y-43862295D02*
X26190475Y-43824200D01*
X26190475Y-43824200D02*
X26228571Y-43748009D01*
X26228571Y-43748009D02*
X26228571Y-43709914D01*
X26228571Y-43709914D02*
X26190475Y-43633723D01*
X26190475Y-43633723D02*
X26114285Y-43595628D01*
X26114285Y-43595628D02*
X25999999Y-43595628D01*
X25999999Y-43595628D02*
X25923809Y-43557533D01*
X25923809Y-43557533D02*
X25885713Y-43481342D01*
X25885713Y-43481342D02*
X25885713Y-43443247D01*
X25885713Y-43443247D02*
X25923809Y-43367057D01*
X25923809Y-43367057D02*
X25999999Y-43328961D01*
X25999999Y-43328961D02*
X26114285Y-43328961D01*
X26114285Y-43328961D02*
X26190475Y-43367057D01*
X26876190Y-43824200D02*
X26799999Y-43862295D01*
X26799999Y-43862295D02*
X26647618Y-43862295D01*
X26647618Y-43862295D02*
X26571428Y-43824200D01*
X26571428Y-43824200D02*
X26533332Y-43748009D01*
X26533332Y-43748009D02*
X26533332Y-43443247D01*
X26533332Y-43443247D02*
X26571428Y-43367057D01*
X26571428Y-43367057D02*
X26647618Y-43328961D01*
X26647618Y-43328961D02*
X26799999Y-43328961D01*
X26799999Y-43328961D02*
X26876190Y-43367057D01*
X26876190Y-43367057D02*
X26914285Y-43443247D01*
X26914285Y-43443247D02*
X26914285Y-43519438D01*
X26914285Y-43519438D02*
X26533332Y-43595628D01*
X27638094Y-43862295D02*
X27257142Y-43862295D01*
X27257142Y-43862295D02*
X27257142Y-43062295D01*
X28247618Y-43862295D02*
X28247618Y-43443247D01*
X28247618Y-43443247D02*
X28209523Y-43367057D01*
X28209523Y-43367057D02*
X28133332Y-43328961D01*
X28133332Y-43328961D02*
X27980951Y-43328961D01*
X27980951Y-43328961D02*
X27904761Y-43367057D01*
X28247618Y-43824200D02*
X28171427Y-43862295D01*
X28171427Y-43862295D02*
X27980951Y-43862295D01*
X27980951Y-43862295D02*
X27904761Y-43824200D01*
X27904761Y-43824200D02*
X27866665Y-43748009D01*
X27866665Y-43748009D02*
X27866665Y-43671819D01*
X27866665Y-43671819D02*
X27904761Y-43595628D01*
X27904761Y-43595628D02*
X27980951Y-43557533D01*
X27980951Y-43557533D02*
X28171427Y-43557533D01*
X28171427Y-43557533D02*
X28247618Y-43519438D01*
X28628571Y-43862295D02*
X28628571Y-43062295D01*
X28628571Y-43367057D02*
X28704761Y-43328961D01*
X28704761Y-43328961D02*
X28857142Y-43328961D01*
X28857142Y-43328961D02*
X28933333Y-43367057D01*
X28933333Y-43367057D02*
X28971428Y-43405152D01*
X28971428Y-43405152D02*
X29009523Y-43481342D01*
X29009523Y-43481342D02*
X29009523Y-43709914D01*
X29009523Y-43709914D02*
X28971428Y-43786104D01*
X28971428Y-43786104D02*
X28933333Y-43824200D01*
X28933333Y-43824200D02*
X28857142Y-43862295D01*
X28857142Y-43862295D02*
X28704761Y-43862295D01*
X28704761Y-43862295D02*
X28628571Y-43824200D01*
X30228571Y-43443247D02*
X29961905Y-43443247D01*
X29961905Y-43862295D02*
X29961905Y-43062295D01*
X29961905Y-43062295D02*
X30342857Y-43062295D01*
X30761904Y-43862295D02*
X30685714Y-43824200D01*
X30685714Y-43824200D02*
X30647619Y-43786104D01*
X30647619Y-43786104D02*
X30609523Y-43709914D01*
X30609523Y-43709914D02*
X30609523Y-43481342D01*
X30609523Y-43481342D02*
X30647619Y-43405152D01*
X30647619Y-43405152D02*
X30685714Y-43367057D01*
X30685714Y-43367057D02*
X30761904Y-43328961D01*
X30761904Y-43328961D02*
X30876190Y-43328961D01*
X30876190Y-43328961D02*
X30952381Y-43367057D01*
X30952381Y-43367057D02*
X30990476Y-43405152D01*
X30990476Y-43405152D02*
X31028571Y-43481342D01*
X31028571Y-43481342D02*
X31028571Y-43709914D01*
X31028571Y-43709914D02*
X30990476Y-43786104D01*
X30990476Y-43786104D02*
X30952381Y-43824200D01*
X30952381Y-43824200D02*
X30876190Y-43862295D01*
X30876190Y-43862295D02*
X30761904Y-43862295D01*
X31371429Y-43862295D02*
X31371429Y-43328961D01*
X31371429Y-43481342D02*
X31409524Y-43405152D01*
X31409524Y-43405152D02*
X31447619Y-43367057D01*
X31447619Y-43367057D02*
X31523810Y-43328961D01*
X31523810Y-43328961D02*
X31600000Y-43328961D01*
X32209524Y-43328961D02*
X32209524Y-43976580D01*
X32209524Y-43976580D02*
X32171429Y-44052771D01*
X32171429Y-44052771D02*
X32133333Y-44090866D01*
X32133333Y-44090866D02*
X32057143Y-44128961D01*
X32057143Y-44128961D02*
X31942857Y-44128961D01*
X31942857Y-44128961D02*
X31866667Y-44090866D01*
X32209524Y-43824200D02*
X32133333Y-43862295D01*
X32133333Y-43862295D02*
X31980952Y-43862295D01*
X31980952Y-43862295D02*
X31904762Y-43824200D01*
X31904762Y-43824200D02*
X31866667Y-43786104D01*
X31866667Y-43786104D02*
X31828571Y-43709914D01*
X31828571Y-43709914D02*
X31828571Y-43481342D01*
X31828571Y-43481342D02*
X31866667Y-43405152D01*
X31866667Y-43405152D02*
X31904762Y-43367057D01*
X31904762Y-43367057D02*
X31980952Y-43328961D01*
X31980952Y-43328961D02*
X32133333Y-43328961D01*
X32133333Y-43328961D02*
X32209524Y-43367057D01*
X32895239Y-43824200D02*
X32819048Y-43862295D01*
X32819048Y-43862295D02*
X32666667Y-43862295D01*
X32666667Y-43862295D02*
X32590477Y-43824200D01*
X32590477Y-43824200D02*
X32552381Y-43748009D01*
X32552381Y-43748009D02*
X32552381Y-43443247D01*
X32552381Y-43443247D02*
X32590477Y-43367057D01*
X32590477Y-43367057D02*
X32666667Y-43328961D01*
X32666667Y-43328961D02*
X32819048Y-43328961D01*
X32819048Y-43328961D02*
X32895239Y-43367057D01*
X32895239Y-43367057D02*
X32933334Y-43443247D01*
X32933334Y-43443247D02*
X32933334Y-43519438D01*
X32933334Y-43519438D02*
X32552381Y-43595628D01*
X33809524Y-43328961D02*
X34000000Y-43862295D01*
X34000000Y-43862295D02*
X34190477Y-43328961D01*
X34914286Y-43862295D02*
X34457143Y-43862295D01*
X34685715Y-43862295D02*
X34685715Y-43062295D01*
X34685715Y-43062295D02*
X34609524Y-43176580D01*
X34609524Y-43176580D02*
X34533334Y-43252771D01*
X34533334Y-43252771D02*
X34457143Y-43290866D01*
X35257144Y-43786104D02*
X35295239Y-43824200D01*
X35295239Y-43824200D02*
X35257144Y-43862295D01*
X35257144Y-43862295D02*
X35219048Y-43824200D01*
X35219048Y-43824200D02*
X35257144Y-43786104D01*
X35257144Y-43786104D02*
X35257144Y-43862295D01*
X35790477Y-43062295D02*
X35866667Y-43062295D01*
X35866667Y-43062295D02*
X35942858Y-43100390D01*
X35942858Y-43100390D02*
X35980953Y-43138485D01*
X35980953Y-43138485D02*
X36019048Y-43214676D01*
X36019048Y-43214676D02*
X36057143Y-43367057D01*
X36057143Y-43367057D02*
X36057143Y-43557533D01*
X36057143Y-43557533D02*
X36019048Y-43709914D01*
X36019048Y-43709914D02*
X35980953Y-43786104D01*
X35980953Y-43786104D02*
X35942858Y-43824200D01*
X35942858Y-43824200D02*
X35866667Y-43862295D01*
X35866667Y-43862295D02*
X35790477Y-43862295D01*
X35790477Y-43862295D02*
X35714286Y-43824200D01*
X35714286Y-43824200D02*
X35676191Y-43786104D01*
X35676191Y-43786104D02*
X35638096Y-43709914D01*
X35638096Y-43709914D02*
X35600000Y-43557533D01*
X35600000Y-43557533D02*
X35600000Y-43367057D01*
X35600000Y-43367057D02*
X35638096Y-43214676D01*
X35638096Y-43214676D02*
X35676191Y-43138485D01*
X35676191Y-43138485D02*
X35714286Y-43100390D01*
X35714286Y-43100390D02*
X35790477Y-43062295D01*
X19133333Y-4616033D02*
X19566666Y-4616033D01*
X19566666Y-4616033D02*
X19333333Y-4882700D01*
X19333333Y-4882700D02*
X19433333Y-4882700D01*
X19433333Y-4882700D02*
X19499999Y-4916033D01*
X19499999Y-4916033D02*
X19533333Y-4949366D01*
X19533333Y-4949366D02*
X19566666Y-5016033D01*
X19566666Y-5016033D02*
X19566666Y-5182700D01*
X19566666Y-5182700D02*
X19533333Y-5249366D01*
X19533333Y-5249366D02*
X19499999Y-5282700D01*
X19499999Y-5282700D02*
X19433333Y-5316033D01*
X19433333Y-5316033D02*
X19233333Y-5316033D01*
X19233333Y-5316033D02*
X19166666Y-5282700D01*
X19166666Y-5282700D02*
X19133333Y-5249366D01*
X19766666Y-4616033D02*
X20000000Y-5316033D01*
X20000000Y-5316033D02*
X20233333Y-4616033D01*
X20400000Y-4616033D02*
X20833333Y-4616033D01*
X20833333Y-4616033D02*
X20600000Y-4882700D01*
X20600000Y-4882700D02*
X20700000Y-4882700D01*
X20700000Y-4882700D02*
X20766666Y-4916033D01*
X20766666Y-4916033D02*
X20800000Y-4949366D01*
X20800000Y-4949366D02*
X20833333Y-5016033D01*
X20833333Y-5016033D02*
X20833333Y-5182700D01*
X20833333Y-5182700D02*
X20800000Y-5249366D01*
X20800000Y-5249366D02*
X20766666Y-5282700D01*
X20766666Y-5282700D02*
X20700000Y-5316033D01*
X20700000Y-5316033D02*
X20500000Y-5316033D01*
X20500000Y-5316033D02*
X20433333Y-5282700D01*
X20433333Y-5282700D02*
X20400000Y-5249366D01*
X32466667Y-37149366D02*
X32400000Y-37116033D01*
X32400000Y-37116033D02*
X32300000Y-37116033D01*
X32300000Y-37116033D02*
X32200000Y-37149366D01*
X32200000Y-37149366D02*
X32133334Y-37216033D01*
X32133334Y-37216033D02*
X32100000Y-37282700D01*
X32100000Y-37282700D02*
X32066667Y-37416033D01*
X32066667Y-37416033D02*
X32066667Y-37516033D01*
X32066667Y-37516033D02*
X32100000Y-37649366D01*
X32100000Y-37649366D02*
X32133334Y-37716033D01*
X32133334Y-37716033D02*
X32200000Y-37782700D01*
X32200000Y-37782700D02*
X32300000Y-37816033D01*
X32300000Y-37816033D02*
X32366667Y-37816033D01*
X32366667Y-37816033D02*
X32466667Y-37782700D01*
X32466667Y-37782700D02*
X32500000Y-37749366D01*
X32500000Y-37749366D02*
X32500000Y-37516033D01*
X32500000Y-37516033D02*
X32366667Y-37516033D01*
X32800000Y-37816033D02*
X32800000Y-37116033D01*
X32800000Y-37116033D02*
X33200000Y-37816033D01*
X33200000Y-37816033D02*
X33200000Y-37116033D01*
X33533333Y-37816033D02*
X33533333Y-37116033D01*
X33533333Y-37116033D02*
X33700000Y-37116033D01*
X33700000Y-37116033D02*
X33800000Y-37149366D01*
X33800000Y-37149366D02*
X33866667Y-37216033D01*
X33866667Y-37216033D02*
X33900000Y-37282700D01*
X33900000Y-37282700D02*
X33933333Y-37416033D01*
X33933333Y-37416033D02*
X33933333Y-37516033D01*
X33933333Y-37516033D02*
X33900000Y-37649366D01*
X33900000Y-37649366D02*
X33866667Y-37716033D01*
X33866667Y-37716033D02*
X33800000Y-37782700D01*
X33800000Y-37782700D02*
X33700000Y-37816033D01*
X33700000Y-37816033D02*
X33533333Y-37816033D01*
X11066666Y-8816033D02*
X11066666Y-8116033D01*
X11066666Y-8116033D02*
X11333333Y-8116033D01*
X11333333Y-8116033D02*
X11400000Y-8149366D01*
X11400000Y-8149366D02*
X11433333Y-8182700D01*
X11433333Y-8182700D02*
X11466666Y-8249366D01*
X11466666Y-8249366D02*
X11466666Y-8349366D01*
X11466666Y-8349366D02*
X11433333Y-8416033D01*
X11433333Y-8416033D02*
X11400000Y-8449366D01*
X11400000Y-8449366D02*
X11333333Y-8482700D01*
X11333333Y-8482700D02*
X11066666Y-8482700D01*
X11700000Y-8116033D02*
X11866666Y-8816033D01*
X11866666Y-8816033D02*
X12000000Y-8316033D01*
X12000000Y-8316033D02*
X12133333Y-8816033D01*
X12133333Y-8816033D02*
X12300000Y-8116033D01*
X12966666Y-8816033D02*
X12733333Y-8482700D01*
X12566666Y-8816033D02*
X12566666Y-8116033D01*
X12566666Y-8116033D02*
X12833333Y-8116033D01*
X12833333Y-8116033D02*
X12900000Y-8149366D01*
X12900000Y-8149366D02*
X12933333Y-8182700D01*
X12933333Y-8182700D02*
X12966666Y-8249366D01*
X12966666Y-8249366D02*
X12966666Y-8349366D01*
X12966666Y-8349366D02*
X12933333Y-8416033D01*
X12933333Y-8416033D02*
X12900000Y-8449366D01*
X12900000Y-8449366D02*
X12833333Y-8482700D01*
X12833333Y-8482700D02*
X12566666Y-8482700D01*
X32050000Y-6316033D02*
X32050000Y-5616033D01*
X32050000Y-5616033D02*
X32283334Y-6116033D01*
X32283334Y-6116033D02*
X32516667Y-5616033D01*
X32516667Y-5616033D02*
X32516667Y-6316033D01*
X33250000Y-6249366D02*
X33216667Y-6282700D01*
X33216667Y-6282700D02*
X33116667Y-6316033D01*
X33116667Y-6316033D02*
X33050000Y-6316033D01*
X33050000Y-6316033D02*
X32950000Y-6282700D01*
X32950000Y-6282700D02*
X32883334Y-6216033D01*
X32883334Y-6216033D02*
X32850000Y-6149366D01*
X32850000Y-6149366D02*
X32816667Y-6016033D01*
X32816667Y-6016033D02*
X32816667Y-5916033D01*
X32816667Y-5916033D02*
X32850000Y-5782700D01*
X32850000Y-5782700D02*
X32883334Y-5716033D01*
X32883334Y-5716033D02*
X32950000Y-5649366D01*
X32950000Y-5649366D02*
X33050000Y-5616033D01*
X33050000Y-5616033D02*
X33116667Y-5616033D01*
X33116667Y-5616033D02*
X33216667Y-5649366D01*
X33216667Y-5649366D02*
X33250000Y-5682700D01*
X33550000Y-5616033D02*
X33550000Y-6182700D01*
X33550000Y-6182700D02*
X33583334Y-6249366D01*
X33583334Y-6249366D02*
X33616667Y-6282700D01*
X33616667Y-6282700D02*
X33683334Y-6316033D01*
X33683334Y-6316033D02*
X33816667Y-6316033D01*
X33816667Y-6316033D02*
X33883334Y-6282700D01*
X33883334Y-6282700D02*
X33916667Y-6249366D01*
X33916667Y-6249366D02*
X33950000Y-6182700D01*
X33950000Y-6182700D02*
X33950000Y-5616033D01*
X52633333Y-6316033D02*
X52633333Y-5616033D01*
X53100000Y-5616033D02*
X53233333Y-5616033D01*
X53233333Y-5616033D02*
X53300000Y-5649366D01*
X53300000Y-5649366D02*
X53366666Y-5716033D01*
X53366666Y-5716033D02*
X53400000Y-5849366D01*
X53400000Y-5849366D02*
X53400000Y-6082700D01*
X53400000Y-6082700D02*
X53366666Y-6216033D01*
X53366666Y-6216033D02*
X53300000Y-6282700D01*
X53300000Y-6282700D02*
X53233333Y-6316033D01*
X53233333Y-6316033D02*
X53100000Y-6316033D01*
X53100000Y-6316033D02*
X53033333Y-6282700D01*
X53033333Y-6282700D02*
X52966666Y-6216033D01*
X52966666Y-6216033D02*
X52933333Y-6082700D01*
X52933333Y-6082700D02*
X52933333Y-5849366D01*
X52933333Y-5849366D02*
X52966666Y-5716033D01*
X52966666Y-5716033D02*
X53033333Y-5649366D01*
X53033333Y-5649366D02*
X53100000Y-5616033D01*
X5166666Y-8954819D02*
X5166666Y-9669104D01*
X5166666Y-9669104D02*
X5119047Y-9811961D01*
X5119047Y-9811961D02*
X5023809Y-9907200D01*
X5023809Y-9907200D02*
X4880952Y-9954819D01*
X4880952Y-9954819D02*
X4785714Y-9954819D01*
X6166666Y-9954819D02*
X5595238Y-9954819D01*
X5880952Y-9954819D02*
X5880952Y-8954819D01*
X5880952Y-8954819D02*
X5785714Y-9097676D01*
X5785714Y-9097676D02*
X5690476Y-9192914D01*
X5690476Y-9192914D02*
X5595238Y-9240533D01*
X14238095Y-8954819D02*
X14238095Y-9764342D01*
X14238095Y-9764342D02*
X14285714Y-9859580D01*
X14285714Y-9859580D02*
X14333333Y-9907200D01*
X14333333Y-9907200D02*
X14428571Y-9954819D01*
X14428571Y-9954819D02*
X14619047Y-9954819D01*
X14619047Y-9954819D02*
X14714285Y-9907200D01*
X14714285Y-9907200D02*
X14761904Y-9859580D01*
X14761904Y-9859580D02*
X14809523Y-9764342D01*
X14809523Y-9764342D02*
X14809523Y-8954819D01*
X15809523Y-9954819D02*
X15238095Y-9954819D01*
X15523809Y-9954819D02*
X15523809Y-8954819D01*
X15523809Y-8954819D02*
X15428571Y-9097676D01*
X15428571Y-9097676D02*
X15333333Y-9192914D01*
X15333333Y-9192914D02*
X15238095Y-9240533D01*
X9833333Y-15859580D02*
X9785714Y-15907200D01*
X9785714Y-15907200D02*
X9642857Y-15954819D01*
X9642857Y-15954819D02*
X9547619Y-15954819D01*
X9547619Y-15954819D02*
X9404762Y-15907200D01*
X9404762Y-15907200D02*
X9309524Y-15811961D01*
X9309524Y-15811961D02*
X9261905Y-15716723D01*
X9261905Y-15716723D02*
X9214286Y-15526247D01*
X9214286Y-15526247D02*
X9214286Y-15383390D01*
X9214286Y-15383390D02*
X9261905Y-15192914D01*
X9261905Y-15192914D02*
X9309524Y-15097676D01*
X9309524Y-15097676D02*
X9404762Y-15002438D01*
X9404762Y-15002438D02*
X9547619Y-14954819D01*
X9547619Y-14954819D02*
X9642857Y-14954819D01*
X9642857Y-14954819D02*
X9785714Y-15002438D01*
X9785714Y-15002438D02*
X9833333Y-15050057D01*
X10785714Y-15954819D02*
X10214286Y-15954819D01*
X10500000Y-15954819D02*
X10500000Y-14954819D01*
X10500000Y-14954819D02*
X10404762Y-15097676D01*
X10404762Y-15097676D02*
X10309524Y-15192914D01*
X10309524Y-15192914D02*
X10214286Y-15240533D01*
X19833333Y-15859580D02*
X19785714Y-15907200D01*
X19785714Y-15907200D02*
X19642857Y-15954819D01*
X19642857Y-15954819D02*
X19547619Y-15954819D01*
X19547619Y-15954819D02*
X19404762Y-15907200D01*
X19404762Y-15907200D02*
X19309524Y-15811961D01*
X19309524Y-15811961D02*
X19261905Y-15716723D01*
X19261905Y-15716723D02*
X19214286Y-15526247D01*
X19214286Y-15526247D02*
X19214286Y-15383390D01*
X19214286Y-15383390D02*
X19261905Y-15192914D01*
X19261905Y-15192914D02*
X19309524Y-15097676D01*
X19309524Y-15097676D02*
X19404762Y-15002438D01*
X19404762Y-15002438D02*
X19547619Y-14954819D01*
X19547619Y-14954819D02*
X19642857Y-14954819D01*
X19642857Y-14954819D02*
X19785714Y-15002438D01*
X19785714Y-15002438D02*
X19833333Y-15050057D01*
X20214286Y-15050057D02*
X20261905Y-15002438D01*
X20261905Y-15002438D02*
X20357143Y-14954819D01*
X20357143Y-14954819D02*
X20595238Y-14954819D01*
X20595238Y-14954819D02*
X20690476Y-15002438D01*
X20690476Y-15002438D02*
X20738095Y-15050057D01*
X20738095Y-15050057D02*
X20785714Y-15145295D01*
X20785714Y-15145295D02*
X20785714Y-15240533D01*
X20785714Y-15240533D02*
X20738095Y-15383390D01*
X20738095Y-15383390D02*
X20166667Y-15954819D01*
X20166667Y-15954819D02*
X20785714Y-15954819D01*
X32238095Y-14954819D02*
X32238095Y-15764342D01*
X32238095Y-15764342D02*
X32285714Y-15859580D01*
X32285714Y-15859580D02*
X32333333Y-15907200D01*
X32333333Y-15907200D02*
X32428571Y-15954819D01*
X32428571Y-15954819D02*
X32619047Y-15954819D01*
X32619047Y-15954819D02*
X32714285Y-15907200D01*
X32714285Y-15907200D02*
X32761904Y-15859580D01*
X32761904Y-15859580D02*
X32809523Y-15764342D01*
X32809523Y-15764342D02*
X32809523Y-14954819D01*
X33238095Y-15050057D02*
X33285714Y-15002438D01*
X33285714Y-15002438D02*
X33380952Y-14954819D01*
X33380952Y-14954819D02*
X33619047Y-14954819D01*
X33619047Y-14954819D02*
X33714285Y-15002438D01*
X33714285Y-15002438D02*
X33761904Y-15050057D01*
X33761904Y-15050057D02*
X33809523Y-15145295D01*
X33809523Y-15145295D02*
X33809523Y-15240533D01*
X33809523Y-15240533D02*
X33761904Y-15383390D01*
X33761904Y-15383390D02*
X33190476Y-15954819D01*
X33190476Y-15954819D02*
X33809523Y-15954819D01*
X24833333Y-5859580D02*
X24785714Y-5907200D01*
X24785714Y-5907200D02*
X24642857Y-5954819D01*
X24642857Y-5954819D02*
X24547619Y-5954819D01*
X24547619Y-5954819D02*
X24404762Y-5907200D01*
X24404762Y-5907200D02*
X24309524Y-5811961D01*
X24309524Y-5811961D02*
X24261905Y-5716723D01*
X24261905Y-5716723D02*
X24214286Y-5526247D01*
X24214286Y-5526247D02*
X24214286Y-5383390D01*
X24214286Y-5383390D02*
X24261905Y-5192914D01*
X24261905Y-5192914D02*
X24309524Y-5097676D01*
X24309524Y-5097676D02*
X24404762Y-5002438D01*
X24404762Y-5002438D02*
X24547619Y-4954819D01*
X24547619Y-4954819D02*
X24642857Y-4954819D01*
X24642857Y-4954819D02*
X24785714Y-5002438D01*
X24785714Y-5002438D02*
X24833333Y-5050057D01*
X25166667Y-4954819D02*
X25785714Y-4954819D01*
X25785714Y-4954819D02*
X25452381Y-5335771D01*
X25452381Y-5335771D02*
X25595238Y-5335771D01*
X25595238Y-5335771D02*
X25690476Y-5383390D01*
X25690476Y-5383390D02*
X25738095Y-5431009D01*
X25738095Y-5431009D02*
X25785714Y-5526247D01*
X25785714Y-5526247D02*
X25785714Y-5764342D01*
X25785714Y-5764342D02*
X25738095Y-5859580D01*
X25738095Y-5859580D02*
X25690476Y-5907200D01*
X25690476Y-5907200D02*
X25595238Y-5954819D01*
X25595238Y-5954819D02*
X25309524Y-5954819D01*
X25309524Y-5954819D02*
X25214286Y-5907200D01*
X25214286Y-5907200D02*
X25166667Y-5859580D01*
X40833333Y-5859580D02*
X40785714Y-5907200D01*
X40785714Y-5907200D02*
X40642857Y-5954819D01*
X40642857Y-5954819D02*
X40547619Y-5954819D01*
X40547619Y-5954819D02*
X40404762Y-5907200D01*
X40404762Y-5907200D02*
X40309524Y-5811961D01*
X40309524Y-5811961D02*
X40261905Y-5716723D01*
X40261905Y-5716723D02*
X40214286Y-5526247D01*
X40214286Y-5526247D02*
X40214286Y-5383390D01*
X40214286Y-5383390D02*
X40261905Y-5192914D01*
X40261905Y-5192914D02*
X40309524Y-5097676D01*
X40309524Y-5097676D02*
X40404762Y-5002438D01*
X40404762Y-5002438D02*
X40547619Y-4954819D01*
X40547619Y-4954819D02*
X40642857Y-4954819D01*
X40642857Y-4954819D02*
X40785714Y-5002438D01*
X40785714Y-5002438D02*
X40833333Y-5050057D01*
X41690476Y-5288152D02*
X41690476Y-5954819D01*
X41452381Y-4907200D02*
X41214286Y-5621485D01*
X41214286Y-5621485D02*
X41833333Y-5621485D01*
X24833333Y-27954819D02*
X24500000Y-27478628D01*
X24261905Y-27954819D02*
X24261905Y-26954819D01*
X24261905Y-26954819D02*
X24642857Y-26954819D01*
X24642857Y-26954819D02*
X24738095Y-27002438D01*
X24738095Y-27002438D02*
X24785714Y-27050057D01*
X24785714Y-27050057D02*
X24833333Y-27145295D01*
X24833333Y-27145295D02*
X24833333Y-27288152D01*
X24833333Y-27288152D02*
X24785714Y-27383390D01*
X24785714Y-27383390D02*
X24738095Y-27431009D01*
X24738095Y-27431009D02*
X24642857Y-27478628D01*
X24642857Y-27478628D02*
X24261905Y-27478628D01*
X25785714Y-27954819D02*
X25214286Y-27954819D01*
X25500000Y-27954819D02*
X25500000Y-26954819D01*
X25500000Y-26954819D02*
X25404762Y-27097676D01*
X25404762Y-27097676D02*
X25309524Y-27192914D01*
X25309524Y-27192914D02*
X25214286Y-27240533D01*
X32833333Y-27954819D02*
X32500000Y-27478628D01*
X32261905Y-27954819D02*
X32261905Y-26954819D01*
X32261905Y-26954819D02*
X32642857Y-26954819D01*
X32642857Y-26954819D02*
X32738095Y-27002438D01*
X32738095Y-27002438D02*
X32785714Y-27050057D01*
X32785714Y-27050057D02*
X32833333Y-27145295D01*
X32833333Y-27145295D02*
X32833333Y-27288152D01*
X32833333Y-27288152D02*
X32785714Y-27383390D01*
X32785714Y-27383390D02*
X32738095Y-27431009D01*
X32738095Y-27431009D02*
X32642857Y-27478628D01*
X32642857Y-27478628D02*
X32261905Y-27478628D01*
X33214286Y-27050057D02*
X33261905Y-27002438D01*
X33261905Y-27002438D02*
X33357143Y-26954819D01*
X33357143Y-26954819D02*
X33595238Y-26954819D01*
X33595238Y-26954819D02*
X33690476Y-27002438D01*
X33690476Y-27002438D02*
X33738095Y-27050057D01*
X33738095Y-27050057D02*
X33785714Y-27145295D01*
X33785714Y-27145295D02*
X33785714Y-27240533D01*
X33785714Y-27240533D02*
X33738095Y-27383390D01*
X33738095Y-27383390D02*
X33166667Y-27954819D01*
X33166667Y-27954819D02*
X33785714Y-27954819D01*
X40833333Y-27954819D02*
X40500000Y-27478628D01*
X40261905Y-27954819D02*
X40261905Y-26954819D01*
X40261905Y-26954819D02*
X40642857Y-26954819D01*
X40642857Y-26954819D02*
X40738095Y-27002438D01*
X40738095Y-27002438D02*
X40785714Y-27050057D01*
X40785714Y-27050057D02*
X40833333Y-27145295D01*
X40833333Y-27145295D02*
X40833333Y-27288152D01*
X40833333Y-27288152D02*
X40785714Y-27383390D01*
X40785714Y-27383390D02*
X40738095Y-27431009D01*
X40738095Y-27431009D02*
X40642857Y-27478628D01*
X40642857Y-27478628D02*
X40261905Y-27478628D01*
X41166667Y-26954819D02*
X41785714Y-26954819D01*
X41785714Y-26954819D02*
X41452381Y-27335771D01*
X41452381Y-27335771D02*
X41595238Y-27335771D01*
X41595238Y-27335771D02*
X41690476Y-27383390D01*
X41690476Y-27383390D02*
X41738095Y-27431009D01*
X41738095Y-27431009D02*
X41785714Y-27526247D01*
X41785714Y-27526247D02*
X41785714Y-27764342D01*
X41785714Y-27764342D02*
X41738095Y-27859580D01*
X41738095Y-27859580D02*
X41690476Y-27907200D01*
X41690476Y-27907200D02*
X41595238Y-27954819D01*
X41595238Y-27954819D02*
X41309524Y-27954819D01*
X41309524Y-27954819D02*
X41214286Y-27907200D01*
X41214286Y-27907200D02*
X41166667Y-27859580D01*
X54666666Y-6954819D02*
X54666666Y-7669104D01*
X54666666Y-7669104D02*
X54619047Y-7811961D01*
X54619047Y-7811961D02*
X54523809Y-7907200D01*
X54523809Y-7907200D02*
X54380952Y-7954819D01*
X54380952Y-7954819D02*
X54285714Y-7954819D01*
X55095238Y-7050057D02*
X55142857Y-7002438D01*
X55142857Y-7002438D02*
X55238095Y-6954819D01*
X55238095Y-6954819D02*
X55476190Y-6954819D01*
X55476190Y-6954819D02*
X55571428Y-7002438D01*
X55571428Y-7002438D02*
X55619047Y-7050057D01*
X55619047Y-7050057D02*
X55666666Y-7145295D01*
X55666666Y-7145295D02*
X55666666Y-7240533D01*
X55666666Y-7240533D02*
X55619047Y-7383390D01*
X55619047Y-7383390D02*
X55047619Y-7954819D01*
X55047619Y-7954819D02*
X55666666Y-7954819D01*
X49833333Y-29954819D02*
X49500000Y-29478628D01*
X49261905Y-29954819D02*
X49261905Y-28954819D01*
X49261905Y-28954819D02*
X49642857Y-28954819D01*
X49642857Y-28954819D02*
X49738095Y-29002438D01*
X49738095Y-29002438D02*
X49785714Y-29050057D01*
X49785714Y-29050057D02*
X49833333Y-29145295D01*
X49833333Y-29145295D02*
X49833333Y-29288152D01*
X49833333Y-29288152D02*
X49785714Y-29383390D01*
X49785714Y-29383390D02*
X49738095Y-29431009D01*
X49738095Y-29431009D02*
X49642857Y-29478628D01*
X49642857Y-29478628D02*
X49261905Y-29478628D01*
X50690476Y-29288152D02*
X50690476Y-29954819D01*
X50452381Y-28907200D02*
X50214286Y-29621485D01*
X50214286Y-29621485D02*
X50833333Y-29621485D01*
X54761905Y-29954819D02*
X54761905Y-28954819D01*
X54761905Y-28954819D02*
X55000000Y-28954819D01*
X55000000Y-28954819D02*
X55142857Y-29002438D01*
X55142857Y-29002438D02*
X55238095Y-29097676D01*
X55238095Y-29097676D02*
X55285714Y-29192914D01*
X55285714Y-29192914D02*
X55333333Y-29383390D01*
X55333333Y-29383390D02*
X55333333Y-29526247D01*
X55333333Y-29526247D02*
X55285714Y-29716723D01*
X55285714Y-29716723D02*
X55238095Y-29811961D01*
X55238095Y-29811961D02*
X55142857Y-29907200D01*
X55142857Y-29907200D02*
X55000000Y-29954819D01*
X55000000Y-29954819D02*
X54761905Y-29954819D01*
X56285714Y-29954819D02*
X55714286Y-29954819D01*
X56000000Y-29954819D02*
X56000000Y-28954819D01*
X56000000Y-28954819D02*
X55904762Y-29097676D01*
X55904762Y-29097676D02*
X55809524Y-29192914D01*
X55809524Y-29192914D02*
X55714286Y-29240533D01*
X30166666Y-39454819D02*
X30166666Y-40169104D01*
X30166666Y-40169104D02*
X30119047Y-40311961D01*
X30119047Y-40311961D02*
X30023809Y-40407200D01*
X30023809Y-40407200D02*
X29880952Y-40454819D01*
X29880952Y-40454819D02*
X29785714Y-40454819D01*
X30547619Y-39454819D02*
X31166666Y-39454819D01*
X31166666Y-39454819D02*
X30833333Y-39835771D01*
X30833333Y-39835771D02*
X30976190Y-39835771D01*
X30976190Y-39835771D02*
X31071428Y-39883390D01*
X31071428Y-39883390D02*
X31119047Y-39931009D01*
X31119047Y-39931009D02*
X31166666Y-40026247D01*
X31166666Y-40026247D02*
X31166666Y-40264342D01*
X31166666Y-40264342D02*
X31119047Y-40359580D01*
X31119047Y-40359580D02*
X31071428Y-40407200D01*
X31071428Y-40407200D02*
X30976190Y-40454819D01*
X30976190Y-40454819D02*
X30690476Y-40454819D01*
X30690476Y-40454819D02*
X30595238Y-40407200D01*
X30595238Y-40407200D02*
X30547619Y-40359580D01*
X3214286Y45180D02*
X3214286Y1045180D01*
X3214286Y568990D02*
X3785714Y568990D01*
X3785714Y45180D02*
X3785714Y1045180D01*
X56214286Y45180D02*
X56214286Y1045180D01*
X56214286Y568990D02*
X56785714Y568990D01*
X56785714Y45180D02*
X56785714Y1045180D01*
X3214286Y-37954819D02*
X3214286Y-36954819D01*
X3214286Y-37431009D02*
X3785714Y-37431009D01*
X3785714Y-37954819D02*
X3785714Y-36954819D01*
X56214286Y-37954819D02*
X56214286Y-36954819D01*
X56214286Y-37431009D02*
X56785714Y-37431009D01*
X56785714Y-37954819D02*
X56785714Y-36954819D01*
%LPC*%
D11*
%TO.C,J1*%
X5500000Y-12000000D03*
D12*
X5500000Y-14540000D03*
%TD*%
D11*
%TO.C,U1*%
X15000000Y-12000000D03*
D12*
X15000000Y-14540000D03*
X15000000Y-17080000D03*
%TD*%
D13*
%TO.C,C1*%
X8900000Y-18000000D03*
X11100000Y-18000000D03*
%TD*%
%TO.C,C2*%
X18900000Y-18000000D03*
X21100000Y-18000000D03*
%TD*%
D14*
%TO.C,U2*%
X29190000Y-18000000D03*
D15*
X29190000Y-20540000D03*
X29190000Y-23080000D03*
X29190000Y-25620000D03*
X29190000Y-28160000D03*
X29190000Y-30700000D03*
X29190000Y-33240000D03*
X29190000Y-35780000D03*
X36810000Y-18000000D03*
X36810000Y-20540000D03*
X36810000Y-23080000D03*
X36810000Y-25620000D03*
X36810000Y-28160000D03*
X36810000Y-30700000D03*
X36810000Y-33240000D03*
X36810000Y-35780000D03*
%TD*%
D13*
%TO.C,C3*%
X23900000Y-8000000D03*
X26100000Y-8000000D03*
%TD*%
%TO.C,C4*%
X39900000Y-8000000D03*
X42100000Y-8000000D03*
%TD*%
%TO.C,R1*%
X23900000Y-30000000D03*
X26100000Y-30000000D03*
%TD*%
%TO.C,R2*%
X31900000Y-30000000D03*
X34100000Y-30000000D03*
%TD*%
%TO.C,R3*%
X39900000Y-30000000D03*
X42100000Y-30000000D03*
%TD*%
D11*
%TO.C,J2*%
X55000000Y-10000000D03*
D12*
X55000000Y-12540000D03*
X55000000Y-15080000D03*
X55000000Y-17620000D03*
%TD*%
D13*
%TO.C,R4*%
X48900000Y-32000000D03*
X51100000Y-32000000D03*
%TD*%
D11*
%TO.C,D1*%
X55500000Y-32000000D03*
D12*
X55500000Y-34540000D03*
%TD*%
D11*
%TO.C,J3*%
X33000000Y-40000000D03*
D12*
X35540000Y-40000000D03*
X38080000Y-40000000D03*
X40620000Y-40000000D03*
X43160000Y-40000000D03*
X45700000Y-40000000D03*
%TD*%
D16*
%TO.C,H*%
X3500000Y-3500000D03*
%TD*%
%TO.C,H*%
X56500000Y-3500000D03*
%TD*%
%TO.C,H*%
X3500000Y-41500000D03*
%TD*%
%TO.C,H*%
X56500000Y-41500000D03*
%TD*%
%LPD*%
M02*
